<svg width="30" height="30" viewBox="0 0 30 30" fill="none" xmlns="http://www.w3.org/2000/svg">
<path d="M15.6713 14.9654H13.9384C13.6141 14.9654 13.3536 14.705 13.3536 14.3807V13.6046C13.0187 13.5036 12.6945 13.3707 12.3915 13.2059L11.844 13.7535C11.626 13.982 11.2326 13.982 11.0147 13.7535L9.79207 12.5308C9.56349 12.3023 9.56349 11.9302 9.79207 11.7016L10.3396 11.1541C10.1748 10.8457 10.0419 10.5215 9.94091 10.1866H9.16481C8.84055 10.1866 8.58008 9.92611 8.58008 9.60185V7.87423C8.58008 7.54997 8.84055 7.2895 9.16481 7.2895H9.94091C10.0419 6.9546 10.1748 6.63034 10.3396 6.32734L9.79207 5.77982C9.56349 5.55124 9.56349 5.17914 9.79207 4.95056L11.0147 3.72794C11.2433 3.49936 11.6154 3.49936 11.844 3.72794L12.5456 4.42962C12.8008 4.68478 12.4127 5.07283 12.1576 4.81767L11.4612 4.11599C11.4506 4.10536 11.424 4.10004 11.4134 4.11599L10.1908 5.33861C10.1748 5.35456 10.1801 5.37582 10.1908 5.38646L10.8871 6.08282C10.9775 6.17319 10.9934 6.3114 10.9296 6.41771C10.7064 6.79513 10.5363 7.20444 10.43 7.6297C10.3981 7.75197 10.2864 7.83702 10.1642 7.83702H9.17544C9.15418 7.83702 9.13823 7.85297 9.13823 7.87423V9.60185C9.13823 9.62311 9.15418 9.63906 9.17544 9.63906H10.1642C10.2918 9.63906 10.4034 9.72411 10.43 9.84637C10.5363 10.2716 10.7064 10.6809 10.9296 11.0584C10.9934 11.1647 10.9775 11.3029 10.8871 11.3933L10.1801 12.0896C10.1642 12.1056 10.1695 12.1268 10.1801 12.1375L11.4027 13.3601H11.4506L12.147 12.6637C12.2373 12.5734 12.3755 12.5574 12.4818 12.6212C12.8593 12.8498 13.2686 13.0146 13.6938 13.1209C13.8161 13.1528 13.9011 13.2591 13.9011 13.3867V14.3754C13.9011 14.3967 13.9171 14.4126 13.9384 14.4126H15.6713C15.6926 14.4126 15.7085 14.3967 15.7085 14.3754V13.3867C15.7085 13.2591 15.7936 13.1475 15.9158 13.1209C16.3411 13.0146 16.7451 12.8445 17.1278 12.6212C17.2341 12.5574 17.3723 12.5734 17.4627 12.6637L18.1644 13.3601H18.2122L19.4349 12.1375V12.0896L18.7385 11.3879C18.6481 11.2976 18.6322 11.1594 18.696 11.0531C18.9245 10.6703 19.0946 10.2663 19.201 9.84106C19.2329 9.7188 19.3392 9.63374 19.4667 9.63374H20.4555C20.4767 9.63374 20.4927 9.6178 20.4927 9.59653C20.4927 9.44238 20.615 9.32011 20.7691 9.32011C20.9233 9.32011 21.0455 9.44238 21.0455 9.59653C21.0455 9.92079 20.7851 10.1813 20.4608 10.1813H19.6847C19.5837 10.5162 19.4508 10.8404 19.286 11.1487L19.8335 11.6963C20.0621 11.9142 20.0621 12.3076 19.8335 12.5255L18.6109 13.7481C18.393 13.9767 17.9996 13.9767 17.7817 13.7481L17.2288 13.2006C16.9205 13.3654 16.5962 13.5036 16.2667 13.5993V14.3754C16.2613 14.6997 15.9956 14.9654 15.6713 14.9654ZM14.8101 11.9089C13.0559 11.9089 11.6313 10.4843 11.6313 8.73007C11.6313 7.61376 12.232 6.56124 13.1942 5.99245C13.5078 5.81172 13.7842 6.2795 13.4759 6.46555C11.1954 7.8317 12.147 11.3401 14.8101 11.356C18.292 11.2125 18.292 6.24761 14.8101 6.10408C14.656 6.10408 14.5337 5.98182 14.5337 5.82766C14.5337 5.67351 14.656 5.55124 14.8101 5.55124C19.0255 5.72666 19.0202 11.7335 14.8101 11.9089ZM20.7638 8.8098C20.6096 8.8098 20.4874 8.68754 20.4874 8.53338V7.8636C20.4874 7.84233 20.4714 7.82639 20.4502 7.82639H19.4614C19.3339 7.82639 19.2222 7.74133 19.1956 7.61907C19.0893 7.19381 18.9192 6.7845 18.6906 6.40708C18.6269 6.30077 18.6428 6.16256 18.7332 6.07219L19.4349 5.37582V5.32798L18.2122 4.10536C18.1963 4.09473 18.175 4.08941 18.1644 4.10536L17.4627 4.80704C17.3723 4.89741 17.2341 4.91335 17.1278 4.84956C16.7504 4.62099 16.3411 4.4562 15.9158 4.34457C15.7936 4.31267 15.7085 4.20104 15.7085 4.07878V3.08473C15.7085 3.06347 15.6926 3.04752 15.6713 3.04752H13.9384C13.9171 3.04752 13.9011 3.06347 13.9011 3.08473V4.07346C13.8958 4.38709 13.5078 4.36051 13.3005 4.46151C13.1569 4.50936 12.9975 4.43493 12.9496 4.29141C12.8593 4.02031 13.141 3.90868 13.3536 3.86615V3.08473C13.3536 2.76047 13.6141 2.5 13.9384 2.5H15.6713C15.9956 2.5 16.256 2.76047 16.256 3.08473V3.86083C16.5909 3.96183 16.9152 4.09473 17.2235 4.25952L17.7763 3.70668C18.0049 3.4781 18.377 3.4781 18.6056 3.70668L19.8282 4.9293C20.0568 5.14725 20.0568 5.54061 19.8282 5.75856L19.2807 6.30608C19.4455 6.61439 19.5837 6.93866 19.6794 7.26823H20.4555C20.7797 7.26823 21.0402 7.5287 21.0402 7.85297V8.52275C21.0402 8.68754 20.9179 8.8098 20.7638 8.8098Z" fill="#33AAFF"/>
<path d="M28.3175 19.7982C28.2377 19.442 28.0357 19.1337 27.7859 18.9158C28.1101 18.7032 28.3228 18.3151 28.3228 17.8845C28.3547 17.6506 28.1952 17.4167 27.956 17.4221C27.5679 17.4486 26.6908 17.3317 26.3559 17.5656L25.4895 15.8645C25.1918 15.2798 24.6283 14.9183 24.0117 14.9183C23.8575 14.9183 23.7353 15.0406 23.7353 15.1948C23.7353 15.3489 23.8575 15.4712 24.0117 15.4712C24.4157 15.4712 24.7931 15.721 25.0004 16.1144C25.0004 16.1144 26.0051 18.0918 26.0051 18.0972C26.0051 18.1025 26.0104 18.1078 26.0104 18.1131L26.2337 18.549C26.2337 18.549 20.4448 18.549 20.4395 18.549C20.381 18.549 20.1471 17.9324 20.1099 17.8579C19.7325 17.0074 19.0946 16.0559 18.0581 16.0825C18.2654 15.7051 18.6322 15.4712 19.0308 15.4712H22.4063C22.7678 15.4659 22.7678 14.9236 22.4063 14.9183H19.0308C18.3238 14.9024 17.7178 15.4127 17.4414 16.0825H12.4287C12.3489 16.0825 12.2745 16.0878 12.1948 16.0984C11.9184 15.4233 11.307 14.9024 10.5947 14.9183H5.61387C4.99724 14.9183 4.43377 15.2798 4.13609 15.8645C3.97661 16.1835 4.46035 16.4333 4.62514 16.1144C4.82713 15.7157 5.20455 15.4712 5.61387 15.4712H10.5947C11.0572 15.4605 11.4718 15.8114 11.6579 16.2632C10.8074 16.6885 10.4725 17.7569 10.0632 18.549H3.38656C3.53541 18.2566 3.98725 17.3636 4.1414 17.0553C4.30087 16.731 3.81714 16.4812 3.65235 16.8054L3.2643 17.5656C2.92941 17.3264 2.04699 17.4433 1.66426 17.4167C1.42505 17.4114 1.27089 17.6453 1.30279 17.8792C1.30279 18.3151 1.51542 18.6978 1.83436 18.9105C1.39316 19.2773 1.16989 19.947 1.27621 20.5211L1.52073 21.9617V24.2953C1.52073 24.71 1.83968 25.0502 2.22773 25.0502H3.46099C3.80651 25.0502 4.09888 24.7844 4.16267 24.4335H7.82522V26.6768C7.82522 27.1286 8.17074 27.4954 8.59069 27.4954H9.98873C10.3715 27.4954 10.6904 27.1924 10.7489 26.799H12.1257C12.4871 26.799 12.4871 26.2515 12.1257 26.2462H9.41463C9.0319 26.2462 8.70232 25.9219 8.6279 25.4754C8.53753 24.9598 8.31959 23.6468 8.22922 23.1418C8.22922 23.1312 8.09101 22.3179 8.09101 22.3072C8.48437 22.6581 8.95748 22.9132 9.47842 23.0249C9.71763 24.3857 11.525 24.4176 11.812 23.0674H18.6906C18.9777 24.4229 20.785 24.3857 21.0242 23.0249C21.5346 22.9132 22.013 22.6634 22.401 22.3125C22.2256 23.3651 22.0342 24.4282 21.8641 25.4807C21.7897 25.9273 21.4601 26.2515 21.0827 26.2515H14.6613C14.5071 26.2515 14.3849 26.3738 14.3849 26.5279C14.3849 26.6821 14.5071 26.8044 14.6613 26.8044H19.7485C19.8016 27.1977 20.1259 27.5007 20.5086 27.5007H21.9067C22.3319 27.5007 22.6774 27.1339 22.6774 26.6821V24.4388H25.4576C25.5214 24.7897 25.8084 25.0555 26.1593 25.0555H27.3925C27.7859 25.0555 28.1048 24.7153 28.1048 24.3006V21.9511C28.158 21.4514 28.4769 20.2872 28.3175 19.7982ZM8.37806 26.2515C8.56411 26.5014 8.83521 26.698 9.14353 26.7671C9.3349 26.8256 9.9781 26.7884 10.1801 26.799C10.1429 26.8841 10.0685 26.9426 9.98873 26.9426H8.59069C8.29301 26.9319 8.39401 26.4482 8.37806 26.2515ZM22.1246 26.6768C22.1246 26.8203 22.0236 26.9426 21.9067 26.9426H20.5086C20.4236 26.9426 20.3545 26.8841 20.3172 26.799C20.4395 26.7937 21.1359 26.8097 21.2369 26.7884C21.593 26.7459 21.912 26.5386 22.1246 26.2515V26.6768ZM26.9035 17.9696H27.7646C27.7274 18.2992 27.4829 18.549 27.1905 18.549H26.8503L26.6005 18.0599C26.6908 17.9962 26.7972 17.9696 26.9035 17.9696ZM10.1163 19.6547L10.4725 18.953L10.4831 18.937C11.0147 18.1131 11.2326 16.6778 12.4287 16.63H18.0793C18.5524 16.63 18.9936 16.9171 19.2328 17.3795C19.2328 17.3902 20.0249 18.9317 20.0249 18.9477H20.0196C20.0249 18.953 20.0302 18.9583 20.0355 18.9689L20.6575 20.1916H9.84521L10.1163 19.6547ZM2.71678 17.9696C2.82309 17.9696 2.92409 18.0015 3.01978 18.0599L2.76994 18.549H2.42973C2.13736 18.549 1.89284 18.2992 1.85563 17.9696H2.71678ZM3.46099 24.5026H2.22773C2.02042 24.4973 2.07889 24.1571 2.06826 24.0189C2.25962 24.2422 2.5201 24.3963 2.81246 24.4282C2.90815 24.4495 3.4663 24.4335 3.57262 24.4388C3.54604 24.4761 3.50883 24.5026 3.46099 24.5026ZM2.95599 23.886C2.79652 23.886 2.64768 23.8169 2.53073 23.7H2.52541C2.49883 23.6681 2.46694 23.6362 2.44568 23.6043C2.44568 23.6043 2.44568 23.6043 2.44568 23.599C2.25431 23.4289 2.13205 22.1478 2.05763 21.866C2.05763 21.866 1.82905 20.5211 1.82905 20.5158C2.15863 20.7976 2.56262 20.9942 2.97725 21.0952C3.21115 22.2966 4.8165 22.3338 5.08761 21.1378H7.73485C7.67638 21.2441 7.63917 21.361 7.60196 21.478H7.23517C6.61323 21.478 6.06571 21.7969 5.85839 22.2753L5.5235 23.0568C5.48629 23.1418 5.49692 23.2375 5.55008 23.3172C5.59792 23.397 5.68829 23.4395 5.77865 23.4395H7.72422L7.79864 23.8754H2.95599V23.886ZM3.51414 20.872C3.54072 20.0321 4.57198 20.0852 4.57729 20.872C4.56135 21.6747 3.52477 21.6747 3.51414 20.872ZM7.52754 22.1159C7.52222 22.1637 7.53285 22.2115 7.53817 22.2594C7.53285 22.2647 7.53285 22.2647 7.53817 22.27C7.54349 22.3551 7.62854 22.8069 7.63917 22.8973H6.20392L6.37402 22.4986C6.49097 22.2275 6.84712 22.0361 7.24049 22.0361H7.52222C7.51691 22.0627 7.51691 22.0893 7.52754 22.1159ZM5.09292 20.5956C4.79524 19.4686 3.32809 19.3889 3.00383 20.5424C2.56262 20.4201 2.15863 20.149 1.87689 19.7876C2.03105 19.3783 2.39252 19.1018 2.7912 19.1018H9.7761C9.76015 19.139 9.64852 19.357 9.63258 19.3836C9.63258 19.3836 9.07974 20.1969 9.07974 20.2022C8.78206 20.2394 8.48437 20.3457 8.24517 20.5371C8.19732 20.5743 8.17074 20.5956 8.11227 20.5956C7.10759 20.5956 6.0976 20.5956 5.09292 20.5956ZM10.6479 23.5245C9.80268 23.498 9.808 22.0787 10.6479 22.0574C11.4878 22.0787 11.4931 23.5033 10.6479 23.5245ZM19.8495 23.5245C19.0043 23.498 19.0096 22.0787 19.8495 22.0574C20.6947 22.0787 20.6947 23.498 19.8495 23.5245ZM22.215 21.7172C21.8907 22.0627 21.4654 22.3498 20.9977 22.4614C20.6575 21.175 18.9617 21.2175 18.6853 22.5145H11.812C11.5356 21.2175 9.83458 21.175 9.49437 22.4614C8.96811 22.3232 8.47906 22.0042 8.1548 21.563C8.30895 21.0952 8.76079 20.7338 9.26047 20.7391H21.2262C21.7525 20.7285 22.1618 21.1006 22.3425 21.5683C22.3053 21.6215 22.2628 21.6693 22.215 21.7172ZM22.3266 20.5956C22.0342 20.3404 21.6568 20.2022 21.2741 20.1916L20.7212 19.0965H26.829C27.2277 19.0965 27.5892 19.3729 27.7434 19.7822C27.4563 20.1384 27.0629 20.4095 26.6217 20.5371C26.4144 19.7291 25.4151 19.3995 24.825 20.0321C24.6762 20.1809 24.5752 20.3829 24.5273 20.5902H22.3266V20.5956ZM25.4257 20.2819C26.223 20.0587 26.3719 21.4461 25.5798 21.4833C24.9738 21.4833 24.8463 20.4786 25.4257 20.2819ZM22.9698 22.1956C23.225 22.3285 23.31 22.6634 23.4163 22.8973H22.8635C22.8848 22.7538 22.9645 22.3338 22.9698 22.1956ZM27.5467 24.2953C27.5467 24.407 27.4776 24.4973 27.3872 24.4973H26.1539C26.1114 24.4973 26.0689 24.4707 26.0423 24.4335C26.2337 24.4229 26.744 24.4601 26.9194 24.4016C27.1639 24.3485 27.3819 24.205 27.5467 24.0136V24.2953ZM27.552 21.8713C27.5573 21.8713 27.3181 23.2322 27.3181 23.2322C27.2543 23.6096 26.9779 23.886 26.6589 23.886H22.6934L22.7678 23.4501H23.831C24.0223 23.4554 24.1659 23.2428 24.0861 23.0674L23.7512 22.286C23.613 21.9564 23.3047 21.7012 22.9167 21.5737C22.9113 21.5577 22.906 21.5364 22.9007 21.5258C22.8794 21.4673 22.8635 21.3982 22.8369 21.3398C22.8157 21.276 22.7838 21.2122 22.7519 21.1537H24.5167C24.7878 22.3498 26.3985 22.3125 26.627 21.1112C27.047 21.0155 27.4404 20.8135 27.7699 20.5371L27.552 21.8713Z" fill="#33AAFF"/>
<path d="M9.74414 21.9572C9.7654 21.9307 9.78667 21.9094 9.80793 21.8828C9.78135 21.9041 9.76009 21.9307 9.74414 21.9572Z" fill="#33AAFF"/>
<path d="M9.80859 21.8819C9.83517 21.85 9.86175 21.8235 9.89365 21.7969C9.86175 21.8235 9.82986 21.85 9.80859 21.8819Z" fill="#33AAFF"/>
<path d="M9.98242 21.7281C10.0037 21.7121 10.0196 21.7015 10.0409 21.6855C10.0196 21.6962 9.99837 21.7068 9.98242 21.7281Z" fill="#33AAFF"/>
<path d="M9.59961 22.1793C9.61556 22.1528 9.6315 22.1262 9.64213 22.0996C9.62619 22.1262 9.61024 22.1475 9.59961 22.1793Z" fill="#33AAFF"/>
<path d="M18.1058 25.556C18.1537 25.4763 18.1643 25.3806 18.1271 25.2955L17.7497 24.4078C17.5264 23.8762 16.9098 23.5254 16.2241 23.5254H14.2732C13.5821 23.5254 12.9708 23.8762 12.7476 24.4078L12.3701 25.2955C12.2904 25.471 12.4339 25.6836 12.6253 25.6783H17.8773C17.9676 25.6783 18.0527 25.6304 18.1058 25.556ZM13.0399 25.1254L13.2526 24.6204C13.3908 24.2962 13.8107 24.0729 14.2732 24.0729H16.2294C16.6918 24.0729 17.1118 24.2962 17.2447 24.6204L17.4573 25.1254H13.0399Z" fill="#33AAFF"/>
</svg>
