<svg width="24" height="31" viewBox="0 0 24 31" fill="none" xmlns="http://www.w3.org/2000/svg">
<path fill-rule="evenodd" clip-rule="evenodd" d="M1.67795 3.29051C1.40822 3.29051 1.18919 3.50931 1.18919 3.77807L1.18921 29.3251C1.18921 29.5934 1.40814 29.8123 1.67793 29.8123L20.2096 29.8123C20.34 29.8123 20.4626 29.7616 20.5553 29.6692C20.6475 29.5773 20.6977 29.4551 20.6977 29.3251L20.6978 3.77803C20.6978 3.50927 20.4781 3.29055 20.2083 3.29055L1.67795 3.29051ZM20.2096 30.4993H1.67795C1.02836 30.4993 0.5 29.9722 0.5 29.3251L0.500039 3.77806C0.500039 3.13044 1.02825 2.60357 1.67793 2.60357L20.2084 2.60352C20.8581 2.60352 21.3869 3.13046 21.3869 3.77808L21.387 29.3251C21.3875 29.6376 21.2648 29.9328 21.0429 30.1546C20.8204 30.377 20.5242 30.4993 20.2096 30.4993Z" fill="#33AAFF"/>
<path fill-rule="evenodd" clip-rule="evenodd" d="M22.3168 28.3956H21.0444C20.8542 28.3956 20.6998 28.2419 20.6998 28.0522C20.6998 27.8625 20.8541 27.7087 21.0444 27.7087H22.3168C22.5897 27.7087 22.811 27.4881 22.811 27.2167V1.6793C22.811 1.40784 22.5896 1.18705 22.3168 1.18705L3.79609 1.18699C3.52392 1.18699 3.30245 1.40788 3.30245 1.67934L3.30249 2.94794C3.30249 3.13768 3.1481 3.29144 2.95787 3.29144C2.76771 3.29138 2.61328 3.1377 2.61328 2.948L2.61332 1.6793C2.61332 1.02907 3.14391 0.500058 3.79601 0.500058L22.3168 0.5C22.9695 0.5 23.5001 1.02907 23.5001 1.67934V27.2167C23.5001 27.8667 22.9695 28.3957 22.3168 28.3956Z" fill="#33AAFF"/>
<path fill-rule="evenodd" clip-rule="evenodd" d="M18.472 18.1303H8.13564C7.94544 18.1303 7.79102 17.9766 7.79102 17.7868C7.79105 17.5971 7.94536 17.4434 8.13558 17.4434L18.472 17.4434C18.6623 17.4434 18.8165 17.5971 18.8165 17.7868C18.8166 17.9766 18.6622 18.1303 18.472 18.1303Z" fill="#33AAFF"/>
<path fill-rule="evenodd" clip-rule="evenodd" d="M18.472 20.1616H8.13564C7.94544 20.1616 7.79102 20.0078 7.79102 19.8181C7.79105 19.6284 7.94536 19.4746 8.13558 19.4746L18.472 19.4746C18.6623 19.4746 18.8165 19.6285 18.8165 19.8181C18.8166 20.0078 18.6622 20.1616 18.472 20.1616Z" fill="#33AAFF"/>
<path fill-rule="evenodd" clip-rule="evenodd" d="M3.3006 20.1752H6.05486V17.4291H3.3006V20.1752ZM6.14882 20.8622H3.20666C2.87822 20.8622 2.61133 20.5959 2.61133 20.2685L2.61142 17.3358C2.61142 17.0085 2.87814 16.7422 3.20658 16.7422H6.14881C6.47723 16.7422 6.74395 17.0085 6.74395 17.3359L6.74402 20.2685C6.7428 20.5966 6.47536 20.8622 6.14882 20.8622Z" fill="#33AAFF"/>
<path fill-rule="evenodd" clip-rule="evenodd" d="M4.34288 19.7132C4.25134 19.7132 4.164 19.6771 4.09937 19.6127L3.62989 19.145C3.49581 19.0109 3.49577 18.7933 3.62975 18.6592C3.76449 18.525 3.98273 18.525 4.11734 18.6592L4.34288 18.8839L5.23664 17.9932C5.37125 17.859 5.589 17.859 5.7236 17.9932C5.85825 18.1273 5.85821 18.3448 5.7236 18.4789L4.58638 19.6126C4.52177 19.677 4.43439 19.7133 4.34288 19.7132Z" fill="#33AAFF"/>
<path fill-rule="evenodd" clip-rule="evenodd" d="M18.472 24.31H8.13564C7.94544 24.31 7.79102 24.1563 7.79102 23.9666C7.79105 23.7769 7.94536 23.6231 8.13558 23.6231L18.472 23.623C18.6623 23.623 18.8165 23.7769 18.8165 23.9666C18.8166 24.1563 18.6622 24.3101 18.472 24.31Z" fill="#33AAFF"/>
<path fill-rule="evenodd" clip-rule="evenodd" d="M18.472 26.3413H8.13564C7.94544 26.3413 7.79102 26.1875 7.79102 25.9979C7.79105 25.8081 7.94536 25.6544 8.13558 25.6544L18.472 25.6543C18.6623 25.6543 18.8165 25.8082 18.8165 25.9979C18.8166 26.1875 18.6622 26.3413 18.472 26.3413Z" fill="#33AAFF"/>
<path fill-rule="evenodd" clip-rule="evenodd" d="M3.3006 26.355H6.05486V23.6088H3.3006V26.355ZM6.14882 27.0419H3.20666C2.87822 27.0419 2.61133 26.7754 2.61133 26.448L2.61142 23.5156C2.61142 23.1882 2.87814 22.9219 3.20658 22.9219L6.14881 22.9219C6.47723 22.9219 6.74395 23.1882 6.74395 23.5156L6.74402 26.448C6.7428 26.7766 6.47536 27.042 6.14882 27.0419Z" fill="#33AAFF"/>
<path fill-rule="evenodd" clip-rule="evenodd" d="M4.34288 25.8932C4.25134 25.8932 4.164 25.8568 4.09937 25.7924L3.62989 25.3249C3.49581 25.1907 3.49577 24.973 3.62975 24.8389C3.76449 24.7046 3.98273 24.7047 4.11734 24.8389L4.34288 25.0636L5.23664 24.1729C5.37125 24.0387 5.589 24.0387 5.72361 24.1729C5.85825 24.307 5.85821 24.5246 5.72361 24.6588L4.58638 25.7924C4.52178 25.8568 4.43439 25.8932 4.34288 25.8932Z" fill="#33AAFF"/>
<path fill-rule="evenodd" clip-rule="evenodd" d="M4.98759 12.9803H3.77789C3.11268 12.9803 2.61133 12.449 2.61133 11.7444C2.61142 11.7405 2.61133 11.7365 2.61133 11.7325L2.6599 10.3357C2.69931 9.19979 3.60142 8.26497 4.71473 8.2076C4.75189 8.20533 4.7931 8.20448 4.83436 8.20448L6.69261 8.20438L10.0032 6.2659C10.0074 6.26351 10.0115 6.26112 10.0163 6.25886C10.2587 6.13041 10.5308 6.06254 10.8042 6.06254L13.4999 6.0625C13.747 6.0625 13.9958 6.11859 14.2195 6.22463C14.2231 6.22619 14.2267 6.22796 14.2297 6.22968L18.6968 8.52951C19.0492 8.70012 19.2764 9.06121 19.2764 9.45117L19.2766 11.7437C19.2766 12.4252 18.7207 12.9796 18.0369 12.9796L16.8278 12.9795C16.6376 12.9795 16.4832 12.8258 16.4832 12.6361C16.4832 12.4464 16.6376 12.2926 16.8278 12.2926L18.037 12.2925C18.3403 12.2925 18.5872 12.0464 18.5872 11.7438L18.5874 9.4511C18.5874 9.32222 18.5113 9.20277 18.394 9.14677C18.3911 9.14531 18.3881 9.14381 18.385 9.14225L13.9193 6.84288C13.7865 6.78089 13.6458 6.74953 13.4998 6.74953L10.8042 6.74949C10.6458 6.74949 10.4871 6.78852 10.3459 6.86223L6.96059 8.84407C6.90728 8.87508 6.84743 8.89143 6.78582 8.89143L4.83439 8.89137C4.80694 8.89137 4.77992 8.89191 4.75303 8.89351C3.9915 8.93278 3.37586 9.57663 3.34837 10.3595L3.30059 11.7498C3.30233 12.0126 3.45186 12.2933 3.77786 12.2933H4.98758C5.17776 12.2933 5.33211 12.4471 5.33211 12.6368C5.33217 12.8264 5.17775 12.9803 4.98759 12.9803Z" fill="#33AAFF"/>
<path fill-rule="evenodd" clip-rule="evenodd" d="M14.4147 12.98H7.39736C7.20716 12.98 7.05273 12.8262 7.05273 12.6365C7.05277 12.4467 7.20708 12.293 7.39732 12.293H14.4148C14.605 12.293 14.7592 12.4468 14.7592 12.6365C14.7593 12.8261 14.6049 12.98 14.4147 12.98Z" fill="#33AAFF"/>
<path fill-rule="evenodd" clip-rule="evenodd" d="M10.8036 8.89063C10.6134 8.89063 10.459 8.73688 10.459 8.54719L10.459 6.40598C10.459 6.21624 10.6133 6.0625 10.8036 6.0625C10.9939 6.0625 11.1482 6.2163 11.1482 6.40598L11.1482 8.54713C11.1482 8.73686 10.9938 8.89068 10.8036 8.89063Z" fill="#33AAFF"/>
<path fill-rule="evenodd" clip-rule="evenodd" d="M13.499 8.89063C13.3087 8.89063 13.1543 8.73688 13.1543 8.54719L13.1544 6.40598C13.1544 6.21624 13.3086 6.0625 13.4989 6.0625C13.6892 6.0625 13.8435 6.2163 13.8435 6.40598L13.8436 8.54713C13.8436 8.73686 13.6891 8.89068 13.499 8.89063Z" fill="#33AAFF"/>
<path fill-rule="evenodd" clip-rule="evenodd" d="M17.9809 8.89207H6.78605C6.59585 8.89207 6.44141 8.73833 6.44141 8.54863C6.44146 8.35892 6.59575 8.20514 6.78599 8.20514L17.9809 8.20508C18.1711 8.20508 18.3254 8.35892 18.3254 8.54863C18.3255 8.73831 18.1711 8.89213 17.9809 8.89207Z" fill="#33AAFF"/>
<path fill-rule="evenodd" clip-rule="evenodd" d="M3.34884 11.5256H2.97544C2.78523 11.5256 2.63086 11.3719 2.63086 11.1821C2.63086 10.9924 2.78519 10.8386 2.97544 10.8386H3.34884C3.73581 10.8386 4.05106 10.5246 4.05106 10.1385L4.05118 10.0034H3.1597C2.96952 10.0034 2.81508 9.84962 2.81508 9.6599C2.81512 9.47015 2.96945 9.31641 3.15966 9.31641H4.39576C4.58596 9.31641 4.74023 9.47021 4.74023 9.6599L4.74035 10.1384C4.74035 10.9033 4.11567 11.5256 3.34884 11.5256Z" fill="#33AAFF"/>
<path fill-rule="evenodd" clip-rule="evenodd" d="M18.9312 11.5263H17.8843C17.5432 11.5263 17.2656 11.2496 17.2656 10.9094L17.2656 9.93329C17.2656 9.59307 17.5432 9.31641 17.8842 9.31641H18.9312C19.1214 9.31641 19.2757 9.47021 19.2757 9.6599C19.2758 9.84956 19.1214 10.0034 18.9311 10.0034H17.9548V10.8393H18.9312C19.1214 10.8393 19.2757 10.9932 19.2757 11.1829C19.2758 11.3725 19.1214 11.5264 18.9312 11.5263Z" fill="#33AAFF"/>
<path fill-rule="evenodd" clip-rule="evenodd" d="M6.19137 11.7534C5.71636 11.7534 5.32979 12.1388 5.32979 12.6125C5.32991 13.0861 5.71626 13.4715 6.19126 13.4715C6.66637 13.4714 7.05332 13.0861 7.05332 12.6125C7.05338 12.1387 6.66625 11.7534 6.19137 11.7534ZM6.19137 14.1584C5.3365 14.1584 4.64062 13.4649 4.64062 12.6125C4.64074 11.7599 5.33639 11.0664 6.19126 11.0664C7.04678 11.0664 7.74249 11.76 7.74249 12.6125C7.74255 13.4649 7.04673 14.1584 6.19137 14.1584Z" fill="#33AAFF"/>
<path fill-rule="evenodd" clip-rule="evenodd" d="M15.6216 11.7534C15.1461 11.7534 14.7595 12.1388 14.7595 12.6125C14.7596 13.0861 15.1459 13.4715 15.6215 13.4715C16.0966 13.4714 16.483 13.0861 16.483 12.6125C16.4831 12.1387 16.0965 11.7534 15.6216 11.7534ZM15.6216 14.1584C14.7661 14.1584 14.0703 13.4649 14.0703 12.6125C14.0704 11.7599 14.7661 11.0664 15.6215 11.0664C16.4765 11.0664 17.1722 11.76 17.1722 12.6125C17.1722 13.4649 16.4764 14.1584 15.6216 14.1584Z" fill="#33AAFF"/>
<path fill-rule="evenodd" clip-rule="evenodd" d="M11.1313 10.0581H10.4775C10.2872 10.0581 10.1328 9.90434 10.1328 9.71463C10.1329 9.52494 10.2872 9.37113 10.4774 9.37113L11.1313 9.37109C11.3216 9.37109 11.4758 9.52494 11.4758 9.71463C11.4758 9.90432 11.3215 10.0581 11.1313 10.0581Z" fill="#33AAFF"/>
</svg>
