<svg width="25" height="24" viewBox="0 0 25 24" fill="none" xmlns="http://www.w3.org/2000/svg">
<path d="M18.3877 10.8967C19.7827 10.7007 20.8567 9.50473 20.8597 8.05573C20.8597 6.62773 19.8187 5.44373 18.4537 5.21973" stroke="#33AAFF" stroke-width="1.5" stroke-linecap="round" stroke-linejoin="round"/>
<path d="M20.2285 14.25C21.5795 14.452 22.5225 14.925 22.5225 15.9C22.5225 16.571 22.0785 17.007 21.3605 17.281" stroke="#33AAFF" stroke-width="1.5" stroke-linecap="round" stroke-linejoin="round"/>
<path fill-rule="evenodd" clip-rule="evenodd" d="M12.3867 14.6641C9.1727 14.6641 6.4277 15.1511 6.4277 17.0961C6.4277 19.0401 9.1557 19.5411 12.3867 19.5411C15.6007 19.5411 18.3447 19.0591 18.3447 17.1131C18.3447 15.1671 15.6177 14.6641 12.3867 14.6641Z" stroke="#33AAFF" stroke-width="1.5" stroke-linecap="round" stroke-linejoin="round"/>
<path fill-rule="evenodd" clip-rule="evenodd" d="M12.3867 11.888C14.4957 11.888 16.2057 10.179 16.2057 8.069C16.2057 5.96 14.4957 4.25 12.3867 4.25C10.2777 4.25 8.56772 5.96 8.56772 8.069C8.55972 10.171 10.2567 11.881 12.3587 11.888H12.3867Z" stroke="#33AAFF" stroke-width="1.5" stroke-linecap="round" stroke-linejoin="round"/>
<path d="M6.38481 10.8967C4.98881 10.7007 3.91581 9.50473 3.91281 8.05573C3.91281 6.62773 4.95381 5.44373 6.31881 5.21973" stroke="#33AAFF" stroke-width="1.5" stroke-linecap="round" stroke-linejoin="round"/>
<path d="M4.54391 14.25C3.19291 14.452 2.24991 14.925 2.24991 15.9C2.24991 16.571 2.69391 17.007 3.41191 17.281" stroke="#33AAFF" stroke-width="1.5" stroke-linecap="round" stroke-linejoin="round"/>
</svg>
