<svg width="28" height="30" viewBox="0 0 28 30" fill="none" xmlns="http://www.w3.org/2000/svg">
<path d="M8.87891 0.972656C8.80273 1.04297 8.78516 1.19531 8.78516 1.67578V2.28516H7.91797C6.82812 2.28516 6.85156 2.27344 6.85156 3.03516V3.57422H4.2207C2.49805 3.57422 1.53125 3.59766 1.41992 3.63867C1.19727 3.7207 1.00391 3.9082 0.869141 4.17188C0.763672 4.38281 0.757812 4.69336 0.757812 15.5566C0.757812 25.4707 0.769531 26.748 0.845703 26.9355C0.962891 27.2168 1.08594 27.3516 1.35547 27.4863C1.56641 27.5918 1.85352 27.5977 10.373 27.5977H19.1797L19.4375 27.4746C19.5898 27.3984 19.7539 27.252 19.8477 27.1113L20.0059 26.877L20.0352 25.3008L20.0645 23.7246L20.2871 23.9531C20.4277 24.0996 20.4922 24.1992 20.4512 24.2227C20.416 24.2461 20.3867 24.3457 20.3867 24.4453C20.3867 24.6445 20.3984 24.6562 23.6387 27.9316C24.7109 29.0215 24.8281 29.1211 25.0098 29.1211C25.1914 29.1211 25.3086 29.0273 26.2285 28.1133C27.0723 27.2695 27.2422 27.0762 27.2422 26.9355C27.2422 26.7891 26.9082 26.4258 25.0391 24.5156C23.123 22.5586 22.8125 22.2656 22.6602 22.2656C22.5664 22.2656 22.4434 22.2891 22.3848 22.3184C22.3027 22.3652 22.2148 22.3125 21.9453 22.0371L21.6113 21.6973L21.7285 21.4922C22.2266 20.6543 22.4082 19.125 22.1504 18.0176C21.8867 16.9219 21.2012 15.8613 20.3691 15.2637L20.041 15.0293L20.0352 9.72656C20.0352 4.67578 20.0293 4.41211 19.9238 4.18359C19.8652 4.04883 19.7129 3.86719 19.5898 3.77344L19.373 3.60352L16.6543 3.58594L13.9414 3.56836V3.05859C13.9414 2.27344 13.9531 2.28516 12.8809 2.28516H12.0078V1.68164C12.0078 1.16602 11.9902 1.06055 11.9023 0.978516C11.8086 0.890625 11.6152 0.878906 10.3789 0.878906C9.17773 0.878906 8.95508 0.890625 8.87891 0.972656ZM11.2461 1.93359V2.28516H10.3965H9.54688V1.93359V1.58203H10.3965H11.2461V1.93359ZM13.1797 3.92578V4.80469H10.3965H7.61328V3.92578V3.04688H10.3965H13.1797V3.92578ZM6.85156 4.8457C6.85156 5.23242 6.875 5.37891 6.95117 5.46094C7.03906 5.56055 7.22656 5.56641 10.4023 5.56641H13.7598L13.8477 5.4375C13.9121 5.34375 13.9414 5.16797 13.9414 4.82227V4.33594H16.5137H19.0918L19.1797 4.46484C19.2617 4.58203 19.2734 5.16797 19.2734 9.59766C19.2734 14.3438 19.2676 14.6016 19.1738 14.5547C19.1152 14.5312 18.834 14.4492 18.541 14.373C17.8262 14.1797 16.8887 14.1738 16.1387 14.3496C14.3633 14.7715 12.9453 16.1719 12.4707 17.959C12.3184 18.5566 12.3008 19.6348 12.4355 20.2617C12.8398 22.1016 14.2988 23.5898 16.127 24.0234C17.0176 24.2344 18.3066 24.1641 19.0156 23.8711C19.1211 23.8242 19.2266 23.7891 19.2441 23.7891C19.2617 23.7891 19.2734 24.416 19.2734 25.1836C19.2734 26.3496 19.2559 26.5957 19.1797 26.707L19.0918 26.8359H10.4141C2.42188 26.8359 1.72461 26.8301 1.625 26.7363C1.52539 26.6484 1.51953 26.2207 1.51953 15.5977C1.51953 5.40234 1.52539 4.54102 1.61914 4.44141C1.70703 4.3418 1.86523 4.33594 4.28516 4.33594H6.85156V4.8457ZM18.3887 15.123C20.2285 15.6152 21.5059 17.2734 21.5059 19.1895C21.5059 21.5215 19.6426 23.3906 17.3105 23.3906C16.1445 23.3906 15.1895 22.9863 14.3516 22.1484C13.0039 20.8008 12.7168 18.9141 13.6074 17.2031C13.9414 16.5469 14.668 15.8203 15.3184 15.4863C16.3555 14.9531 17.3164 14.8359 18.3887 15.123ZM21.459 22.6641L21.7344 22.9453L21.3945 23.2793L21.0547 23.6133L20.7793 23.332L20.498 23.0508L20.8086 22.7227C20.9785 22.5469 21.1309 22.3945 21.1484 22.3887C21.166 22.3887 21.3066 22.5117 21.459 22.6641ZM24.4824 25.0605L26.3047 26.9238L25.6543 27.5684L25.0039 28.2129L23.1641 26.3379L21.3242 24.4629L21.9512 23.8359C22.2969 23.4844 22.6016 23.2031 22.6191 23.2031C22.6426 23.2031 23.4805 24.041 24.4824 25.0605Z" fill="black"/>
<path d="M6.06055 7.21274C5.91406 7.28306 5.65625 7.54087 5.38086 7.86899L4.93555 8.40806L4.26172 8.57212C3.24219 8.82407 3.21875 8.85923 3.21875 10.4178C3.21875 11.3436 3.23633 11.5428 3.32422 11.7186C3.45898 11.994 3.74609 12.1288 4.19141 12.1288H4.54883L4.6543 12.369C4.80078 12.6913 5.16406 13.0545 5.49219 13.201C5.88477 13.3709 6.50586 13.3651 6.88086 13.1834C7.23828 13.0077 7.57227 12.6678 7.71289 12.3338L7.81836 12.0702H9.9043H11.9961L12.0898 12.3045C12.4883 13.3006 13.8125 13.6405 14.6914 12.9667C14.9199 12.7967 15.2305 12.3338 15.2305 12.1756C15.2305 12.076 15.3066 12.0702 16.2266 12.0702C17.2109 12.0702 17.2285 12.0702 17.3691 11.9237C17.5098 11.7889 17.5156 11.7596 17.5156 10.8866C17.5156 9.89634 17.457 9.67954 17.1289 9.35142C16.7656 8.98813 16.6426 8.9647 14.9609 8.9647H13.4375L12.2422 8.10923C11.5859 7.63462 10.959 7.21274 10.8535 7.17173C10.707 7.10728 10.1973 7.0897 8.48047 7.0897C6.38867 7.0897 6.2832 7.09556 6.06055 7.21274ZM7.70703 8.54868C8.18164 8.9354 8.69141 9.31626 8.84375 9.39829C9.43555 9.72056 9.5293 9.72642 13.0977 9.72642H16.3906L16.5664 9.89634C16.7598 10.0897 16.8125 10.3124 16.8125 10.91V11.3084H16.0508C15.3711 11.3084 15.2832 11.2967 15.2539 11.203C15.0371 10.4647 14.4219 10.0077 13.6484 10.0077C12.9395 10.0077 12.3535 10.3885 12.0898 11.0331L11.9785 11.3084H9.89258H7.80664L7.77148 11.1444C7.72461 10.91 7.4375 10.5116 7.17383 10.3241C6.85742 10.0956 6.57031 10.0077 6.11914 10.0135C5.36328 10.0194 4.79492 10.4706 4.54297 11.2616C4.51953 11.3436 4.44922 11.367 4.24414 11.367H3.98047V10.4002V9.43931L4.20312 9.38071C4.32031 9.34556 4.60742 9.2811 4.83008 9.22837C5.05859 9.17563 5.29883 9.0936 5.36328 9.05259C5.43359 9.00571 5.69727 8.7186 5.94922 8.41392C6.59375 7.63462 6.57031 7.63462 7.70703 8.54868ZM11.1816 8.30259C11.5215 8.54868 11.8672 8.80063 11.9492 8.86509C12.0898 8.97056 12.0781 8.97056 10.8652 8.95298C9.66406 8.9354 9.62891 8.92954 9.3418 8.78306C9.07812 8.64243 8.14062 7.93345 8.14062 7.87485C8.14062 7.86313 8.68555 7.85142 9.34766 7.85142H10.5547L11.1816 8.30259ZM6.66406 10.91C6.76953 10.9745 6.9043 11.1268 6.96875 11.2557C7.44922 12.1874 6.24219 13.0311 5.52148 12.2694C5.18164 11.912 5.1875 11.3905 5.53906 11.0448C5.87305 10.7108 6.25391 10.6639 6.66406 10.91ZM14.0879 10.8924C14.6387 11.203 14.6797 12.0526 14.1582 12.3924C13.7363 12.6678 13.3145 12.6151 12.9863 12.2518C12.6289 11.8534 12.6406 11.3905 13.0215 11.0331C13.3379 10.7284 13.707 10.6815 14.0879 10.8924Z" fill="black"/>
<path d="M2.86719 16.582C2.7207 16.7285 2.71485 17.0039 2.85547 17.127C2.95508 17.2207 3.31836 17.2266 6.89258 17.2266C10.6191 17.2266 10.8242 17.2207 10.9121 17.1211C11.0586 16.9629 11.041 16.6641 10.8828 16.5586C10.7656 16.4766 10.2852 16.4648 6.86914 16.4648C3.06055 16.4648 2.98438 16.4648 2.86719 16.582Z" fill="black"/>
<path d="M2.84961 18.9725C2.70313 19.1307 2.72071 19.4296 2.87891 19.535C2.9961 19.6171 3.47071 19.6288 6.88086 19.6288C11.1816 19.6288 11.0117 19.6464 11.0117 19.2538C11.0117 18.8436 11.2344 18.8671 6.86914 18.8671C3.14258 18.8671 2.9375 18.8729 2.84961 18.9725Z" fill="black"/>
<path d="M2.84961 21.3749C2.72656 21.5097 2.7207 21.7382 2.83203 21.8906C2.91406 21.996 3.03125 22.0019 6.8457 22.0195C10.7187 22.0312 10.7773 22.0312 10.8945 21.914C11.041 21.7675 11.0469 21.4921 10.9062 21.3691C10.8066 21.2753 10.4434 21.2695 6.86914 21.2695C3.14258 21.2695 2.9375 21.2753 2.84961 21.3749Z" fill="black"/>
<path d="M2.98438 23.6543C2.75586 23.7363 2.66797 24.1113 2.84375 24.2812C2.92578 24.3633 3.3711 24.375 6.88086 24.375C10.3906 24.375 10.8359 24.3633 10.918 24.2812C11.0352 24.1699 11.041 23.9062 10.9297 23.7539C10.8477 23.6484 10.7305 23.6426 6.95703 23.6309C4.81836 23.625 3.03125 23.6367 2.98438 23.6543Z" fill="black"/>
<path d="M19.1738 17.2676C19.1152 17.3262 18.5059 18.0117 17.8145 18.7969C16.8945 19.8398 16.543 20.1973 16.4902 20.1562C16.4492 20.127 16.1855 19.8105 15.9043 19.459C15.623 19.1074 15.3418 18.8027 15.2773 18.7852C15.0371 18.7266 14.7617 18.9316 14.7617 19.1836C14.7617 19.3184 16.2148 21.1172 16.373 21.1758C16.4668 21.2109 16.5723 21.2109 16.666 21.1758C16.8242 21.1172 19.7246 17.8594 19.8066 17.6484C19.8418 17.5547 19.8359 17.4551 19.7891 17.3555C19.6895 17.1504 19.3379 17.1035 19.1738 17.2676Z" fill="black"/>
</svg>
