<svg width="169" height="123" viewBox="0 0 169 123" fill="none" xmlns="http://www.w3.org/2000/svg">
<path d="M169.099 123.334H-1V-1.33463H169.099V123.334Z" fill="white"/>
<path d="M148.874 71.1491H59.9781L56.3122 71.6795V73.0408C56.3122 74.6809 57.6496 76.0105 59.2992 76.0105H147.176C148.826 76.0105 150.163 74.6809 150.163 73.0408V71.9523L148.874 71.1491Z" fill="white"/>
<path d="M150.163 71.9525H56.3122V18.7249C56.3122 17.3864 57.4035 16.3014 58.7498 16.3014H147.726C149.072 16.3014 150.163 17.3864 150.163 18.7249V71.9525Z" fill="white"/>
<path d="M56.4217 71.8434H150.053V18.7247C150.053 17.4486 149.009 16.4101 147.725 16.4101H58.7498C57.4658 16.4101 56.4217 17.4486 56.4217 18.7247V71.8434ZM150.163 72.0618H56.3122C56.2514 72.0618 56.2021 72.0127 56.2021 71.9528V18.7247C56.2021 17.3282 57.3452 16.1923 58.7498 16.1923H147.725C149.13 16.1923 150.273 17.3282 150.273 18.7247V71.9528C150.273 72.0127 150.223 72.0618 150.163 72.0618Z" fill="black"/>
<path d="M59.6275 68.6569H146.848V19.7306C146.848 19.6573 146.788 19.5973 146.714 19.5973H59.7615C59.6877 19.5973 59.6275 19.6573 59.6275 19.7306V68.6569ZM146.957 68.8748H59.5174C59.4571 68.8748 59.4078 68.8262 59.4078 68.7658V19.7306C59.4078 19.5369 59.5667 19.379 59.7615 19.379H146.714C146.909 19.379 147.067 19.5369 147.067 19.7306V68.7658C147.067 68.8262 147.018 68.8748 146.957 68.8748Z" fill="black"/>
<path d="M147.176 76.1196H59.2992C57.5918 76.1196 56.2021 74.7385 56.2021 73.041C56.2021 72.9811 56.2514 72.932 56.3122 72.932C56.3724 72.932 56.4217 72.9811 56.4217 73.041C56.4217 74.6182 57.7123 75.9017 59.2992 75.9017H147.176C148.763 75.9017 150.053 74.6182 150.053 73.041C150.053 72.9811 150.102 72.932 150.163 72.932C150.223 72.932 150.273 72.9811 150.273 73.041C150.273 74.7385 148.884 76.1196 147.176 76.1196Z" fill="black"/>
<path d="M142.852 31.4495H63.6227V23.4109H142.852V31.4495Z" fill="white"/>
<path d="M63.7328 31.3406H142.743V23.5204H63.7328V31.3406ZM142.852 31.5585H63.6227C63.5624 31.5585 63.5131 31.5099 63.5131 31.4495V23.4109C63.5131 23.351 63.5624 23.302 63.6227 23.302H142.852C142.913 23.302 142.962 23.351 142.962 23.4109V31.4495C142.962 31.5099 142.913 31.5585 142.852 31.5585Z" fill="black"/>
<path d="M142.852 55.5865H63.6227V33.6521H142.852V55.5865Z" fill="white"/>
<path d="M63.7328 55.4775H142.743V33.761H63.7328V55.4775ZM142.852 55.6954H63.6227C63.5624 55.6954 63.5131 55.6464 63.5131 55.5865V33.6521C63.5131 33.5917 63.5624 33.5426 63.6227 33.5426H142.852C142.913 33.5426 142.962 33.5917 142.962 33.6521V55.5865C142.962 55.6464 142.913 55.6954 142.852 55.6954Z" fill="black"/>
<path d="M132.111 44.6891V36.2891C127.474 36.2891 123.715 40.0501 123.715 44.6891C123.715 49.3282 127.474 53.0892 132.111 53.0892C136.748 53.0892 140.508 49.3282 140.508 44.6891C140.508 43.2867 140.164 41.965 139.557 40.8033L132.111 44.6891Z" fill="white"/>
<path d="M139.557 40.8033L132.111 36.2891C127.474 36.2891 123.715 40.0501 123.715 44.6891C123.715 49.3282 127.474 53.0892 132.111 53.0892C136.748 53.0892 140.508 49.3282 140.508 44.6891C140.508 43.2867 140.164 41.9655 139.557 40.8033Z" fill="white"/>
<path d="M132.08 36.3986C127.525 36.4154 123.824 40.1279 123.824 44.6892C123.824 49.2609 127.542 52.9799 132.111 52.9799C136.681 52.9799 140.399 49.2609 140.399 44.6892C140.399 43.3655 140.079 42.0493 139.473 40.8801L132.08 36.3986ZM132.111 53.1982C127.421 53.1982 123.605 49.3812 123.605 44.6892C123.605 39.9972 127.421 36.1802 132.111 36.1802C132.132 36.1802 132.151 36.1856 132.169 36.1965L139.614 40.7103C139.631 40.7202 139.645 40.735 139.654 40.7529C140.284 41.9592 140.618 43.3205 140.618 44.6892C140.618 49.3812 136.802 53.1982 132.111 53.1982Z" fill="black"/>
<path d="M139.557 40.8033C138.155 38.1203 135.347 36.289 132.111 36.289V44.6891L139.557 40.8033Z" fill="#33AAFF" stroke="#33AAFF" stroke-width="0.2"/>
<path d="M136.144 44.6891C136.144 46.9036 134.339 48.6987 132.111 48.6987C129.884 48.6987 128.078 46.9036 128.078 44.6891C128.078 42.4746 129.884 40.6795 132.111 40.6795C134.339 40.6795 136.144 42.4746 136.144 44.6891Z" fill="white"/>
<path d="M132.111 48.8077C129.827 48.8077 127.969 46.9601 127.969 44.6892C127.969 42.4182 129.827 40.5706 132.111 40.5706C132.172 40.5706 132.221 40.6196 132.221 40.6795C132.221 40.7399 132.172 40.789 132.111 40.789C129.948 40.789 128.188 42.5385 128.188 44.6892C128.188 46.8398 129.948 48.5894 132.111 48.5894C134.274 48.5894 136.035 46.8398 136.035 44.6892C136.035 44.0399 135.871 43.3972 135.561 42.8302C135.532 42.7772 135.552 42.7108 135.605 42.6821C135.658 42.6534 135.725 42.6732 135.754 42.7257C136.081 43.3249 136.254 44.0038 136.254 44.6892C136.254 46.9601 134.396 48.8077 132.111 48.8077Z" fill="black"/>
<path d="M96.0487 55.6954C95.9879 55.6954 95.9386 55.6464 95.9386 55.5865V33.6521C95.9386 33.5917 95.9879 33.5426 96.0487 33.5426C96.1089 33.5426 96.1582 33.5917 96.1582 33.6521V55.5865C96.1582 55.6464 96.1089 55.6954 96.0487 55.6954Z" fill="black"/>
<path d="M93.1856 38.11H66.4793C66.4185 38.11 66.3697 38.061 66.3697 38.001C66.3697 37.9406 66.4185 37.8921 66.4793 37.8921H93.1856C93.2464 37.8921 93.2952 37.9406 93.2952 38.001C93.2952 38.061 93.2464 38.11 93.1856 38.11Z" fill="black"/>
<path d="M118.524 38.11H98.7095C98.6487 38.11 98.5999 38.061 98.5999 38.001C98.5999 37.9406 98.6487 37.8921 98.7095 37.8921H118.524C118.584 37.8921 118.634 37.9406 118.634 38.001C118.634 38.061 118.584 38.11 118.524 38.11Z" fill="black"/>
<path d="M93.1856 42.3207H66.4793C66.4185 42.3207 66.3697 42.2722 66.3697 42.2117C66.3697 42.1513 66.4185 42.1028 66.4793 42.1028H93.1856C93.2464 42.1028 93.2952 42.1513 93.2952 42.2117C93.2952 42.2722 93.2464 42.3207 93.1856 42.3207Z" fill="black"/>
<path d="M118.524 42.3207H98.7095C98.6487 42.3207 98.5999 42.2722 98.5999 42.2117C98.5999 42.1513 98.6487 42.1028 98.7095 42.1028H118.524C118.584 42.1028 118.634 42.1513 118.634 42.2117C118.634 42.2722 118.584 42.3207 118.524 42.3207Z" fill="black"/>
<path d="M93.1856 46.5314H66.4793C66.4185 46.5314 66.3697 46.4828 66.3697 46.4224C66.3697 46.3625 66.4185 46.3135 66.4793 46.3135H93.1856C93.2464 46.3135 93.2952 46.3625 93.2952 46.4224C93.2952 46.4828 93.2464 46.5314 93.1856 46.5314Z" fill="black"/>
<path d="M118.524 46.5314H98.7095C98.6487 46.5314 98.5999 46.4828 98.5999 46.4224C98.5999 46.3625 98.6487 46.3135 98.7095 46.3135H118.524C118.584 46.3135 118.634 46.3625 118.634 46.4224C118.634 46.4828 118.584 46.5314 118.524 46.5314Z" fill="black"/>
<path d="M52.8624 24.5588C51.0852 23.403 48.3242 23.8179 47.2977 25.6665C46.2961 24.3488 44.3846 23.8026 42.8324 24.3899C41.2801 24.9777 40.2183 26.65 40.3522 28.296C40.4259 29.2017 40.7635 30.2808 40.0937 30.8988C39.4256 31.5153 38.2149 31.1484 37.5555 31.7743C37.0444 32.2591 37.1291 33.0866 37.3245 33.7616C38.2619 36.9997 41.0875 39.7263 44.4465 40.1744C47.0152 40.5176 49.7642 39.3652 51.3123 37.2978C52.8828 35.2011 54.7945 32.7816 55.1407 30.1228C55.4131 28.0286 54.6396 25.715 52.8624 24.5588Z" fill="black"/>
<path d="M40.4969 47.8901L43.6649 37.8296L49.7911 39.3415L47.7753 47.3801L40.4969 47.8901Z" fill="white"/>
<path d="M43.7388 37.9603L40.6497 47.7702L47.6881 47.277L49.6581 39.4212L43.7388 37.9603ZM40.4969 47.999C40.4635 47.999 40.4318 47.9842 40.4109 47.9579C40.3884 47.9297 40.3814 47.8921 40.3923 47.8574L43.5603 37.7969C43.5775 37.7419 43.6347 37.7097 43.6914 37.7236L49.8175 39.2355C49.8459 39.2429 49.8698 39.2607 49.8852 39.2855C49.9002 39.3102 49.9047 39.3399 49.8977 39.3682L47.8819 47.4063C47.8705 47.4523 47.8306 47.4855 47.7833 47.489L40.5046 47.999C40.502 47.999 40.4995 47.999 40.4969 47.999Z" fill="black"/>
<path d="M44.177 35.1907C44.085 34.5708 43.9927 33.9423 44.0641 33.3199C44.1354 32.6969 44.3907 32.0705 44.8819 31.6778C45.5816 31.1182 46.5967 31.1489 47.4531 31.4168C48.3098 31.6842 49.0923 32.1542 49.953 32.4072C50.8142 32.6603 51.8368 32.6548 52.5067 32.0601C52.4803 33.5095 52.4539 34.959 52.4275 36.4089C52.4026 37.8014 52.3174 39.3425 51.3302 40.3309C50.4521 41.2104 49.0654 41.3966 47.8376 41.1807C46.0612 40.8682 44.4342 39.7921 43.4574 38.2843C42.7425 38.3774 41.9843 38.2491 41.3881 37.846C40.7918 37.4429 40.3817 36.7477 40.4063 36.0311C40.4309 35.315 40.9342 34.6168 41.633 34.4395C42.1127 34.3182 42.6059 34.4806 42.9709 34.7961C43.5019 35.2556 43.404 35.4374 44.177 35.1907Z" fill="white"/>
<path d="M43.4573 38.1752C43.4943 38.1752 43.5292 38.1935 43.5496 38.2252C44.5063 39.7024 46.1165 40.7671 47.857 41.0731C49.2292 41.3147 50.4994 41.0087 51.2525 40.254C52.1884 39.3166 52.292 37.8394 52.3179 36.4068L52.3926 32.2867C51.7775 32.7057 50.8744 32.7918 49.9221 32.5121C49.4698 32.3788 49.035 32.1852 48.6146 31.998C48.2276 31.8262 47.8276 31.6479 47.4202 31.5207C46.9519 31.3741 45.7734 31.1047 44.9507 31.7623C44.5262 32.1015 44.2501 32.6591 44.173 33.3321C44.1028 33.9447 44.1957 34.5701 44.2856 35.1748C44.2934 35.2277 44.2617 35.2783 44.2106 35.2946C43.5675 35.4996 43.4547 35.4233 43.1625 35.1282C43.0909 35.0559 43.0097 34.9742 42.8989 34.8781C42.5366 34.5652 42.0732 34.4404 41.6601 34.5454C41.0315 34.7043 40.5396 35.3446 40.5159 36.0349C40.4937 36.6816 40.8603 37.3571 41.4497 37.7557C41.9857 38.1182 42.7121 38.2712 43.4431 38.1757C43.4478 38.1752 43.4526 38.1752 43.4573 38.1752ZM48.7615 41.3722C48.4552 41.3722 48.1394 41.3445 47.8186 41.288C46.0418 40.9755 44.3963 39.898 43.4027 38.4005C42.6336 38.4862 41.8978 38.3227 41.3263 37.936C40.6761 37.4963 40.272 36.747 40.2967 36.0275C40.3236 35.2441 40.8865 34.5161 41.6059 34.3339C42.0892 34.2111 42.6263 34.3537 43.0429 34.7137C43.1601 34.8152 43.2481 34.9039 43.3188 34.9757C43.5491 35.2079 43.5956 35.255 44.0548 35.1148C43.9676 34.525 43.8853 33.9169 43.9551 33.3073C44.0387 32.5769 44.3435 31.9678 44.8131 31.5925C45.4505 31.0829 46.4247 30.9809 47.4859 31.3127C47.9058 31.4439 48.3117 31.6247 48.7042 31.799C49.1182 31.9832 49.546 32.1738 49.9843 32.3026C50.9646 32.5908 51.8801 32.47 52.4335 31.9787C52.4664 31.95 52.5127 31.9431 52.552 31.9609C52.5919 31.9792 52.6168 32.0188 52.6163 32.0619L52.5376 36.4108C52.5107 37.8875 52.4016 39.4127 51.4084 40.4075C50.7828 41.034 49.8324 41.3722 48.7615 41.3722Z" fill="black"/>
<path d="M43.3381 37.3157C43.2994 37.3157 43.2619 37.2954 43.242 37.2592C42.9676 36.7655 42.506 36.3669 41.9755 36.1658C41.919 36.1445 41.8906 36.0811 41.9121 36.0252C41.9338 35.9687 41.997 35.9405 42.0538 35.9618C42.6318 36.1812 43.1349 36.6155 43.434 37.1537C43.4633 37.2067 43.4441 37.2731 43.391 37.3023C43.3742 37.3112 43.356 37.3157 43.3381 37.3157Z" fill="black"/>
<path d="M73.5587 60.2092C72.7617 59.3351 71.3387 57.082 69.814 54.5015C65.8422 47.7782 58.1621 44.1265 50.4008 45.2492C43.8246 46.2005 36.2563 47.3934 31.3607 48.4779C26.0412 49.656 21.5676 53.2036 19.214 58.0902C16.6268 63.4612 13.6901 70.7911 13.6026 76.533C13.4453 86.849 22.4432 89.7677 29.7963 85.098C37.1493 80.4282 49.1899 73.0225 49.1899 73.0225L62.6932 71.3982L68.0005 63.5889L76.3794 70.5242C78.7463 70.079 78.9376 56.3907 78.9376 56.3907C78.9376 56.3907 74.4627 61.2011 73.5587 60.2092Z" fill="#33AAFF"/>
<path d="M29.5414 68.5984C29.5319 68.5984 29.5223 68.5974 29.5127 68.5949C29.4542 68.5791 29.4196 68.5192 29.4354 68.4612C30.0111 66.3432 30.8265 64.2862 31.8592 62.347C31.8876 62.294 31.954 62.2737 32.0075 62.3019C32.0611 62.3301 32.0815 62.396 32.0531 62.4495C31.028 64.3738 30.2185 66.4155 29.6472 68.5177C29.634 68.5667 29.5898 68.5984 29.5414 68.5984Z" fill="white"/>
<path d="M21.5554 73.4861C21.5196 73.4861 21.4845 73.4688 21.4635 73.4371C21.4302 73.3866 21.4446 73.3187 21.4953 73.286C26.8747 69.7944 32.5919 66.738 38.4881 64.2026C38.5443 64.1783 38.6084 64.204 38.6324 64.2595C38.6564 64.3145 38.6309 64.3789 38.5754 64.4026C32.6905 66.9336 26.9843 69.9835 21.6153 73.4688C21.5967 73.4806 21.5759 73.4861 21.5554 73.4861Z" fill="white"/>
<path d="M63.8687 69.7974C63.8687 69.7974 58.6138 61.5335 55.6034 60.4366C52.0086 59.1263 39.5805 63.9124 39.5805 63.9124C39.5805 63.9124 39.747 68.3757 44.9651 74.0234C44.9651 74.0234 64.0461 71.7371 63.8687 69.7974Z" fill="white"/>
<path d="M60.3213 70.6332C60.2805 70.6332 60.2406 70.6104 60.2222 70.5708C59.2863 68.5964 57.8996 66.8152 56.212 65.4192C56.1657 65.3811 56.1592 65.3122 56.1981 65.2657C56.2369 65.2196 56.3062 65.2132 56.3525 65.2518C58.0644 66.6676 59.4711 68.4751 60.4204 70.4777C60.4463 70.5322 60.4229 70.5975 60.3681 70.6228C60.3532 70.6302 60.3373 70.6332 60.3213 70.6332Z" fill="black"/>
<path d="M56.3122 71.6206C56.2688 71.6206 56.2275 71.5949 56.21 71.5523C55.5262 69.8661 54.4961 68.281 53.2319 66.9677C53.1901 66.9241 53.1916 66.8553 53.2354 66.8137C53.2788 66.7721 53.3485 66.7736 53.3903 66.8172C54.6739 68.1502 55.7194 69.7591 56.4138 71.4706C56.4362 71.5265 56.4093 71.5899 56.353 71.6127C56.3395 71.6181 56.3256 71.6206 56.3122 71.6206Z" fill="black"/>
<path d="M46.5775 45.7309L45.7854 44.0458L40.1415 43.6397L39.1053 46.9575L45.6801 50.7745L46.5345 47.89L49.4479 50.835L50.6847 45.8483L49.4076 44.0458H47.2374L46.5775 45.7309Z" fill="#33AAFF"/>
<path d="M49.4479 50.944C49.4185 50.944 49.3901 50.9326 49.3697 50.9113L46.5871 48.0985L45.7853 50.8053C45.7758 50.8375 45.7519 50.8633 45.7206 50.8756C45.6893 50.888 45.6539 50.8855 45.6248 50.8687L39.05 47.0517C38.9976 47.0215 38.9801 46.9546 39.0105 46.9026C39.0411 46.8506 39.1082 46.8333 39.1605 46.8635L45.6145 50.6102L46.4293 47.8594C46.4402 47.8222 46.4702 47.794 46.5078 47.7841C46.5457 47.7747 46.5854 47.7861 46.6127 47.8138L49.3881 50.6191L50.5786 45.8221C50.593 45.7637 50.6528 45.728 50.7111 45.7424C50.7699 45.7567 50.8057 45.8162 50.7913 45.8746L49.554 50.8608C49.5445 50.8994 49.5152 50.9296 49.4768 50.94C49.4668 50.9425 49.4574 50.944 49.4479 50.944Z" fill="white"/>
<path d="M83.1186 74.5066H44.8885V73.3617C44.8885 72.3549 45.7095 71.5389 46.7224 71.5389H85.8069L85.4931 72.6976C85.2037 73.7648 84.2304 74.5066 83.1186 74.5066Z" fill="black"/>
<path d="M84.2089 73.1631H61.1442C60.1589 73.1631 59.4357 72.244 59.6728 71.2932L64.0316 53.8102C64.1995 53.1377 64.8067 52.6658 65.5035 52.6658H88.5683C89.553 52.6658 90.2767 53.5848 90.0397 54.5356L85.6803 72.0187C85.513 72.6907 84.9058 73.1631 84.2089 73.1631Z" fill="black"/>
<path d="M77.141 59.412C77.141 59.83 76.7998 60.1692 76.3794 60.1692C75.9585 60.1692 75.6178 59.83 75.6178 59.412C75.6178 58.9936 75.9585 58.6549 76.3794 58.6549C76.7998 58.6549 77.141 58.9936 77.141 59.412Z" fill="#33AAFF"/>
<path d="M142.852 106.814H96.0487V58.1887H142.852V106.814Z" fill="#E2EAFF"/>
<path d="M98.3519 104.524H140.548V60.4787H98.3519V104.524ZM140.659 104.742H98.2423C98.1815 104.742 98.1327 104.693 98.1327 104.633V60.3697C98.1327 60.3098 98.1815 60.2608 98.2423 60.2608H140.659C140.719 60.2608 140.768 60.3098 140.768 60.3697V104.633C140.768 104.693 140.719 104.742 140.659 104.742Z" fill="white"/>
<path d="M140.508 94.334C140.48 94.334 140.452 94.3236 140.43 94.3023L127.43 81.3771C127.409 81.3568 127.398 81.329 127.398 81.3003V60.3697C127.398 60.3097 127.447 60.2607 127.507 60.2607C127.568 60.2607 127.617 60.3097 127.617 60.3697V81.2547L140.585 94.1478C140.628 94.1904 140.628 94.2597 140.585 94.3023C140.564 94.3236 140.536 94.334 140.508 94.334Z" fill="white"/>
<path d="M112.253 104.754C112.225 104.754 112.196 104.743 112.175 104.722C112.132 104.679 112.132 104.61 112.175 104.568L119.341 97.4438V69.4199H98.2423C98.1815 69.4199 98.1327 69.3713 98.1327 69.3109C98.1327 69.2505 98.1815 69.202 98.2423 69.202H119.45C119.511 69.202 119.56 69.2505 119.56 69.3109V97.4888C119.56 97.5175 119.548 97.5453 119.528 97.5661L112.33 104.722C112.309 104.743 112.281 104.754 112.253 104.754Z" fill="white"/>
<path d="M135.944 74.2417H111.224C111.163 74.2417 111.114 74.1927 111.114 74.1328V60.3696C111.114 60.3097 111.163 60.2607 111.224 60.2607C111.284 60.2607 111.334 60.3097 111.334 60.3696V74.0233H135.898L140.489 69.459C140.531 69.4165 140.601 69.4165 140.644 69.459C140.687 69.5016 140.687 69.571 140.644 69.6136L136.021 74.2095C136 74.2298 135.972 74.2417 135.944 74.2417Z" fill="white"/>
<path d="M125.993 104.906C125.841 104.906 125.719 104.784 125.719 104.633V90.6031L119.256 84.1784C119.205 84.1274 119.176 84.0581 119.176 83.9858V69.5834H106.384C106.311 69.5834 106.242 69.5551 106.19 69.5036L98.4739 61.832C98.3668 61.726 98.3668 61.5532 98.4739 61.4467C98.581 61.3402 98.7543 61.3402 98.8614 61.4467L106.498 69.0381H119.45C119.602 69.0381 119.725 69.1605 119.725 69.311V83.8729L126.186 90.2971C126.238 90.3486 126.267 90.4179 126.267 90.4902V104.633C126.267 104.784 126.144 104.906 125.993 104.906Z" fill="#33AAFF"/>
<path d="M75.7852 80.2307H92.0514V79.2002C92.0514 78.5267 91.5021 77.981 90.8251 77.981H77.0115C76.3346 77.981 75.7852 78.5267 75.7852 79.2002V80.2307Z" fill="white"/>
<path d="M75.8953 80.1217H91.9414V79.2001C91.9414 78.5881 91.4408 78.0899 90.8252 78.0899H77.0115C76.3959 78.0899 75.8953 78.5881 75.8953 79.2001V80.1217ZM92.0515 80.3396H75.7852C75.7249 80.3396 75.6756 80.2911 75.6756 80.2307V79.2001C75.6756 78.4677 76.2748 77.872 77.0115 77.872H90.8252C91.5618 77.872 92.161 78.4677 92.161 79.2001V80.2307C92.161 80.2911 92.1117 80.3396 92.0515 80.3396Z" fill="black"/>
<path d="M109.827 97.8474H59.2564C57.6301 97.8474 56.3122 96.5371 56.3122 94.9208V83.1216C56.3122 80.7937 58.2104 78.9065 60.5525 78.9065H107.394C109.58 78.9065 111.408 80.5585 111.615 82.7215L112.758 94.643C112.923 96.3613 111.563 97.8474 109.827 97.8474Z" fill="white"/>
<path d="M60.5524 79.0154C58.2747 79.0154 56.4217 80.8575 56.4217 83.1216V94.9207C56.4217 96.4742 57.6934 97.7384 59.2564 97.7384H109.827C110.624 97.7384 111.388 97.4022 111.924 96.8159C112.46 96.23 112.724 95.4417 112.649 94.6533L111.506 82.7319C111.303 80.6129 109.535 79.0154 107.394 79.0154H60.5524ZM109.827 97.9563H59.2564C57.5723 97.9563 56.2021 96.5945 56.2021 94.9207V83.1216C56.2021 80.7372 58.1536 78.797 60.5524 78.797H107.394C109.649 78.797 111.511 80.4797 111.725 82.7115L112.867 94.6325C112.949 95.4823 112.664 96.3315 112.086 96.9629C111.509 97.5943 110.685 97.9563 109.827 97.9563Z" fill="black"/>
<path d="M96.0925 89.375H64.2349C64.1741 89.375 64.1253 89.326 64.1253 89.2661C64.1253 89.2056 64.1741 89.1571 64.2349 89.1571H96.0925C96.1533 89.1571 96.2026 89.2056 96.2026 89.2661C96.2026 89.326 96.1533 89.375 96.0925 89.375Z" fill="black"/>
<path d="M93.7669 92.843H70.0496C69.9889 92.843 69.9396 92.7945 69.9396 92.7341C69.9396 92.6737 69.9889 92.6251 70.0496 92.6251H93.7669C93.8277 92.6251 93.8765 92.6737 93.8765 92.7341C93.8765 92.7945 93.8277 92.843 93.7669 92.843Z" fill="black"/>
<path d="M110.449 92.323H111.771L110.857 82.7934C110.686 81.0091 109.197 79.6632 107.394 79.6632H60.5524C58.6313 79.6632 57.0737 81.2117 57.0737 83.1217V85.5204H95.7911C98.3648 85.5204 100.828 86.5603 102.615 88.4015L103.625 89.4419C105.412 91.2831 107.875 92.323 110.449 92.323Z" fill="#33AAFF"/>
<path d="M109.968 93.7441H102.8C102.739 93.7441 102.69 93.6951 102.69 93.6347V80.2306C102.69 80.1707 102.739 80.1217 102.8 80.1217C102.861 80.1217 102.909 80.1707 102.909 80.2306V93.5258H109.968C110.029 93.5258 110.078 93.5748 110.078 93.6347C110.078 93.6951 110.029 93.7441 109.968 93.7441Z" fill="black"/>
<path d="M93.9646 85.4431C93.9039 85.4431 93.8551 85.3946 93.8551 85.3342V79.9504C93.8551 79.8904 93.9039 79.8414 93.9646 79.8414C94.0254 79.8414 94.0742 79.8904 94.0742 79.9504V85.3342C94.0742 85.3946 94.0254 85.4431 93.9646 85.4431Z" fill="black"/>
<path d="M85.0104 85.4431C84.9496 85.4431 84.9008 85.3946 84.9008 85.3342V79.9504C84.9008 79.8904 84.9496 79.8414 85.0104 79.8414C85.0712 79.8414 85.12 79.8904 85.12 79.9504V85.3342C85.12 85.3946 85.0712 85.4431 85.0104 85.4431Z" fill="black"/>
<path d="M76.1139 85.4431C76.0536 85.4431 76.0043 85.3946 76.0043 85.3342V79.9504C76.0043 79.8904 76.0536 79.8414 76.1139 79.8414C76.1747 79.8414 76.224 79.8904 76.224 79.9504V85.3342C76.224 85.3946 76.1747 85.4431 76.1139 85.4431Z" fill="black"/>
<path d="M66.811 85.4431C66.7503 85.4431 66.7014 85.3946 66.7014 85.3342V79.9504C66.7014 79.8904 66.7503 79.8414 66.811 79.8414C66.8718 79.8414 66.9206 79.8904 66.9206 79.9504V85.3342C66.9206 85.3946 66.8718 85.4431 66.811 85.4431Z" fill="black"/>
<path d="M114.513 87.6086C114.452 87.6086 114.403 87.5601 114.403 87.4997V84.7305C114.403 84.3195 114.067 83.9858 113.654 83.9858H109.968C109.908 83.9858 109.859 83.9367 109.859 83.8763C109.859 83.8164 109.908 83.7674 109.968 83.7674H113.654C114.188 83.7674 114.623 84.1997 114.623 84.7305V87.4997C114.623 87.5601 114.574 87.6086 114.513 87.6086Z" fill="black"/>
<path d="M113.432 89.2661V85.6883C113.871 85.6883 114.227 86.0424 114.227 86.4791V88.4753C114.227 88.912 113.871 89.2661 113.432 89.2661Z" fill="white"/>
<path d="M113.541 85.8061V89.1482C113.867 89.0957 114.118 88.8139 114.118 88.4752V86.4791C114.118 86.1404 113.867 85.8581 113.541 85.8061ZM113.432 89.375C113.371 89.375 113.322 89.326 113.322 89.2661V85.6882C113.322 85.6278 113.371 85.5793 113.432 85.5793C113.931 85.5793 114.337 85.9829 114.337 86.4791V88.4752C114.337 88.9714 113.931 89.375 113.432 89.375Z" fill="black"/>
<path d="M67.073 97.9054C67.073 99.4633 65.8024 100.727 64.2348 100.727C62.6673 100.727 61.3967 99.4633 61.3967 97.9054C61.3967 96.347 62.6673 95.0838 64.2348 95.0838C65.8024 95.0838 67.073 96.347 67.073 97.9054Z" fill="white"/>
<path d="M64.2349 95.1931C62.7306 95.1931 61.5063 96.4098 61.5063 97.9053C61.5063 99.4009 62.7306 100.618 64.2349 100.618C65.7391 100.618 66.9634 99.4009 66.9634 97.9053C66.9634 96.4098 65.7391 95.1931 64.2349 95.1931ZM64.2349 100.835C62.6096 100.835 61.2871 99.5207 61.2871 97.9053C61.2871 96.2895 62.6096 94.9748 64.2349 94.9748C65.8606 94.9748 67.1826 96.2895 67.1826 97.9053C67.1826 99.5207 65.8606 100.835 64.2349 100.835Z" fill="black"/>
<path d="M65.3775 97.9053C65.3775 98.5322 64.8659 99.0408 64.2349 99.0408C63.6038 99.0408 63.0922 98.5322 63.0922 97.9053C63.0922 97.2779 63.6038 96.7693 64.2349 96.7693C64.8659 96.7693 65.3775 97.2779 65.3775 97.9053Z" fill="#33AAFF"/>
<path d="M106.781 97.9054C106.781 99.4633 105.51 100.727 103.942 100.727C102.375 100.727 101.104 99.4633 101.104 97.9054C101.104 96.347 102.375 95.0838 103.942 95.0838C105.51 95.0838 106.781 96.347 106.781 97.9054Z" fill="white"/>
<path d="M103.942 95.1931C102.438 95.1931 101.214 96.4098 101.214 97.9053C101.214 99.4009 102.438 100.618 103.942 100.618C105.447 100.618 106.671 99.4009 106.671 97.9053C106.671 96.4098 105.447 95.1931 103.942 95.1931ZM103.942 100.835C102.317 100.835 100.994 99.5207 100.994 97.9053C100.994 96.2895 102.317 94.9748 103.942 94.9748C105.568 94.9748 106.89 96.2895 106.89 97.9053C106.89 99.5207 105.568 100.835 103.942 100.835Z" fill="black"/>
<path d="M105.085 97.9053C105.085 98.5322 104.573 99.0408 103.942 99.0408C103.311 99.0408 102.8 98.5322 102.8 97.9053C102.8 97.2779 103.311 96.7693 103.942 96.7693C104.573 96.7693 105.085 97.2779 105.085 97.9053Z" fill="#33AAFF"/>
<path d="M72.7338 102.576H30.0794C29.2119 102.576 28.4238 102.074 28.0622 101.289C27.2826 99.5998 27.2585 97.6611 27.9958 95.9531L28.1975 95.4856C28.4845 94.8206 29.0811 94.3378 29.7941 94.1932L29.9274 94.1664C30.7149 94.007 31.4734 93.7292 32.1767 93.3419L36.2402 91.1066C38.9147 89.6353 41.9212 88.8633 44.9778 88.8633H49.1002C52.0659 88.8633 54.9837 89.6027 57.5878 91.014L59.8556 92.2431C60.8219 92.7665 61.8699 93.1235 62.9557 93.2988L65.8656 93.7683C68.5678 94.2046 71.2221 94.8954 73.7923 95.8323L73.8401 95.8496C74.8214 96.2067 75.4186 97.1961 75.2746 98.2251L74.9319 100.674C74.7795 101.764 73.8416 102.576 72.7338 102.576Z" fill="white"/>
<path d="M59.5418 93.3828H40.4643C39.1335 93.3828 37.8082 93.1793 36.5218 92.7772L35.5496 92.4736L37.6871 91.3773C40.2335 90.0709 42.9811 89.3969 45.7585 89.3969H48.3182C52.046 89.3969 55.701 90.6107 58.8788 92.9044L59.5418 93.3828Z" fill="#33AAFF"/>
<path d="M55.1616 93.5466H57.0538C57.3771 93.5466 57.6391 93.2862 57.6391 92.9648V92.6622C57.6391 92.3413 57.3771 92.0803 57.0538 92.0803H55.1616C54.8383 92.0803 54.5763 92.3413 54.5763 92.6622V92.9648C54.5763 93.2862 54.8383 93.5466 55.1616 93.5466Z" fill="white"/>
<path d="M44.9778 88.9725C41.9476 88.9725 38.9446 89.7435 36.2933 91.2023L32.2298 93.4377C31.5161 93.8304 30.7487 94.1116 29.9492 94.2736L29.816 94.3003C29.1383 94.4375 28.571 94.897 28.2983 95.5284L28.0966 95.9964C27.373 97.6731 27.3967 99.5856 28.1619 101.244C28.5046 101.987 29.2573 102.467 30.0794 102.467H72.7338C73.7808 102.467 74.6794 101.69 74.8234 100.659L75.166 98.2104C75.3015 97.2393 74.7282 96.2895 73.8023 95.9518L73.7544 95.9345C71.1967 95.0025 68.5369 94.3102 65.8482 93.8759L62.9383 93.4065C61.8375 93.2287 60.7826 92.8697 59.8033 92.3388L57.535 91.1097C54.9553 89.7118 52.0385 88.9725 49.1002 88.9725H44.9778ZM72.7338 102.686H30.0794C29.1719 102.686 28.3408 102.155 27.9624 101.335C27.1716 99.6208 27.1469 97.6434 27.8951 95.9102L28.0967 95.4427C28.3978 94.745 29.0242 94.2384 29.7723 94.0869L29.9055 94.0596C30.6831 93.9022 31.4294 93.6288 32.1235 93.247L36.187 91.0112C38.8708 89.535 41.9105 88.7546 44.9778 88.7546H49.1002C52.0749 88.7546 55.0281 89.5028 57.6401 90.9181L59.9084 92.1472C60.8657 92.6662 61.8973 93.0173 62.9732 93.1911L65.8835 93.661C68.5857 94.0968 71.2595 94.793 73.8302 95.73L73.878 95.7473C74.9001 96.1197 75.5331 97.168 75.3832 98.2401L75.0405 100.689C74.8816 101.827 73.8899 102.686 72.7338 102.686Z" fill="black"/>
<path d="M41.7926 100.699C41.7926 103.192 39.7604 105.212 37.2536 105.212C34.7467 105.212 32.7145 103.192 32.7145 100.699C32.7145 98.2071 34.7467 96.1866 37.2536 96.1866C39.7604 96.1866 41.7926 98.2071 41.7926 100.699Z" fill="#33AAFF"/>
<path d="M40.2632 100.699C40.2632 102.352 38.9157 103.691 37.2535 103.691C35.5914 103.691 34.2439 102.352 34.2439 100.699C34.2439 99.0467 35.5914 97.7072 37.2535 97.7072C38.9157 97.7072 40.2632 99.0467 40.2632 100.699Z" fill="white"/>
<path d="M38.4237 100.699C38.4237 101.342 37.8998 101.863 37.2536 101.863C36.6073 101.863 36.0834 101.342 36.0834 100.699C36.0834 100.057 36.6073 99.5361 37.2536 99.5361C37.8998 99.5361 38.4237 100.057 38.4237 100.699Z" fill="white"/>
<path d="M37.2536 99.645C36.6689 99.645 36.193 100.118 36.193 100.699C36.193 101.281 36.6689 101.754 37.2536 101.754C37.8384 101.754 38.3141 101.281 38.3141 100.699C38.3141 100.118 37.8384 99.645 37.2536 99.645ZM37.2536 101.971C36.5478 101.971 35.9737 101.401 35.9737 100.699C35.9737 99.9976 36.5478 99.4266 37.2536 99.4266C37.9593 99.4266 38.5335 99.9976 38.5335 100.699C38.5335 101.401 37.9593 101.971 37.2536 101.971Z" fill="black"/>
<path d="M70.7375 100.699C70.7375 103.192 68.7053 105.212 66.1984 105.212C63.6919 105.212 61.6597 103.192 61.6597 100.699C61.6597 98.2071 63.6919 96.1866 66.1984 96.1866C68.7053 96.1866 70.7375 98.2071 70.7375 100.699Z" fill="#33AAFF"/>
<path d="M69.2083 100.699C69.2083 102.352 67.861 103.691 66.1984 103.691C64.5362 103.691 63.1889 102.352 63.1889 100.699C63.1889 99.0467 64.5362 97.7072 66.1984 97.7072C67.861 97.7072 69.2083 99.0467 69.2083 100.699Z" fill="white"/>
<path d="M67.3689 100.699C67.3689 101.342 66.8449 101.863 66.1983 101.863C65.5523 101.863 65.0283 101.342 65.0283 100.699C65.0283 100.057 65.5523 99.5361 66.1983 99.5361C66.8449 99.5361 67.3689 100.057 67.3689 100.699Z" fill="white"/>
<path d="M66.1984 99.645C65.6136 99.645 65.1379 100.118 65.1379 100.699C65.1379 101.281 65.6136 101.754 66.1984 101.754C66.7831 101.754 67.2588 101.281 67.2588 100.699C67.2588 100.118 66.7831 99.645 66.1984 99.645ZM66.1984 101.971C65.4931 101.971 64.9188 101.401 64.9188 100.699C64.9188 99.9976 65.4931 99.4266 66.1984 99.4266C66.9042 99.4266 67.4785 99.9976 67.4785 100.699C67.4785 101.401 66.9042 101.971 66.1984 101.971Z" fill="black"/>
</svg>
