<svg width="143" height="132" viewBox="0 0 143 132" fill="none" xmlns="http://www.w3.org/2000/svg">
<path d="M44.8456 45.5688H137.222C139.101 45.5688 140.807 44.0734 141.591 41.7405C143.279 36.7128 143.331 30.9442 141.734 25.861L141.298 24.4696C140.676 22.4913 139.384 21.0548 137.839 20.6251L137.551 20.5448C135.845 20.0705 134.203 19.2429 132.68 18.0919L123.879 11.4403C118.088 7.06121 111.576 4.7645 104.957 4.7645H96.0279C89.6065 4.7645 83.2867 6.96417 77.6476 11.164L72.7355 14.8207C70.6433 16.3788 68.3733 17.4408 66.0215 17.9625L59.7199 19.3602C53.8676 20.6579 48.1195 22.714 42.5533 25.501L42.4495 25.5528C40.3251 26.6165 39.0313 29.5604 39.343 32.6219L40.0853 39.9078C40.4152 43.1531 42.447 45.5688 44.8456 45.5688Z" fill="white"/>
<path d="M137.223 45.7256H44.8461C42.4037 45.7256 40.3083 43.2337 39.9716 39.9294L39.2299 32.6433C38.913 29.5308 40.2505 26.4867 42.4109 25.4054L42.5142 25.3536C48.0741 22.57 53.8566 20.5013 59.7017 19.2048L65.5504 17.9086C65.613 17.8938 65.6723 17.9518 65.6823 18.0381C65.6927 18.1231 65.6499 18.204 65.5874 18.2175L59.7387 19.5151C53.9077 20.8077 48.1392 22.8713 42.5929 25.648L42.4897 25.6998C40.4303 26.7309 39.1548 29.6328 39.4572 32.6002L40.1994 39.8862C40.5199 43.0365 42.5178 45.412 44.8461 45.412H137.223C139.051 45.412 140.725 43.9452 141.487 41.675C143.159 36.697 143.21 30.9554 141.629 25.9227L141.193 24.5314C140.586 22.6007 139.325 21.1978 137.817 20.7785L137.529 20.6982C135.811 20.2198 134.16 19.3896 132.625 18.2283L123.825 11.5774C118.065 7.22211 111.541 4.92105 104.957 4.92105H96.0289C89.6453 4.92105 83.3081 7.12769 77.7029 11.3009L72.7909 14.9588C70.9999 16.2928 69.0916 17.2612 67.1193 17.8385C67.0563 17.8574 66.9963 17.8034 66.9827 17.7185C66.9692 17.6335 67.0088 17.5499 67.0708 17.5323C69.0223 16.9604 70.9098 16.0028 72.6809 14.6837L77.5934 11.0257C83.2321 6.8269 89.6068 4.60813 96.0289 4.60813H104.957C111.58 4.60813 118.142 6.92267 123.936 11.3022L132.737 17.9545C134.25 19.0996 135.879 19.9183 137.575 20.391L137.863 20.4712C139.444 20.9111 140.767 22.3826 141.403 24.4077L141.841 25.7991C143.447 30.9131 143.394 36.7473 141.696 41.8057C140.897 44.187 139.14 45.7256 137.223 45.7256Z" fill="#151515"/>
<path d="M142.083 31.8447H41.6498C41.5862 31.8447 41.5352 31.7745 41.5352 31.6879C41.5352 31.6013 41.5862 31.531 41.6498 31.531H142.083C142.146 31.531 142.198 31.6013 142.198 31.6879C142.198 31.7745 142.146 31.8447 142.083 31.8447Z" fill="#151515"/>
<path d="M45.8729 24.0918C45.8625 24.0918 45.8515 24.09 45.8405 24.0854C45.7801 24.0617 45.7447 23.9752 45.7624 23.8914L49.4077 6.67726C49.4257 6.59438 49.4883 6.54611 49.5504 6.5707C49.611 6.59438 49.6464 6.6809 49.629 6.76468L45.9829 23.9789C45.9683 24.0472 45.9229 24.0918 45.8729 24.0918Z" fill="#151515"/>
<path d="M111.855 39.9832C111.855 47.3994 116.256 53.4116 121.686 53.4116C127.114 53.4116 131.515 47.3994 131.515 39.9832C131.515 32.5671 127.114 26.5554 121.686 26.5554C116.256 26.5554 111.855 32.5671 111.855 39.9832Z" fill="#151515"/>
<path d="M115.168 39.983C115.168 44.9003 118.086 48.8867 121.685 48.8867C125.285 48.8867 128.204 44.9003 128.204 39.983C128.204 35.0657 125.285 31.0791 121.685 31.0791C118.086 31.0791 115.168 35.0657 115.168 39.983Z" fill="white"/>
<path d="M121.687 31.2358C118.157 31.2358 115.285 35.1602 115.285 39.9831C115.285 44.806 118.157 48.7301 121.687 48.7301C125.218 48.7301 128.091 44.806 128.091 39.9831C128.091 35.1602 125.218 31.2358 121.687 31.2358ZM121.687 49.0435C118.03 49.0435 115.055 44.9789 115.055 39.9831C115.055 34.9872 118.03 30.923 121.687 30.923C125.345 30.923 128.321 34.9872 128.321 39.9831C128.321 44.9789 125.345 49.0435 121.687 49.0435Z" fill="#151515"/>
<path d="M119.152 39.9835C119.152 41.8954 120.286 43.4453 121.686 43.4453C123.086 43.4453 124.22 41.8954 124.22 39.9835C124.22 38.0716 123.086 36.5217 121.686 36.5217C120.286 36.5217 119.152 38.0716 119.152 39.9835Z" fill="white"/>
<path d="M121.688 36.6784C120.354 36.6784 119.269 38.161 119.269 39.9834C119.269 41.8058 120.354 43.2885 121.688 43.2885C123.023 43.2885 124.108 41.8058 124.108 39.9834C124.108 38.161 123.023 36.6784 121.688 36.6784ZM121.688 43.6021C120.228 43.6021 119.039 41.9787 119.039 39.9834C119.039 37.9882 120.228 36.3649 121.688 36.3649C123.149 36.3649 124.337 37.9882 124.337 39.9834C124.337 41.9787 123.149 43.6021 121.688 43.6021Z" fill="#151515"/>
<path d="M49.1719 39.9833C49.1719 47.3992 53.5728 53.4116 59.0022 53.4116C64.4311 53.4116 68.832 47.3992 68.832 39.9833C68.832 32.5667 64.4311 26.555 59.0022 26.555C53.5728 26.555 49.1719 32.5667 49.1719 39.9833Z" fill="#151515"/>
<path d="M52.4844 39.9822C52.4844 44.9003 55.4024 48.8862 59.0027 48.8862C62.6019 48.8862 65.5204 44.9003 65.5204 39.9822C65.5204 35.065 62.6019 31.079 59.0027 31.079C55.4024 31.079 52.4844 35.065 52.4844 39.9822Z" fill="white"/>
<path d="M59.0002 31.2361C55.4694 31.2361 52.5968 35.1601 52.5968 39.9831C52.5968 44.8061 55.4694 48.7301 59.0002 48.7301C62.5309 48.7301 65.403 44.8061 65.403 39.9831C65.403 35.1601 62.5309 31.2361 59.0002 31.2361ZM59.0002 49.043C55.3429 49.043 52.3672 44.9789 52.3672 39.9831C52.3672 34.9873 55.3429 30.9225 59.0002 30.9225C62.6568 30.9225 65.6326 34.9873 65.6326 39.9831C65.6326 44.9789 62.6568 49.043 59.0002 49.043Z" fill="#151515"/>
<path d="M56.4648 39.983C56.4648 41.8947 57.5993 43.4443 58.9993 43.4443C60.3987 43.4443 61.5337 41.8947 61.5337 39.983C61.5337 38.0707 60.3987 36.521 58.9993 36.521C57.5993 36.521 56.4648 38.0707 56.4648 39.983Z" fill="white"/>
<path d="M59.0012 36.6778C57.6671 36.6778 56.5817 38.1604 56.5817 39.9828C56.5817 41.8053 57.6671 43.2879 59.0012 43.2879C60.3349 43.2879 61.4207 41.8053 61.4207 39.9828C61.4207 38.1604 60.3349 36.6778 59.0012 36.6778ZM59.0012 43.6016C57.5403 43.6016 56.3516 41.9778 56.3516 39.9828C56.3516 37.9872 57.5403 36.3641 59.0012 36.3641C60.4617 36.3641 61.6504 37.9872 61.6504 39.9828C61.6504 41.9778 60.4617 43.6016 59.0012 43.6016Z" fill="#151515"/>
<path d="M73.418 18.2114H114.734C117.616 18.2114 120.486 17.6056 123.272 16.4106L125.377 15.5066L120.748 12.2438C115.234 8.35845 109.283 6.35168 103.268 6.35168H97.7243C89.6514 6.35168 81.7363 9.96409 74.8529 16.7878L73.418 18.2114Z" fill="#99D4FF"/>
<path d="M82.9525 18.6997H78.759C78.0855 18.6997 77.5391 17.9533 77.5391 17.0325V16.003C77.5391 15.083 78.0855 14.3366 78.759 14.3366H82.9525C83.6265 14.3366 84.1723 15.083 84.1723 16.003V17.0325C84.1723 17.9533 83.6265 18.6997 82.9525 18.6997Z" fill="white"/>
<path d="M65.572 18.063C61.8643 15.1324 57.7424 12.012 53.4351 9.12489C49.7643 6.66292 46.2027 4.46642 42.7825 2.50421C42.722 2.00539 42.6615 1.50657 42.6016 1.00775C46.2027 2.78479 50.1151 4.98696 54.2297 7.73046C59.0903 10.9718 63.4239 14.4012 67.0977 17.6851C66.4227 17.8476 66.1066 17.9534 65.572 18.063Z" fill="white"/>
<path d="M65.5704 18.2197C65.5503 18.2197 65.5302 18.2131 65.5122 18.1989C60.9503 14.5937 57.096 11.7546 53.383 9.26537C49.8973 6.92842 46.3154 4.70307 42.7362 2.6489C42.6997 2.62809 42.6736 2.5827 42.6673 2.52974L42.4859 1.03356C42.4792 0.978708 42.4948 0.922909 42.5261 0.886971C42.5574 0.851978 42.6001 0.841576 42.6382 0.860491C46.5885 2.80968 50.505 5.07381 54.2775 7.5895C58.8027 10.6074 63.1368 13.9601 67.1586 17.5539C67.212 17.6012 67.2265 17.6986 67.1919 17.7714C67.1573 17.8433 67.0866 17.8641 67.0333 17.8168C63.0191 14.2296 58.694 10.8835 54.1771 7.87133C50.4701 5.40009 46.625 3.1719 42.7445 1.24636L42.8831 2.39355C46.4473 4.44015 50.0135 6.65699 53.484 8.98354C57.2027 11.4765 61.0611 14.3185 65.6272 17.9275C65.6819 17.97 65.7013 18.0665 65.6694 18.1412C65.6486 18.1914 65.6099 18.2197 65.5704 18.2197Z" fill="#151515"/>
<path d="M131.807 131.147H79.7695V44.5805H131.807V131.147Z" fill="#99D4FF"/>
<path d="M125.978 125.424H73.9414V38.8575H125.978V125.424Z" fill="white"/>
<path d="M74.058 125.267H125.865V39.0144H74.058V125.267ZM125.981 125.581H73.9435C73.8792 125.581 73.8281 125.511 73.8281 125.424V38.8575C73.8281 38.771 73.8792 38.7007 73.9435 38.7007H125.981C126.043 38.7007 126.095 38.771 126.095 38.8575V125.424C126.095 125.511 126.043 125.581 125.981 125.581Z" fill="#151515"/>
<path d="M121.204 66.1445H79.6697C79.6066 66.1445 79.5547 66.074 79.5547 65.9878C79.5547 65.901 79.6066 65.8305 79.6697 65.8305H121.204C121.268 65.8305 121.319 65.901 121.319 65.9878C121.319 66.074 121.268 66.1445 121.204 66.1445Z" fill="#151515"/>
<path d="M121.204 70.8228H79.6697C79.6066 70.8228 79.5547 70.7523 79.5547 70.6662C79.5547 70.5793 79.6066 70.5095 79.6697 70.5095H121.204C121.268 70.5095 121.319 70.5793 121.319 70.6662C121.319 70.7523 121.268 70.8228 121.204 70.8228Z" fill="#151515"/>
<path d="M121.204 75.5015H79.6697C79.6066 75.5015 79.5547 75.4317 79.5547 75.3448C79.5547 75.258 79.6066 75.1882 79.6697 75.1882H121.204C121.268 75.1882 121.319 75.258 121.319 75.3448C121.319 75.4317 121.268 75.5015 121.204 75.5015Z" fill="#151515"/>
<path d="M121.205 109.878H106.205C106.141 109.878 106.09 109.808 106.09 109.721C106.09 109.634 106.141 109.565 106.205 109.565H121.205C121.269 109.565 121.32 109.634 121.32 109.721C121.32 109.808 121.269 109.878 121.205 109.878Z" fill="#151515"/>
<path d="M104.402 109.878H91.1223C91.0595 109.878 91.0078 109.808 91.0078 109.721C91.0078 109.634 91.0595 109.565 91.1223 109.565H104.402C104.465 109.565 104.516 109.634 104.516 109.721C104.516 109.808 104.465 109.878 104.402 109.878Z" fill="#151515"/>
<path d="M121.205 112.917H109.181C109.118 112.917 109.066 112.846 109.066 112.76C109.066 112.673 109.118 112.603 109.181 112.603H121.205C121.269 112.603 121.32 112.673 121.32 112.76C121.32 112.846 121.269 112.917 121.205 112.917Z" fill="#151515"/>
<path d="M107.378 112.917H99.3103C99.2475 112.917 99.1953 112.846 99.1953 112.76C99.1953 112.673 99.2475 112.603 99.3103 112.603H107.378C107.442 112.603 107.493 112.673 107.493 112.76C107.493 112.846 107.442 112.917 107.378 112.917Z" fill="#151515"/>
<path d="M97.5075 112.917H91.1222C91.0594 112.917 91.0078 112.847 91.0078 112.76C91.0078 112.673 91.0594 112.603 91.1222 112.603H97.5075C97.5703 112.603 97.6219 112.673 97.6219 112.76C97.6219 112.847 97.5703 112.917 97.5075 112.917Z" fill="#151515"/>
<path d="M101.581 115.955H91.1226C91.0597 115.955 91.0078 115.885 91.0078 115.798C91.0078 115.712 91.0597 115.642 91.1226 115.642H101.581C101.644 115.642 101.696 115.712 101.696 115.798C101.696 115.885 101.644 115.955 101.581 115.955Z" fill="#151515"/>
<path d="M85.9317 117.338H79.447C79.3835 117.338 79.332 117.268 79.332 117.181V108.338C79.332 108.252 79.3835 108.181 79.447 108.181H85.5601C85.6243 108.181 85.6751 108.252 85.6751 108.338C85.6751 108.425 85.6243 108.495 85.5601 108.495H79.5614V117.024H85.8174V110.714C85.8174 110.628 85.8682 110.557 85.9317 110.557C85.9953 110.557 86.0467 110.628 86.0467 110.714V117.181C86.0467 117.268 85.9953 117.338 85.9317 117.338Z" fill="#151515"/>
<path d="M83.0184 114.961C82.9816 114.961 82.9475 114.937 82.9256 114.896L80.385 110.045C80.3476 109.974 80.3599 109.877 80.4114 109.826C80.463 109.775 80.5346 109.792 80.5713 109.862L83.019 114.535L87.3543 106.299C87.3911 106.228 87.4626 106.212 87.5142 106.262C87.5658 106.313 87.5774 106.411 87.5406 106.482L83.1119 114.896C83.0906 114.937 83.0558 114.961 83.0184 114.961Z" fill="#151515"/>
<path d="M85.9317 89.8125H79.447C79.3835 89.8125 79.332 89.742 79.332 89.6552V80.8128C79.332 80.726 79.3835 80.6555 79.447 80.6555H85.5601C85.6243 80.6555 85.6751 80.726 85.6751 80.8128C85.6751 80.899 85.6243 80.9695 85.5601 80.9695H79.5614V89.4985H85.8174V83.1881C85.8174 83.1019 85.8682 83.0314 85.9317 83.0314C85.9953 83.0314 86.0467 83.1019 86.0467 83.1881V89.6552C86.0467 89.742 85.9953 89.8125 85.9317 89.8125Z" fill="#151515"/>
<path d="M83.0184 87.665C82.9816 87.665 82.9475 87.6408 82.9256 87.5996L80.385 82.7494C80.3476 82.6789 80.3599 82.5807 80.4114 82.5308C80.463 82.4803 80.5346 82.4967 80.5713 82.5671L83.019 87.2393L87.3543 79.0028C87.3911 78.9324 87.4626 78.9167 87.5142 78.9672C87.5658 79.0178 87.5774 79.1153 87.5406 79.1858L83.1119 87.6003C83.0906 87.6408 83.0558 87.665 83.0184 87.665Z" fill="#151515"/>
<path d="M121.205 82.2397H111.837C111.774 82.2397 111.723 82.1693 111.723 82.083C111.723 81.9963 111.774 81.9265 111.837 81.9265H121.205C121.269 81.9265 121.32 81.9963 121.32 82.083C121.32 82.1693 121.269 82.2397 121.205 82.2397Z" fill="#151515"/>
<path d="M110.031 82.2397H91.0956C91.0322 82.2397 90.9805 82.1693 90.9805 82.0831C90.9805 81.9963 91.0322 81.9265 91.0956 81.9265H110.031C110.094 81.9265 110.145 81.9963 110.145 82.0831C110.145 82.1693 110.094 82.2397 110.031 82.2397Z" fill="#151515"/>
<path d="M121.202 85.2778H98.5829C98.5198 85.2778 98.4688 85.208 98.4688 85.1212C98.4688 85.035 98.5198 84.9645 98.5829 84.9645H121.202C121.265 84.9645 121.316 85.035 121.316 85.1212C121.316 85.208 121.265 85.2778 121.202 85.2778Z" fill="#151515"/>
<path d="M96.7802 85.2773H91.0956C91.0317 85.2773 90.9805 85.2075 90.9805 85.1207C90.9805 85.0345 91.0317 84.9641 91.0956 84.9641H96.7802C96.8426 84.9641 96.8946 85.0345 96.8946 85.1207C96.8946 85.2075 96.8426 85.2773 96.7802 85.2773Z" fill="#151515"/>
<path d="M111.836 88.3164H91.0956C91.0321 88.3164 90.9805 88.2459 90.9805 88.1598C90.9805 88.0729 91.0321 88.0023 91.0956 88.0023H111.836C111.9 88.0023 111.95 88.0729 111.95 88.1598C111.95 88.2459 111.9 88.3164 111.836 88.3164Z" fill="#151515"/>
<path d="M85.9317 103.544H79.447C79.3835 103.544 79.332 103.474 79.332 103.388V94.5448C79.332 94.4579 79.3835 94.3874 79.447 94.3874H85.5601C85.6243 94.3874 85.6751 94.4579 85.6751 94.5448C85.6751 94.6309 85.6243 94.7014 85.5601 94.7014H79.5614V103.23H85.8174V96.92C85.8174 96.8338 85.8682 96.7634 85.9317 96.7634C85.9953 96.7634 86.0467 96.8338 86.0467 96.92V103.388C86.0467 103.474 85.9953 103.544 85.9317 103.544Z" fill="#151515"/>
<path d="M83.0184 101.207C82.9816 101.207 82.9475 101.182 82.9256 101.141L80.385 96.2902C80.3476 96.2197 80.3599 96.1221 80.4114 96.0716C80.463 96.021 80.5346 96.0374 80.5713 96.1079L83.019 100.781L87.3543 92.5436C87.3911 92.4739 87.4626 92.4575 87.5142 92.508C87.5658 92.5586 87.5774 92.6569 87.5406 92.7273L83.1119 101.141C83.0906 101.182 83.0558 101.207 83.0184 101.207Z" fill="#151515"/>
<path d="M121.202 95.9712H106.189C106.125 95.9712 106.074 95.9014 106.074 95.8146C106.074 95.7277 106.125 95.6579 106.189 95.6579H121.202C121.266 95.6579 121.317 95.7277 121.317 95.8146C121.317 95.9014 121.266 95.9712 121.202 95.9712Z" fill="#151515"/>
<path d="M104.385 95.9712H91.0957C91.0321 95.9712 90.9805 95.9015 90.9805 95.8146C90.9805 95.7278 91.0321 95.6579 91.0957 95.6579H104.385C104.448 95.6579 104.5 95.7278 104.5 95.8146C104.5 95.9015 104.448 95.9712 104.385 95.9712Z" fill="#151515"/>
<path d="M121.202 99.0103H109.169C109.106 99.0103 109.055 98.9398 109.055 98.8529C109.055 98.7667 109.106 98.6963 109.169 98.6963H121.202C121.266 98.6963 121.317 98.7667 121.317 98.8529C121.317 98.9398 121.266 99.0103 121.202 99.0103Z" fill="#151515"/>
<path d="M107.365 99.0103H99.2908C99.2272 99.0103 99.1758 98.9398 99.1758 98.8528C99.1758 98.7667 99.2272 98.6963 99.2908 98.6963H107.365C107.428 98.6963 107.48 98.7667 107.48 98.8528C107.48 98.9398 107.428 99.0103 107.365 99.0103Z" fill="#151515"/>
<path d="M97.4861 99.0098H91.0963C91.0327 99.0098 90.9805 98.9394 90.9805 98.8524C90.9805 98.7663 91.0327 98.6958 91.0963 98.6958H97.4861C97.5496 98.6958 97.6004 98.7663 97.6004 98.8524C97.6004 98.9394 97.5496 99.0098 97.4861 99.0098Z" fill="#151515"/>
<path d="M105.191 102.048H91.0957C91.0317 102.048 90.9805 101.978 90.9805 101.892C90.9805 101.805 91.0317 101.735 91.0957 101.735H105.191C105.255 101.735 105.306 101.805 105.306 101.892C105.306 101.978 105.255 102.048 105.191 102.048Z" fill="#151515"/>
<path d="M110.886 60.0394L108.445 60.043C108.353 60.043 108.279 59.9419 108.279 59.8165L108.277 54.762C108.277 54.6368 108.351 54.5357 108.443 54.535L110.885 54.5322C110.975 54.5322 111.05 54.6332 111.05 54.7585L111.052 59.813C111.052 59.9384 110.978 60.0394 110.886 60.0394Z" fill="#0176CA"/>
<path d="M118.504 60.0303L120.946 60.0267C121.037 60.0267 121.111 59.9256 121.111 59.8003L121.109 54.7458C121.109 54.6205 121.035 54.5194 120.943 54.5194L118.502 54.5222C118.41 54.5222 118.336 54.6241 118.336 54.7486L118.338 59.8039C118.338 59.9284 118.412 60.0303 118.504 60.0303Z" fill="#0176CA"/>
<path d="M121.744 46.2612C121.65 46.0625 120.712 46.149 120.468 46.1777C120.32 46.195 120.172 46.555 119.987 46.9487C119.802 45.6456 119.58 43.8915 119.304 43.7018C118.948 43.4574 115.806 43.3681 114.832 43.3463V43.3401L114.545 43.3405V43.3467C113.572 43.371 110.429 43.4684 110.073 43.7138C109.796 43.9042 109.575 45.6587 109.391 46.9624C109.207 46.5691 109.121 46.2635 108.973 46.2465C108.73 46.2184 107.791 46.1344 107.698 46.3333C107.603 46.5323 107.642 47.5263 107.754 47.7534C107.867 47.9805 109.3 47.8651 109.374 47.865C109.296 48.0169 109.23 48.172 109.133 48.344C109.133 48.3447 109.133 48.3447 109.133 48.3454C108.909 48.747 108.104 49.7509 107.64 50.5698C107.25 51.2605 107.717 55.9276 107.868 57.321C107.892 57.5474 108.022 57.7118 108.173 57.7104L114.692 57.647L121.212 57.6934C121.364 57.6948 121.493 57.5295 121.518 57.3032C121.667 55.9098 122.132 51.2411 121.741 50.552C121.277 49.7338 120.471 48.7321 120.247 48.3313C120.247 48.3306 120.247 48.3298 120.248 48.3292C120.167 48.1737 120.146 48.0193 120.122 47.851C120.196 47.8509 121.575 47.9089 121.688 47.6814C121.801 47.4541 121.838 46.4599 121.744 46.2612Z" fill="#0176CA"/>
<path d="M118.215 52.8817C118.215 52.8817 121.076 51.7061 121.17 51.7767C121.264 51.8479 121.147 53.4804 121.054 53.729C120.959 53.9775 118.497 53.9454 118.355 53.8037C118.215 53.6621 118.215 52.8817 118.215 52.8817Z" fill="white"/>
<path d="M111.17 52.8906C111.17 52.8906 108.308 51.7229 108.214 51.794C108.12 51.8652 108.239 53.4971 108.332 53.7457C108.426 53.9941 110.889 53.9557 111.031 53.8133C111.171 53.6708 111.17 52.8906 111.17 52.8906Z" fill="white"/>
<path d="M114.874 48.9307C117.129 48.8909 118.728 48.5149 119.303 48.3583C119.434 48.322 119.52 48.1344 119.497 47.9364C119.385 46.9839 119.064 44.4246 118.846 44.2832C118.664 44.166 116.618 44.0777 115.267 44.0502C115.195 44.0417 114.186 44.043 114.112 44.0517C112.762 44.0826 110.716 44.1763 110.536 44.294C110.317 44.4359 109.998 46.9961 109.887 47.9488C109.863 48.1468 109.95 48.3347 110.081 48.3697C110.656 48.5256 112.255 48.8973 114.51 48.9315L114.511 48.9351C114.571 48.9351 114.813 48.9343 114.874 48.9343V48.9307Z" fill="white"/>
<path d="M117.075 56.3061L112.38 56.3125L112.379 54.9178L117.074 54.9113L117.075 56.3061Z" fill="white"/>
<path d="M101.191 55.3154H80.3675C79.9815 55.3154 79.668 54.887 79.668 54.3587C79.668 53.8314 79.9815 53.4032 80.3675 53.4032H101.191C101.577 53.4032 101.891 53.8314 101.891 54.3587C101.891 54.887 101.577 55.3154 101.191 55.3154Z" fill="#99D4FF"/>
<path d="M87.8698 50.5254H80.3675C79.981 50.5254 79.668 50.0969 79.668 49.5698C79.668 49.0418 79.981 48.6142 80.3675 48.6142H87.8698C88.2564 48.6142 88.5694 49.0418 88.5694 49.5698C88.5694 50.0969 88.2564 50.5254 87.8698 50.5254Z" fill="#99D4FF"/>
<path d="M101.066 50.9111H90.2002C89.8135 50.9111 89.5 50.4839 89.5 49.9556C89.5 49.4283 89.8135 49.0001 90.2002 49.0001H101.066C101.452 49.0001 101.765 49.4283 101.765 49.9556C101.765 50.4839 101.452 50.9111 101.066 50.9111Z" fill="#99D4FF"/>
<path d="M115.658 110.46C115.492 110.46 115.351 110.513 115.25 110.566C114.829 110.788 114.501 111.323 114.453 111.866C114.369 112.808 114.719 113.978 115.343 114.846C115.634 115.25 115.962 115.56 116.308 115.765C116.55 115.257 116.728 114.685 116.833 114.136C117.096 112.744 116.931 111.491 116.403 110.865C116.141 110.554 115.878 110.46 115.658 110.46ZM112.383 113.364C112.37 113.364 112.357 113.365 112.346 113.365C112.007 113.387 111.678 113.684 111.595 114.042C111.485 114.519 111.678 115.192 112.11 115.843C112.242 116.041 112.397 116.236 112.569 116.418C112.931 115.468 113.104 114.373 112.945 113.857C112.817 113.437 112.552 113.364 112.383 113.364ZM111.116 118.44C111.109 118.44 111.1 118.44 111.092 118.44C110.699 118.428 110.288 118.137 109.934 117.622C109.339 116.759 109.02 115.471 109.058 114.085C109.06 113.999 109.112 113.931 109.176 113.934C109.24 113.938 109.289 114.01 109.287 114.097C109.252 115.399 109.548 116.606 110.101 117.407C110.414 117.861 110.768 118.116 111.097 118.126C111.51 118.141 111.95 117.728 112.33 116.965C112.373 116.879 112.416 116.789 112.455 116.698C112.263 116.497 112.09 116.279 111.94 116.054C111.445 115.308 111.24 114.541 111.376 113.948C111.488 113.464 111.9 113.079 112.335 113.052C112.718 113.029 113.017 113.277 113.157 113.736C113.344 114.344 113.161 115.559 112.757 116.603C113.355 117.16 114.113 117.528 114.815 117.326C115.362 117.169 115.823 116.668 116.174 116.028C115.818 115.807 115.479 115.483 115.179 115.066C114.498 114.119 114.133 112.878 114.226 111.828C114.283 111.175 114.671 110.535 115.167 110.273C115.645 110.021 116.151 110.151 116.553 110.628C117.149 111.333 117.341 112.707 117.055 114.214C116.953 114.75 116.778 115.341 116.53 115.881C116.858 116.031 117.198 116.087 117.532 116.04C118.155 115.952 118.78 115.446 119.246 114.653C119.855 113.619 120.135 112.217 120.016 110.806C120.009 110.72 120.054 110.643 120.118 110.633C120.18 110.623 120.237 110.685 120.244 110.77C120.37 112.264 120.071 113.75 119.425 114.849C118.92 115.708 118.238 116.255 117.555 116.351C117.168 116.406 116.775 116.335 116.398 116.151C116.024 116.863 115.512 117.446 114.863 117.633C114.094 117.853 113.286 117.478 112.642 116.881C112.603 116.97 112.562 117.058 112.52 117.142C112.101 117.981 111.603 118.44 111.116 118.44Z" fill="#151515"/>
<path d="M116.939 123.262C116.876 123.262 116.824 123.192 116.824 123.105C116.824 123.018 116.876 122.948 116.939 122.948C120.856 122.948 124.042 118.596 124.042 113.246C124.042 111.678 123.762 110.121 123.232 108.742C123.202 108.666 123.224 108.571 123.28 108.53C123.337 108.49 123.406 108.52 123.435 108.597C123.982 110.02 124.272 111.628 124.272 113.246C124.272 118.769 120.983 123.262 116.939 123.262Z" fill="#151515"/>
<path d="M113.118 121.769C113.097 121.769 113.076 121.762 113.057 121.746C110.896 119.9 109.605 116.723 109.605 113.246C109.605 107.723 112.895 103.23 116.938 103.23C118.564 103.23 120.103 103.942 121.392 105.288C121.442 105.34 121.451 105.439 121.413 105.508C121.374 105.577 121.302 105.59 121.252 105.537C120.005 104.233 118.513 103.544 116.938 103.544C113.022 103.544 109.835 107.896 109.835 113.246C109.835 116.614 111.085 119.692 113.179 121.479C113.233 121.526 113.249 121.622 113.216 121.696C113.193 121.743 113.156 121.769 113.118 121.769Z" fill="#151515"/>
<path d="M116.939 120.259C114.107 120.259 111.805 117.113 111.805 113.246C111.805 113.159 111.856 113.089 111.919 113.089C111.983 113.089 112.034 113.159 112.034 113.246C112.034 116.939 114.234 119.945 116.939 119.945C119.643 119.945 121.844 116.939 121.844 113.246C121.844 109.552 119.643 106.546 116.939 106.546C115.849 106.546 114.817 107.025 113.955 107.929C113.904 107.982 113.832 107.968 113.794 107.9C113.755 107.832 113.765 107.733 113.814 107.68C114.718 106.734 115.798 106.233 116.939 106.233C119.77 106.233 122.073 109.379 122.073 113.246C122.073 117.113 119.77 120.259 116.939 120.259Z" fill="#151515"/>
<path d="M69.9535 99.2046H63.6418C63.5789 99.2046 63.5273 99.1341 63.5273 99.0473V56.5582C63.5273 56.4716 63.5789 56.4012 63.6418 56.4012C63.7052 56.4012 63.7567 56.4716 63.7567 56.5582V98.8906H69.9535C70.0169 98.8906 70.0685 98.9611 70.0685 99.0473C70.0685 99.1341 70.0169 99.2046 69.9535 99.2046Z" fill="#151515"/>
<path d="M55.4914 71.9023H42.935C42.8714 71.9023 42.8203 71.8319 42.8203 71.7457C42.8203 71.6588 42.8714 71.5891 42.935 71.5891H55.3767V56.558C55.3767 56.4712 55.4278 56.4014 55.4914 56.4014C55.555 56.4014 55.6061 56.4712 55.6061 56.558V71.7457C55.6061 71.8319 55.555 71.9023 55.4914 71.9023Z" fill="#151515"/>
<path d="M59.8691 99.2046C59.8055 99.2046 59.7539 99.1341 59.7539 99.0479V56.7096C59.7539 56.6234 59.8055 56.5529 59.8691 56.5529C59.9322 56.5529 59.9838 56.6234 59.9838 56.7096V99.0479C59.9838 99.1341 59.9322 99.2046 59.8691 99.2046Z" fill="#151515"/>
<path d="M59.868 101.656C60.6817 101.656 61.3416 102.557 61.3416 103.669C61.3416 104.781 60.6817 105.682 59.868 105.682C59.0539 105.682 58.3945 104.781 58.3945 103.669C58.3945 102.557 59.0539 101.656 59.868 101.656Z" fill="#151515"/>
<path d="M59.868 108.251C60.6817 108.251 61.3416 109.151 61.3416 110.264C61.3416 111.375 60.6817 112.276 59.868 112.276C59.0539 112.276 58.3945 111.375 58.3945 110.264C58.3945 109.151 59.0539 108.251 59.868 108.251Z" fill="#151515"/>
<path d="M59.868 114.844C60.6817 114.844 61.3416 115.746 61.3416 116.857C61.3416 117.969 60.6817 118.871 59.868 118.871C59.0539 118.871 58.3945 117.969 58.3945 116.857C58.3945 115.746 59.0539 114.844 59.868 114.844Z" fill="#151515"/>
<mask id="mask0_11151_15857" style="mask-type:luminance" maskUnits="userSpaceOnUse" x="-1" y="1" width="65" height="131">
<path d="M63.3647 131.147H-0.0078125V1.00761H63.3647V131.147Z" fill="white"/>
</mask>
<g mask="url(#mask0_11151_15857)">
<path d="M18.0066 131.359L18.7359 92.6679L24.2373 131.359H41.3013L27.2807 60.6229L7.51931 60.934L0.832031 131.359H18.0066Z" fill="#151515"/>
<path d="M18.7204 92.0342C18.7173 92.0342 18.7141 92.0342 18.711 92.0335C18.6479 92.0264 18.6008 91.9509 18.6058 91.8647C18.6663 90.8451 19.206 81.8811 19.5445 81.048C19.8976 80.1794 21.1499 79.5557 21.2031 79.5293C21.2629 79.5001 21.3285 79.5421 21.3499 79.6233C21.3714 79.7052 21.3405 79.7949 21.2808 79.8241C21.2686 79.8305 20.0566 80.435 19.7451 81.2004C19.4793 81.8547 18.9979 89.1385 18.8347 91.8896C18.8298 91.9722 18.7796 92.0342 18.7204 92.0342Z" fill="white"/>
<path d="M45.7334 40.853C46.3935 42.2233 47.2929 43.3529 48.3014 44.2353C49.3469 45.1523 50.5104 45.8165 51.7051 46.2899C51.9462 46.3849 52.1926 46.4711 52.4348 46.5508C53.5753 42.613 54.5036 38.457 54.5036 38.457C55.558 37.5947 55.7478 37.0504 55.7478 37.0504C56.7857 34.4547 55.5987 34.1246 55.5987 34.1246C56.0171 31.3301 54.3444 31.9573 54.3444 31.9573C54.635 29.6659 52.9924 29.4759 52.9924 29.4759C54.7517 26.6202 55.2291 23.7652 54.157 23.923C53.3301 24.0454 49.611 29.4059 47.9536 31.847C47.4296 32.6199 46.9888 33.491 46.6452 34.4338L45.0078 38.9247C45.1976 39.6018 45.4404 40.2483 45.7334 40.853Z" fill="white"/>
<path d="M50.4468 33.8408C50.2216 33.8408 49.9969 33.8209 49.7728 33.7811C49.7094 33.7696 49.6657 33.6916 49.6736 33.6051C49.682 33.5194 49.7391 33.4589 49.8024 33.4704C50.6648 33.6234 51.5462 33.4658 52.3503 33.0149C52.6506 32.845 53.1605 32.4677 53.2008 31.8569C53.2272 31.4581 53.0232 31.0234 52.7049 30.7991C52.3839 30.5733 52.004 30.5526 51.6751 30.5618C50.6211 30.5909 49.5643 30.943 48.6185 31.5798C48.5613 31.6181 48.4924 31.5867 48.4649 31.5086C48.4369 31.4313 48.4605 31.3372 48.5171 31.2989C49.4926 30.6414 50.583 30.2778 51.6706 30.248C52.0292 30.238 52.4438 30.2625 52.8097 30.5205C53.147 30.7578 53.4692 31.2713 53.4294 31.8844C53.3813 32.6208 52.8635 33.0632 52.4377 33.305C51.8051 33.6594 51.1271 33.8408 50.4468 33.8408Z" fill="#151515"/>
<path d="M51.2609 37.0615C51.0633 37.0615 50.8724 36.9462 50.7394 36.7434C50.5881 36.4818 50.5837 36.144 50.5925 35.9118C50.6301 35.0319 50.8878 34.1868 51.3183 33.5308C51.3614 33.4668 51.4337 33.4615 51.4806 33.5195C51.5281 33.5768 51.5319 33.6763 51.4894 33.7404C51.0931 34.3436 50.8564 35.1209 50.8216 35.9291C50.81 36.2171 50.8398 36.4116 50.9149 36.5421C51.0104 36.6868 51.1599 36.7652 51.3078 36.7449C51.4762 36.72 51.6368 36.6514 51.7853 36.539C53.0381 35.6781 53.9168 34.1151 54.2022 32.2469C54.2143 32.1617 54.275 32.1074 54.3374 32.1255C54.3992 32.1428 54.4395 32.2258 54.4268 32.311C54.1271 34.2727 53.2037 35.9148 51.8929 36.8157C51.7212 36.9462 51.5314 37.0276 51.3321 37.0563C51.3078 37.06 51.2847 37.0615 51.2609 37.0615Z" fill="#151515"/>
<path d="M52.9348 37.7896C52.8729 37.7896 52.8121 37.7836 52.7519 37.7703C52.5071 37.7176 52.2743 37.5205 52.1294 37.244C52.0106 37.0179 51.9623 36.7562 51.9938 36.5071C52.0041 36.4219 52.0643 36.364 52.1262 36.3789C52.1886 36.3937 52.2304 36.4745 52.2201 36.5597C52.1929 36.7725 52.257 36.9497 52.315 37.0616C52.4241 37.2684 52.6054 37.4211 52.7882 37.4604C53.0802 37.5242 53.4091 37.3952 53.7922 37.0668C54.5416 36.4196 55.1169 35.4344 55.4115 34.2921C55.4322 34.2106 55.4984 34.1676 55.5581 34.1965C55.6178 34.2254 55.6492 34.3143 55.6281 34.3966C55.3166 35.6049 54.7077 36.6472 53.9143 37.3322C53.5556 37.6391 53.2338 37.7896 52.9348 37.7896Z" fill="#151515"/>
<path d="M53.9124 38.7715C53.7448 38.7715 53.5661 38.7231 53.4085 38.5507C53.1991 38.3209 53.1159 37.7826 53.2415 37.4634C53.2716 37.3868 53.3413 37.3586 53.3967 37.3997C53.4528 37.4408 53.4734 37.5359 53.4439 37.6117C53.3713 37.7963 53.4298 38.1718 53.5525 38.3056C53.7159 38.4854 53.9248 38.4725 54.1077 38.4362C54.7078 38.3105 56.1451 36.8533 56.076 35.1228C56.0577 34.6537 55.9032 34.3765 55.6164 34.2983C55.5627 34.2838 55.5238 34.2193 55.5238 34.1444C55.5238 34.038 55.5267 33.9268 55.5297 33.8131C55.5421 33.3642 55.555 32.9008 55.3851 32.5082C55.1721 32.1246 54.7585 31.8522 54.4063 32.0996C54.3679 32.127 54.3213 32.1222 54.2859 32.0867C54.2511 32.0513 54.2334 31.9924 54.241 31.9336C54.3148 31.3468 54.2275 30.7915 53.9956 30.3708C53.7673 29.9565 53.4091 29.6938 52.9855 29.6301C52.9442 29.6236 52.9088 29.5882 52.8928 29.5358C52.8769 29.4834 52.8816 29.4238 52.9076 29.3786C53.4268 28.4558 54.0133 27.3468 54.4245 26.1136C54.6977 24.9909 54.6623 24.3131 54.3166 24.0439C54.2233 23.9802 54.1166 24.0431 53.9525 24.1543C53.202 24.7862 52.5601 25.6228 51.9388 26.4312C51.7293 26.7036 51.5134 26.9857 51.295 27.2565C50.8578 27.8964 50.4071 28.5203 49.9716 29.1239C49.3214 30.0242 48.6488 30.9551 47.9891 31.9844C47.0433 33.5351 46.4592 35.2832 45.8414 37.1345C45.701 37.5561 45.5553 37.9929 45.4066 38.4217C45.3794 38.5007 45.311 38.5337 45.2532 38.4966C45.1959 38.4596 45.1712 38.3661 45.1989 38.2879C45.347 37.8607 45.4927 37.4255 45.6326 37.004C46.2297 35.2163 46.8468 33.3666 47.8145 31.7812C48.4806 30.7415 49.1556 29.8074 49.8082 28.9031C50.243 28.3018 50.692 27.6796 51.134 27.0332C51.357 26.756 51.5718 26.4755 51.7806 26.2039C52.4096 25.3842 53.0604 24.5363 53.8404 23.8811C54.0216 23.7569 54.2163 23.6248 54.4245 23.7674C55.109 24.301 54.7567 25.7453 54.6405 26.22C54.6393 26.2256 54.6381 26.2305 54.6364 26.2353C54.2458 27.408 53.7041 28.4655 53.2061 29.3617C53.608 29.4786 53.949 29.7647 54.1791 30.1822C54.4145 30.6085 54.5225 31.1486 54.4912 31.7248C54.9054 31.5878 55.3397 31.903 55.5727 32.3269C55.5745 32.3309 55.5769 32.3358 55.5786 32.3406C55.7875 32.8137 55.7728 33.3505 55.7592 33.8244C55.7574 33.8921 55.7562 33.9582 55.7545 34.0235C56.0884 34.1645 56.2831 34.5441 56.3056 35.1059C56.3817 37.0402 54.821 38.6038 54.1419 38.7465C54.0705 38.7602 53.9926 38.7715 53.9124 38.7715Z" fill="#151515"/>
<path d="M52.5252 45.7485C52.5111 45.7485 52.4969 45.745 52.4828 45.7371C52.4241 45.7056 52.3947 45.6147 52.4183 45.5338C52.6044 44.888 52.8182 44.1864 53.0451 43.4433C53.5724 41.7157 54.1169 39.9288 54.445 38.4339C54.4634 38.3509 54.5278 38.3036 54.5886 38.3287C54.6489 38.3538 54.6835 38.4411 54.6651 38.5242C54.3339 40.0347 53.7862 41.8289 53.2574 43.5642C53.031 44.3052 52.8177 45.0061 52.6316 45.649C52.6143 45.7106 52.5708 45.7485 52.5252 45.7485Z" fill="#151515"/>
<path d="M11.3863 32.947C15.1085 31.2312 21.2968 28.6344 28.6564 26.5443C31.4292 25.757 34.2759 27.3372 35.8709 30.5334L42.8251 44.4686L45.2247 37.8852C45.2247 37.8852 47.254 43.6574 53.2756 43.6773C53.2756 43.6773 51.2539 51.3858 48.8967 58.2848C47.2261 63.173 42.7555 64.9055 39.4804 61.8909C37.065 59.6676 34.4826 56.3541 32.747 51.5357L29.1493 71.0449H5.55582C1.66488 71.0449 -1.02035 65.7214 0.365481 60.7555L6.23635 39.7152C7.12746 36.5222 9.01578 34.0396 11.3863 32.947Z" fill="#0176CA"/>
<path d="M14.6226 53.5435C14.6084 53.5435 14.5939 53.5399 14.5799 53.5328C14.5211 53.5 14.4925 53.4089 14.5161 53.3284L17.0643 44.6513C17.0879 44.5708 17.1546 44.5317 17.2135 44.5637C17.2724 44.5965 17.3009 44.6876 17.2773 44.7681L14.7291 53.4452C14.7112 53.5064 14.6681 53.5435 14.6226 53.5435Z" fill="#151515"/>
<path d="M40.5716 50.2461C40.5534 50.2461 40.5341 50.2404 40.5169 50.2269C40.4611 50.1856 40.4408 50.0902 40.471 50.014L42.7253 44.3935C42.7561 44.3173 42.8259 44.2895 42.8812 44.3315C42.937 44.3728 42.9573 44.4682 42.9271 44.5444L40.6727 50.1649C40.6519 50.2169 40.6123 50.2461 40.5716 50.2461Z" fill="#151515"/>
<path d="M43.906 66.0454H21.4375L29.0718 39.5633H51.5405L43.906 66.0454Z" fill="white"/>
<path d="M43.9828 66.2026H30.082V65.8886H43.8264L44.7938 62.533L45.0075 62.6483L43.9828 66.2026Z" fill="#151515"/>
<path d="M50.5936 43.2642L50.3799 43.1488L51.3687 39.7198H39.7969V39.4065H51.7054L50.5936 43.2642Z" fill="#151515"/>
<path d="M23.7844 63.8594H42.8128L49.1869 41.749H30.1584L23.7844 63.8594ZM42.93 64.3301H23.5315C23.4746 64.3301 23.4212 64.2916 23.3892 64.2268C23.3571 64.1628 23.3505 64.0809 23.3714 64.0083L29.8809 41.4279C29.9068 41.3382 29.9704 41.2791 30.0411 41.2791H49.4397C49.4965 41.2791 49.5502 41.3175 49.582 41.3816C49.6143 41.4464 49.6205 41.5276 49.5997 41.6002L43.0901 64.1806C43.0645 64.271 43.0009 64.3301 42.93 64.3301Z" fill="#151515"/>
<path d="M17.0625 51.4375C17.0632 51.4674 17.0636 51.4973 17.0645 51.5272C17.0787 52.0598 17.0976 52.591 17.136 53.1214C17.2055 54.0826 17.3665 55.0025 17.6639 55.8818C17.9461 56.7149 18.3137 57.4945 18.7431 58.2001C19.1484 58.8672 19.607 59.4618 20.1174 59.9765C20.3336 60.1944 20.5532 60.4052 20.7695 60.623C21.9916 59.2581 23.1412 57.9053 24.0919 56.6714C24.0919 56.6714 29.4816 55.9473 29.4816 55.0239C29.4816 54.1004 27.0173 53.8249 27.0173 53.8249C27.0173 53.8249 31.1609 54.2214 31.1648 53.2837C31.1686 52.346 27.9576 51.6148 27.9576 51.6148C27.9576 51.6148 31.1236 51.6298 31.3182 50.7782C31.5129 49.9274 28.606 49.5977 28.606 49.5977C28.606 49.5977 30.0002 49.1663 30.0066 48.6565C30.0129 48.1474 28.298 47.2759 23.4824 48.1054C21.5455 48.4393 19.0625 49.9608 17.0625 51.4375Z" fill="white"/>
<path d="M7.93523 59.5327C7.89968 59.5327 7.8646 59.5106 7.84219 59.4679C7.80497 59.3981 7.81639 59.2999 7.86773 59.2493C7.91292 59.2045 12.4419 54.7289 16.8881 51.4437C16.944 51.4024 17.0134 51.4309 17.0437 51.507C17.0738 51.5832 17.0531 51.6786 16.9973 51.7192C12.5648 54.9944 8.04766 59.458 8.00247 59.5028C7.98219 59.5227 7.95853 59.5327 7.93523 59.5327Z" fill="#151515"/>
<path d="M24.0952 56.8281C24.0367 56.8281 23.9869 56.7676 23.981 56.6864C23.9749 56.6003 24.0209 56.5234 24.0841 56.5148C24.0975 56.5134 25.4442 56.3311 26.7727 56.0385C29.3407 55.4739 29.3701 55.0424 29.3701 55.0239C29.3701 54.4871 27.9907 54.0905 27.0112 53.9808C26.9484 53.9737 26.9014 53.899 26.9062 53.8128C26.9111 53.7267 26.9642 53.6619 27.0288 53.6683C28.4299 53.8021 30.6493 53.8313 31.0205 53.3607C31.0532 53.3194 31.0533 53.293 31.0533 53.2831C31.0557 52.7284 29.2353 52.0641 27.9421 51.7701C27.883 51.7565 27.8415 51.6832 27.8466 51.602C27.8515 51.5209 27.9013 51.4582 27.9609 51.4582C27.9814 51.4582 27.9934 51.4582 28.0099 51.4582C29.2872 51.4582 31.0967 51.2361 31.2121 50.732C31.2183 50.7049 31.2208 50.6729 31.1971 50.6252C30.978 50.1802 29.4877 49.8548 28.5998 49.7537C28.5434 49.7473 28.4988 49.6861 28.4949 49.6084C28.4909 49.5315 28.5288 49.4618 28.584 49.4447C29.2019 49.2532 29.8923 48.8815 29.8951 48.6544C29.8952 48.6472 29.8894 48.6259 29.8669 48.5946C29.6548 48.3033 28.6932 47.9737 26.6855 48.0015C26.6851 48.0015 26.6846 48.0015 26.6843 48.0015C26.6214 48.0015 26.5702 47.9324 26.5695 47.847C26.5688 47.7601 26.6197 47.6889 26.683 47.6882C28.474 47.6625 29.6942 47.9125 30.0297 48.3738C30.1097 48.4842 30.1255 48.5896 30.1247 48.6593C30.12 49.0374 29.6486 49.3357 29.2204 49.5294C29.9637 49.6597 31.1366 49.9409 31.3876 50.45C31.4454 50.5675 31.4606 50.6971 31.4312 50.8252C31.2888 51.4475 29.9862 51.6626 28.9964 51.7352C29.9888 52.0456 31.2858 52.5846 31.2829 53.2845C31.2826 53.3635 31.2639 53.4803 31.1767 53.5907C30.862 53.9894 29.7139 54.0755 28.6959 54.067C29.1915 54.2749 29.5997 54.5803 29.5997 55.0239C29.5997 55.3756 29.268 55.8071 26.8084 56.3482C25.4729 56.6423 24.12 56.8253 24.1065 56.8274C24.1027 56.8274 24.0989 56.8281 24.0952 56.8281Z" fill="#151515"/>
<path d="M7.27878 71.0659C7.22118 71.0659 7.17151 71.0068 7.16478 70.9271C7.15775 70.8409 7.20299 70.7633 7.26601 70.7534C9.9912 70.3333 12.5978 68.9363 14.804 66.7135C17.0486 64.4529 19.0312 62.3631 20.697 60.502C20.746 60.4472 20.8183 60.4571 20.8585 60.524C20.8987 60.591 20.8914 60.6899 20.8423 60.7448C19.1737 62.6088 17.1879 64.7021 14.9403 66.9662C12.7017 69.2211 10.0569 70.6387 7.29175 71.0652C7.28743 71.0659 7.28305 71.0659 7.27878 71.0659Z" fill="#151515"/>
<path d="M27.742 51.6929C27.7402 51.6929 27.7384 51.6922 27.7366 51.6922L26.2697 51.6003C26.2064 51.5968 26.1574 51.5234 26.1603 51.4366C26.1632 51.3504 26.2175 51.2828 26.2802 51.287L27.7472 51.3789C27.8105 51.3831 27.8595 51.4565 27.8566 51.5426C27.8538 51.6267 27.803 51.6929 27.742 51.6929Z" fill="#151515"/>
<path d="M25.8217 49.8589C25.7636 49.8589 25.7137 49.7984 25.7076 49.7179C25.7012 49.6318 25.7472 49.5549 25.8103 49.5456C26.6795 49.4253 27.5633 49.3769 28.4365 49.4025C28.4999 49.4046 28.5502 49.4765 28.5488 49.5627C28.5475 49.6481 28.4964 49.7165 28.4341 49.7165C28.4333 49.7165 28.4325 49.7165 28.4316 49.7165C27.5677 49.6909 26.6934 49.7386 25.8334 49.8582C25.8294 49.8582 25.8255 49.8589 25.8217 49.8589Z" fill="#151515"/>
<path d="M18.5406 50.3237C18.5273 50.3237 18.5137 50.3207 18.5005 50.3138C18.4411 50.2834 18.4109 50.1935 18.4331 50.1121C19.1247 47.5829 19.6116 44.9441 19.8799 42.2687C20.0719 40.3547 20.2155 37.8621 19.6168 35.5651C19.0183 33.2689 17.6761 31.565 16.1973 31.224C16.1348 31.2095 16.0926 31.1288 16.1032 31.0435C16.1138 30.9582 16.1731 30.9004 16.2354 30.9149C17.795 31.2742 19.2072 33.0588 19.8332 35.4601C20.4485 37.821 20.3029 40.3616 20.1075 42.3114C19.8366 45.0096 19.3458 47.6712 18.6482 50.2217C18.6309 50.2849 18.5871 50.3237 18.5406 50.3237Z" fill="#151515"/>
<path d="M30.9985 39.2427C30.9904 39.2427 30.9822 39.2419 30.974 39.2395C30.912 39.2206 30.8727 39.1371 30.8861 39.0528C31.14 37.4522 31.4024 35.7972 31.4275 34.1367C31.4554 32.3005 31.1689 30.6691 30.599 29.4206C29.9292 27.9531 28.8224 26.9944 27.7106 26.9188C27.6473 26.9141 27.5986 26.8408 27.6017 26.7541C27.6049 26.6675 27.6595 26.6005 27.7221 26.6053C28.9078 26.6864 30.0849 27.701 30.7939 29.2552C31.3873 30.5549 31.6858 32.2453 31.6571 34.1438C31.6315 35.8342 31.3667 37.5042 31.1105 39.119C31.0989 39.1923 31.0514 39.2427 30.9985 39.2427Z" fill="#151515"/>
<path d="M20.2437 42.7471C20.1972 42.7471 20.1534 42.7079 20.1362 42.6449C20.114 42.5637 20.1442 42.4739 20.2035 42.4434L31.0553 36.9054C31.1147 36.8749 31.1807 36.9162 31.2029 36.9974C31.2251 37.0786 31.1949 37.1684 31.1355 37.1989L20.2838 42.7369C20.2706 42.7435 20.257 42.7471 20.2437 42.7471Z" fill="#151515"/>
<path d="M22.6007 18.3852L19.7812 29.4618C19.7812 29.4618 20.5592 31.7306 24.723 33.862C28.8869 35.9941 27.4748 30.2488 25.9137 28.9438L26.8622 23.4843L22.6007 18.3852Z" fill="white"/>
<path d="M19.7828 29.6182C19.7702 29.6182 19.7575 29.6156 19.7451 29.6098C19.6852 29.5812 19.6535 29.4923 19.6744 29.4101L22.4938 18.3335C22.5064 18.2848 22.536 18.247 22.5729 18.2336C22.61 18.2202 22.6492 18.2328 22.6779 18.2672L26.9393 23.3658C26.9713 23.4044 26.9852 23.4639 26.9753 23.5202L26.299 27.4138C26.2846 27.4977 26.2223 27.5497 26.161 27.5296C26.0992 27.5103 26.0611 27.4255 26.0757 27.3408L26.736 23.5395L22.6547 18.6565L19.8912 29.5133C19.8747 29.5779 19.8303 29.6182 19.7828 29.6182Z" fill="#151515"/>
<path d="M20.9924 18.0021C20.9924 18.0021 18.6716 13.4241 19.0894 12.3716C19.5071 11.3181 20.3951 11.7518 20.3951 11.7518C20.3951 11.7518 23.8384 3.30134 25.5621 6.64707C25.5621 6.64707 26.6088 4.10543 28.1299 5.43069C29.6511 6.75502 29.2274 8.40137 28.2525 9.49862C28.2525 9.49862 29.2345 11.9854 28.3858 13.2445C27.5372 14.5037 28.5078 17.5014 29.1619 17.856C29.1619 17.856 31.1195 23.7136 29.2173 25.3757C27.3151 27.0379 23.5754 27.3217 22.5587 20.8397L20.9924 18.0021Z" fill="#151515"/>
<path d="M22.1864 18.3856L22.5597 20.8405C22.5597 20.8405 20.7054 21.5803 19.974 19.5849C19.3032 17.7539 20.4996 16.0594 21.7687 17.4479C21.9838 17.6832 22.1303 18.0165 22.1864 18.3856Z" fill="white"/>
<path d="M20.8304 17.097C20.6248 17.097 20.4333 17.1845 20.2715 17.3629C19.934 17.7358 19.7286 18.5681 20.0754 19.5143C20.6673 21.1297 22.0343 20.8435 22.4237 20.7246L22.0727 18.4169C22.0217 18.0806 21.8877 17.7799 21.6957 17.5701C21.4092 17.2567 21.1073 17.097 20.8304 17.097ZM21.7866 21.1255C21.1569 21.1255 20.3155 20.8698 19.8701 19.6544C19.5243 18.7108 19.6301 17.6678 20.1273 17.1191C20.4941 16.714 21.1363 16.556 21.8392 17.3255C22.0728 17.5812 22.2355 17.9455 22.2975 18.3532L22.6709 20.8078C22.683 20.8877 22.6481 20.9675 22.5907 20.9904C22.5826 20.993 22.2393 21.1255 21.7866 21.1255Z" fill="#151515"/>
<path d="M22.0333 20.1509C21.9944 20.1509 21.9564 20.1242 21.9349 20.0749C21.7086 19.5614 21.2792 19.2275 20.8406 19.2233C20.7772 19.2225 20.7261 19.1515 20.7266 19.0647C20.7271 18.9787 20.7784 18.9094 20.8414 18.9094C20.8416 18.9094 20.8419 18.9094 20.8422 18.9094C21.3589 18.9144 21.8651 19.3085 22.1315 19.9129C22.1642 19.9872 22.1467 20.0841 22.0924 20.1283C22.0738 20.1434 22.0534 20.1509 22.0333 20.1509Z" fill="#151515"/>
<path d="M28.391 12.3512C28.391 12.3512 25.6962 12.8142 24.6575 13.8066C24.1154 14.3247 23.8741 15.2541 24.056 16.1231C24.2388 16.9965 24.4834 18.0624 24.7334 18.8465C24.9041 19.3821 25.3209 19.6875 25.742 19.5869C26.605 19.3812 28.1305 18.892 29.162 17.855L28.391 12.3512Z" fill="white"/>
<path d="M28.3001 12.527C27.7925 12.6242 25.6127 13.086 24.7246 13.935C24.2232 14.4142 23.9995 15.2764 24.1678 16.0807C24.405 17.2136 24.6374 18.1484 24.84 18.7836C24.9899 19.2541 25.3523 19.5214 25.7236 19.4329C26.5292 19.241 28.0169 18.7731 29.0369 17.7866L28.3001 12.527ZM25.5819 19.7632C25.1734 19.7632 24.7974 19.4355 24.6295 18.9089C24.42 18.2518 24.1904 17.3292 23.9469 16.1666C23.7519 15.2343 24.0115 14.2337 24.593 13.6783C25.6428 12.6751 28.2667 12.2151 28.378 12.1958C28.4404 12.1853 28.4937 12.2405 28.5051 12.322L29.2761 17.826C29.2844 17.8856 29.267 17.946 29.2313 17.9819C28.1728 19.0456 26.604 19.5406 25.7631 19.7413C25.7024 19.7562 25.6418 19.7632 25.5819 19.7632Z" fill="#151515"/>
</g>
</svg>
