<svg width="24" height="24" viewBox="0 0 24 24" fill="none" xmlns="http://www.w3.org/2000/svg">
<g clip-path="url(#clip0_12366_26523)">
<path d="M23 8C22.448 8 22 7.553 22 7V3C22 2.448 21.551 2 21 2H17C16.448 2 16 1.553 16 1C16 0.447 16.448 0 17 0H21C22.654 0 24 1.346 24 3V7C24 7.553 23.552 8 23 8Z" fill="white"/>
<path d="M21 24H17C16.448 24 16 23.553 16 23C16 22.447 16.448 22 17 22H21C21.551 22 22 21.552 22 21V17C22 16.447 22.448 16 23 16C23.552 16 24 16.447 24 17V21C24 22.654 22.654 24 21 24Z" fill="white"/>
<path d="M7 24H3C1.346 24 0 22.654 0 21V17C0 16.447 0.448 16 1 16C1.552 16 2 16.447 2 17V21C2 21.552 2.449 22 3 22H7C7.552 22 8 22.447 8 23C8 23.553 7.552 24 7 24Z" fill="white"/>
<path d="M1 8C0.448 8 0 7.553 0 7V3C0 1.346 1.346 0 3 0H7C7.552 0 8 0.447 8 1C8 1.553 7.552 2 7 2H3C2.449 2 2 2.448 2 3V7C2 7.553 1.552 8 1 8Z" fill="white"/>
<path d="M18 11C17.448 11 17 10.553 17 10V7H7V10C7 10.553 6.552 11 6 11C5.448 11 5 10.553 5 10V7C5 5.897 5.897 5 7 5H17C18.103 5 19 5.897 19 7V10C19 10.553 18.552 11 18 11Z" fill="white"/>
<path d="M21 14C21 14.553 20.552 15 20 15H19V17C19 18.103 18.103 19 17 19H7C5.897 19 5 18.103 5 17V15H4C3.448 15 3 14.553 3 14C3 13.447 3.448 13 4 13H20C20.552 13 21 13.447 21 14Z" fill="white"/>
</g>
<defs>
<clipPath id="clip0_12366_26523">
<rect width="24" height="24" fill="white"/>
</clipPath>
</defs>
</svg>
