<svg width="38" height="38" viewBox="0 0 38 38" fill="none" xmlns="http://www.w3.org/2000/svg">
<g opacity="0.4">
<path d="M16.0349 32.679C22.4737 32.679 27.6934 27.4592 27.6934 21.0202C27.6934 14.5812 22.4737 9.36133 16.0349 9.36133C9.596 9.36133 4.37628 14.5812 4.37628 21.0202C4.37628 27.4592 9.596 32.679 16.0349 32.679Z" fill="#BBEBA5"/>
<path d="M16.2615 32.4525C22.7004 32.4525 27.9201 27.2326 27.9201 20.7936C27.9201 14.3546 22.7004 9.13477 16.2615 9.13477C9.82269 9.13477 4.60297 14.3546 4.60297 20.7936C4.60297 27.2326 9.82269 32.4525 16.2615 32.4525Z" fill="#B5E99C"/>
<path d="M24.7313 28.8104C29.2842 24.2574 29.2842 16.8755 24.7313 12.3224C20.1784 7.76941 12.7967 7.76941 8.24377 12.3224C3.69086 16.8755 3.69086 24.2574 8.24377 28.8104C12.7967 33.3634 20.1784 33.3634 24.7313 28.8104Z" fill="#AEE894"/>
<path d="M24.9579 28.5838C29.5108 24.0308 29.5108 16.6489 24.9579 12.0959C20.405 7.54284 13.0232 7.54284 8.47034 12.0959C3.91743 16.6489 3.91743 24.0308 8.47034 28.5838C13.0232 33.1368 20.405 33.1368 24.9579 28.5838Z" fill="#A8E68C"/>
<path d="M16.9414 31.7718C23.3803 31.7718 28.6 26.552 28.6 20.113C28.6 13.6739 23.3803 8.4541 16.9414 8.4541C10.5026 8.4541 5.28284 13.6739 5.28284 20.113C5.28284 26.552 10.5026 31.7718 16.9414 31.7718Z" fill="#A2E484"/>
<path d="M17.168 31.5452C23.6068 31.5452 28.8265 26.3254 28.8265 19.8864C28.8265 13.4474 23.6068 8.22754 17.168 8.22754C10.7291 8.22754 5.5094 13.4474 5.5094 19.8864C5.5094 26.3254 10.7291 31.5452 17.168 31.5452Z" fill="#9CE27B"/>
<path d="M17.3945 31.3197C23.8334 31.3197 29.0531 26.0998 29.0531 19.6608C29.0531 13.2218 23.8334 8.00195 17.3945 8.00195C10.9557 8.00195 5.73596 13.2218 5.73596 19.6608C5.73596 26.0998 10.9557 31.3197 17.3945 31.3197Z" fill="#96E073"/>
<path d="M17.6212 31.0921C24.0601 31.0921 29.2798 25.8723 29.2798 19.4333C29.2798 12.9943 24.0601 7.77441 17.6212 7.77441C11.1824 7.77441 5.96265 12.9943 5.96265 19.4333C5.96265 25.8723 11.1824 31.0921 17.6212 31.0921Z" fill="#90DE6B"/>
<path d="M26.0911 27.451C30.644 22.898 30.644 15.5161 26.0911 10.9631C21.5382 6.41003 14.1564 6.41003 9.60352 10.9631C5.05061 15.5161 5.0506 22.898 9.60351 27.451C14.1564 32.004 21.5382 32.004 26.0911 27.451Z" fill="#89DD63"/>
<path d="M26.3177 27.2254C30.8706 22.6724 30.8706 15.2905 26.3177 10.7375C21.7648 6.18445 14.383 6.18445 9.83014 10.7375C5.27723 15.2905 5.27723 22.6724 9.83014 27.2254C14.383 31.7784 21.7648 31.7784 26.3177 27.2254Z" fill="#83DB5A"/>
<path d="M26.5442 26.9979C31.0971 22.4449 31.0971 15.063 26.5442 10.5099C21.9913 5.95691 14.6096 5.95691 10.0566 10.5099C5.50373 15.063 5.50373 22.4449 10.0566 26.9979C14.6096 31.5509 21.9913 31.5509 26.5442 26.9979Z" fill="#7DD952"/>
<path d="M26.7709 26.7713C31.3238 22.2183 31.3238 14.8364 26.7709 10.2834C22.218 5.73034 14.8363 5.73035 10.2834 10.2834C5.73047 14.8364 5.73047 22.2183 10.2834 26.7713C14.8363 31.3243 22.218 31.3243 26.7709 26.7713Z" fill="#77D74A"/>
<path d="M26.9975 26.5448C31.5504 21.9917 31.5504 14.6098 26.9975 10.0568C22.4446 5.50378 15.0629 5.50378 10.5099 10.0568C5.95704 14.6098 5.95704 21.9917 10.5099 26.5448C15.0629 31.0978 22.4446 31.0978 26.9975 26.5448Z" fill="#71D542"/>
<path d="M27.2242 26.3182C31.7771 21.7652 31.7771 14.3833 27.2242 9.83024C22.6713 5.27722 15.2895 5.27722 10.7366 9.83024C6.18372 14.3833 6.18372 21.7652 10.7366 26.3182C15.2895 30.8712 22.6713 30.8712 27.2242 26.3182Z" fill="#6AD43A"/>
<path d="M27.4507 26.0907C32.0037 21.5376 32.0037 14.1557 27.4507 9.6027C22.8978 5.04968 15.5161 5.04968 10.9632 9.6027C6.41028 14.1557 6.41028 21.5376 10.9632 26.0907C15.5161 30.6437 22.8978 30.6437 27.4507 26.0907Z" fill="#64D231"/>
<path d="M27.6773 25.8651C32.2302 21.312 32.2302 13.9301 27.6773 9.37712C23.1244 4.82409 15.7427 4.82409 11.1898 9.37712C6.63685 13.9301 6.63685 21.312 11.1898 25.8651C15.7427 30.4181 23.1244 30.4181 27.6773 25.8651Z" fill="#5ED029"/>
<path d="M27.904 25.6375C32.4569 21.0845 32.4569 13.7026 27.904 9.14958C23.3511 4.59656 15.9694 4.59656 11.4164 9.14958C6.86353 13.7026 6.86353 21.0845 11.4164 25.6375C15.9694 30.1906 23.3511 30.1906 27.904 25.6375Z" fill="#58CE21"/>
<path d="M28.1306 25.411C32.6835 20.8579 32.6835 13.476 28.1306 8.92302C23.5776 4.36999 16.1959 4.36999 11.643 8.92301C7.0901 13.476 7.09009 20.8579 11.643 25.411C16.1959 29.964 23.5776 29.964 28.1306 25.411Z" fill="#52CC19"/>
<path d="M28.3572 25.1854C32.9101 20.6324 32.9101 13.2505 28.3572 8.69743C23.8043 4.14441 16.4226 4.1444 11.8697 8.69743C7.31678 13.2505 7.31678 20.6324 11.8697 25.1854C16.4226 29.7384 23.8043 29.7384 28.3572 25.1854Z" fill="#4BCB10"/>
<path d="M28.5838 24.9578C33.1367 20.4048 33.1367 13.0229 28.5838 8.46989C24.0309 3.91687 16.6492 3.91687 12.0962 8.46989C7.54334 13.0229 7.54334 20.4048 12.0963 24.9578C16.6492 29.5109 24.0309 29.5109 28.5838 24.9578Z" fill="#45C908"/>
<path d="M28.8104 24.7323C33.3633 20.1792 33.3633 12.7973 28.8104 8.2443C24.2575 3.69128 16.8757 3.69128 12.3228 8.2443C7.76991 12.7973 7.7699 20.1792 12.3228 24.7323C16.8757 29.2853 24.2575 29.2853 28.8104 24.7323Z" fill="#3FC700"/>
</g>
<path d="M28.8104 24.7323C33.3633 20.1792 33.3633 12.7973 28.8104 8.2443C24.2575 3.69128 16.8757 3.69128 12.3228 8.2443C7.76991 12.7973 7.7699 20.1792 12.3228 24.7323C16.8757 29.2853 24.2575 29.2853 28.8104 24.7323Z" fill="#3FC700"/>
<path d="M34.0627 12.9405C33.4376 10.5553 32.1827 8.36986 30.4334 6.62052C27.7981 3.9851 24.2941 2.53375 20.5671 2.53375C16.8401 2.53375 13.3361 3.9851 10.7007 6.62052C8.9516 8.36967 7.69672 10.555 7.07159 12.9403L6.59686 12.8159C7.24398 10.3465 8.54317 8.08423 10.3538 6.2736C13.0818 3.54543 16.709 2.04297 20.5671 2.04297C24.4252 2.04297 28.0524 3.54543 30.7803 6.2736C32.5911 8.08428 33.8904 10.3467 34.5374 12.8162L34.0627 12.9405Z" fill="#3FC700"/>
<path d="M35.1813 12.6226C35.2985 13.1183 34.9916 13.6154 34.4958 13.7326C34.0001 13.8498 33.503 13.5428 33.3859 13.0471C33.2686 12.5514 33.5756 12.0543 34.0713 11.9371C34.567 11.8198 35.0641 12.1268 35.1813 12.6226Z" fill="#3FC700"/>
<path d="M5.95294 12.6226C5.83571 13.1183 6.14268 13.6154 6.6384 13.7326C7.13417 13.8498 7.63121 13.5428 7.74843 13.0471C7.86562 12.5514 7.55869 12.0543 7.06297 11.9371C6.56716 11.8198 6.07012 12.1268 5.95294 12.6226Z" fill="#3FC700"/>
<path d="M20.5672 30.9304C16.7092 30.9304 13.0819 29.4279 10.3538 26.6998C8.58426 24.9302 7.29988 22.724 6.6394 20.3194L7.11254 20.1895C7.75044 22.5121 8.99137 24.6433 10.7007 26.3529C13.3362 28.9883 16.8402 30.4396 20.5671 30.4396C24.2939 30.4396 27.7979 28.9883 30.4334 26.3529C32.1429 24.6433 33.3836 22.5121 34.0215 20.1897L34.4947 20.3197C33.8343 22.724 32.55 24.9302 30.7803 26.6998C28.0523 29.4279 24.4251 30.9304 20.5672 30.9304Z" fill="#3FC700"/>
<path d="M5.99694 20.5217C5.87431 20.0273 6.17583 19.5269 6.67023 19.4043C7.16464 19.2817 7.66503 19.5832 7.78767 20.0776C7.9103 20.572 7.60883 21.0725 7.11438 21.1951C6.61989 21.3177 6.11953 21.0162 5.99694 20.5217Z" fill="#3FC700"/>
<path d="M35.1374 20.5217C35.2601 20.0273 34.9585 19.5269 34.4641 19.4043C33.9696 19.2817 33.4693 19.5832 33.3467 20.0776C33.2241 20.572 33.5255 21.0725 34.0199 21.1951C34.5144 21.3177 35.0148 21.0162 35.1374 20.5217Z" fill="#3FC700"/>
<path d="M25.4706 11.041L18.4452 18.0666L15.6638 15.2851L13.7303 17.2187L18.4452 21.9338L27.4042 12.9746L25.4706 11.041Z" fill="white"/>
</svg>
