<svg width="37" height="37" viewBox="0 0 37 37" fill="none" xmlns="http://www.w3.org/2000/svg">
<path fill-rule="evenodd" clip-rule="evenodd" d="M22.3616 15.1074H29.1396L30.9916 15.3423C33.0257 15.6002 34.25 17.4897 34.25 19.54V22.6068C34.25 23.2583 33.7168 23.7915 33.0653 23.7915H18.2959C17.6445 23.7915 17.1112 23.2584 17.1112 22.6068V19.54C17.1112 17.4896 18.3333 15.5823 20.3697 15.3423L22.3616 15.1074Z" fill="#E66565"/>
<path fill-rule="evenodd" clip-rule="evenodd" d="M23.3772 14.1187C23.5864 14.7519 24.8942 16.0573 25.6806 16.4128C26.467 16.0573 27.7748 14.7519 27.984 14.1187V12.0029L23.3772 12.003L23.3772 14.1187Z" fill="#FDC28C"/>
<path fill-rule="evenodd" clip-rule="evenodd" d="M29.5739 8.4039L21.6128 8.5196C19.7459 2.74213 26.7818 1.76884 27.596 3.56325C29.6505 3.7091 31.0016 6.03803 29.5739 8.4039Z" fill="#AB6A46"/>
<path fill-rule="evenodd" clip-rule="evenodd" d="M28.485 10.6207C30.0656 10.9852 30.8018 8.00372 28.8777 8.35964C28.8773 7.56356 28.662 6.84448 28.2316 6.36572C27.9591 6.06253 27.5147 6.0038 27.1728 6.22578C26.3885 6.735 24.9555 7.13161 23.5308 6.80761C23.1234 6.71495 22.7162 6.93803 22.575 7.33121C22.4707 7.62159 22.4592 7.94021 22.4834 8.35964C20.5594 8.00372 21.2955 10.9852 22.8762 10.6207C23.5892 14.3686 27.772 14.3686 28.485 10.6207Z" fill="#FDC28C"/>
<path fill-rule="evenodd" clip-rule="evenodd" d="M25.1523 18.2618L23.5414 23.7911H27.8196L26.2088 18.2618L26.864 17.1713C26.9631 16.5346 26.606 16.1086 25.6806 15.9434C24.8951 16.2526 24.5319 16.6646 24.4971 17.1713L25.1523 18.2618Z" fill="#F0C419"/>
<path fill-rule="evenodd" clip-rule="evenodd" d="M25.6807 15.9436C24.8943 15.5881 23.8214 14.7524 23.3773 14.1191L22.2218 15.1072L23.9313 18.2878C24.2266 17.423 24.7919 16.6364 25.6807 15.9436Z" fill="#AF5151"/>
<path fill-rule="evenodd" clip-rule="evenodd" d="M25.6807 15.9436C26.4671 15.5881 27.5401 14.7524 27.9841 14.1191L29.1396 15.1072L27.4301 18.2878C27.1348 17.423 26.5695 16.6364 25.6807 15.9436Z" fill="#AF5151"/>
<path fill-rule="evenodd" clip-rule="evenodd" d="M8.00031 15.1074H14.7783L16.6303 15.3423C18.6645 15.6002 19.8888 17.4897 19.8888 19.54V22.6068C19.8888 23.2583 19.3555 23.7915 18.7041 23.7915H3.93469C3.28325 23.7915 2.74999 23.2584 2.74999 22.6068V19.54C2.74999 17.4896 3.9721 15.5823 6.00846 15.3423L8.00031 15.1074Z" fill="#4CB8DE"/>
<path fill-rule="evenodd" clip-rule="evenodd" d="M9.01599 14.1187C9.22523 14.7519 10.533 16.0573 11.3194 16.4128C12.1058 16.0573 13.4135 14.7519 13.6228 14.1187V12.0029L9.01601 12.003L9.01599 14.1187Z" fill="#FDC28C"/>
<path fill-rule="evenodd" clip-rule="evenodd" d="M15.2127 8.4039L7.2515 8.5196C5.3846 2.74213 12.4205 1.76884 13.2348 3.56325C15.2892 3.7091 16.6404 6.03803 15.2127 8.4039Z" fill="#AB6A46"/>
<path fill-rule="evenodd" clip-rule="evenodd" d="M14.1238 10.6207C15.7044 10.9852 16.4406 8.00372 14.5165 8.35964C14.5161 7.56356 14.3008 6.84448 13.8704 6.36572C13.5979 6.06253 13.1535 6.0038 12.8116 6.22578C12.0273 6.735 10.5943 7.13161 9.16956 6.80761C8.76222 6.71495 8.35494 6.93803 8.21376 7.33121C8.10951 7.62159 8.09795 7.94021 8.1222 8.35964C6.19816 8.00372 6.93432 10.9852 8.51499 10.6207C9.22796 14.3686 13.4108 14.3686 14.1238 10.6207Z" fill="#FDC28C"/>
<path fill-rule="evenodd" clip-rule="evenodd" d="M10.7911 18.2618L9.18025 23.7911H13.4585L11.8476 18.2618L12.5028 17.1713C12.6019 16.5346 12.2448 16.1086 11.3194 15.9434C10.5339 16.2526 10.1707 16.6646 10.136 17.1713L10.7911 18.2618Z" fill="#FF99CC"/>
<path fill-rule="evenodd" clip-rule="evenodd" d="M11.3194 15.9436C10.533 15.5881 9.46004 14.7524 9.01599 14.1191L7.86046 15.1072L9.56997 18.2878C9.8653 17.423 10.4306 16.6364 11.3194 15.9436Z" fill="#4190AB"/>
<path fill-rule="evenodd" clip-rule="evenodd" d="M11.3194 15.9436C12.1058 15.5881 13.1787 14.7524 13.6228 14.1191L14.7783 15.1072L13.0688 18.2878C12.7735 17.423 12.2082 16.6364 11.3194 15.9436Z" fill="#4190AB"/>
<path fill-rule="evenodd" clip-rule="evenodd" d="M15.1809 25.5654H21.959L23.8109 25.8003C25.8451 26.0582 27.0694 27.9477 27.0694 29.9981V33.0649C27.0694 33.7163 26.5361 34.2495 25.8847 34.2495H11.1153C10.4639 34.2495 9.93062 33.7164 9.93062 33.0649V29.9981C9.93062 27.9476 11.1527 26.0403 13.1891 25.8003L15.1809 25.5654Z" fill="#DFDFDF"/>
<path fill-rule="evenodd" clip-rule="evenodd" d="M16.1966 24.5777C16.4059 25.2109 17.7136 26.5163 18.5 26.8718C19.2864 26.5163 20.5942 25.2109 20.8034 24.5777V22.4619L16.1966 22.4619L16.1966 24.5777Z" fill="#FDC28C"/>
<path fill-rule="evenodd" clip-rule="evenodd" d="M22.3933 18.8629L14.4321 18.9786C12.5652 13.2011 19.6011 12.2278 20.4154 14.0222C22.4698 14.1681 23.821 16.497 22.3933 18.8629Z" fill="#AB6A46"/>
<path fill-rule="evenodd" clip-rule="evenodd" d="M21.3044 21.0797C22.885 21.4442 23.6212 18.4627 21.6971 18.8186C21.6967 18.0225 21.4814 17.3035 21.051 16.8247C20.7785 16.5215 20.3341 16.4628 19.9922 16.6848C19.2079 17.194 17.7749 17.5906 16.3502 17.2666C15.9428 17.1739 15.5355 17.397 15.3944 17.7902C15.2901 18.0806 15.2786 18.3992 15.3028 18.8186C13.3788 18.4627 14.1149 21.4442 15.6956 21.0797C16.4086 24.8276 20.5914 24.8276 21.3044 21.0797Z" fill="#FDC28C"/>
<path fill-rule="evenodd" clip-rule="evenodd" d="M17.9718 28.7208L16.3609 34.25H20.6391L19.0282 28.7208L19.6834 27.6303C19.7825 26.9936 19.4255 26.5676 18.5 26.4023C17.7146 26.7116 17.3514 27.1236 17.3166 27.6303L17.9718 28.7208Z" fill="#E35454"/>
<path fill-rule="evenodd" clip-rule="evenodd" d="M18.5 26.4026C17.7136 26.0471 16.6407 25.2114 16.1966 24.5781L15.0411 25.5662L16.7506 28.7468C17.0459 27.882 17.6112 27.0954 18.5 26.4026Z" fill="#C1C1C1"/>
<path fill-rule="evenodd" clip-rule="evenodd" d="M18.5 26.4026C19.2864 26.0471 20.3594 25.2114 20.8034 24.5781L21.9589 25.5662L20.2494 28.7468C19.9541 27.882 19.3888 27.0954 18.5 26.4026Z" fill="#C1C1C1"/>
<path d="M25.1467 30.9961C25.3409 30.9961 25.4983 30.8387 25.4983 30.6445C25.4983 30.4504 25.3409 30.293 25.1467 30.293H22.7547C22.5605 30.293 22.4031 30.4504 22.4031 30.6445C22.4031 30.8387 22.5605 30.9961 22.7547 30.9961H25.1467Z" fill="#BEBEBE"/>
<path fill-rule="evenodd" clip-rule="evenodd" d="M19.0281 29.0719H17.9719C17.8482 29.0719 17.7339 29.0075 17.6701 28.902L17.0155 27.8114C16.9151 27.6451 16.9692 27.4291 17.1354 27.3288C17.3017 27.2284 17.5178 27.2826 17.6174 27.4489L18.1705 28.3688H18.8297L19.3819 27.4489C19.4821 27.2826 19.6982 27.2284 19.8645 27.3288C20.0307 27.4291 20.0849 27.6452 19.9846 27.8114L19.3298 28.902C19.2661 29.0075 19.1518 29.0719 19.0281 29.0719Z" fill="black"/>
<path fill-rule="evenodd" clip-rule="evenodd" d="M14.4315 19.3291C14.2835 19.3291 14.145 19.2346 14.0973 19.0859C13.6156 17.5947 13.6572 16.2917 14.2212 15.2136C14.8108 14.0849 15.8149 13.5078 16.5524 13.2222C18.2027 12.5834 20.0227 12.8113 20.6299 13.6894C21.6319 13.8212 22.496 14.4263 22.967 15.3352C23.545 16.4477 23.4453 17.7998 22.6946 19.0435C22.5943 19.2097 22.3781 19.2632 22.2118 19.1628C22.0457 19.0624 21.9921 18.8464 22.0925 18.6802C22.7136 17.6503 22.8051 16.5496 22.343 15.6589C21.9564 14.9118 21.226 14.4307 20.3903 14.3721C20.2623 14.3625 20.1486 14.2834 20.0952 14.1662C19.8221 13.5649 18.2941 13.302 16.8066 13.8777C15.8303 14.2555 13.6769 15.4985 14.7661 18.8699C14.8262 19.0544 14.7243 19.2522 14.5397 19.3123C14.504 19.324 14.4672 19.3291 14.4315 19.3291Z" fill="black"/>
<path fill-rule="evenodd" clip-rule="evenodd" d="M15.4847 25.6485L16.7165 27.9417C16.9985 27.4092 17.3859 26.9171 17.8745 26.4703C17.249 26.1018 16.5795 25.5636 16.1496 25.0802L15.4847 25.6485ZM16.7503 29.0982C16.6221 29.0982 16.5026 29.0272 16.4404 28.9129L14.7309 25.7319C14.6526 25.5863 14.687 25.4061 14.8122 25.2984L15.968 24.3103C16.0435 24.2459 16.1423 24.2159 16.2404 24.2284C16.3387 24.2408 16.4272 24.2943 16.4843 24.3756C16.8828 24.9446 17.8928 25.7415 18.645 26.0814C18.757 26.1326 18.8347 26.2381 18.8493 26.3604C18.864 26.4827 18.8134 26.6036 18.716 26.6791C17.9016 27.314 17.3676 28.0274 17.0827 28.8602C17.038 28.992 16.9186 29.0851 16.7795 29.0968C16.7692 29.0975 16.7597 29.0982 16.7503 29.0982Z" fill="black"/>
<path fill-rule="evenodd" clip-rule="evenodd" d="M15.6956 20.7274C15.763 20.7274 15.8296 20.7472 15.8874 20.7845C15.9674 20.8372 16.0229 20.9193 16.0405 21.0138C16.395 22.8771 17.5874 23.5384 18.5 23.5384C19.4126 23.5384 20.6042 22.8771 20.9587 21.0138C20.9771 20.9193 21.0319 20.8373 21.1125 20.7845C21.1924 20.7325 21.2905 20.715 21.3835 20.7369C21.8407 20.8416 22.1298 20.5428 22.2624 20.3546C22.502 20.0147 22.5693 19.5599 22.4155 19.3204C22.2836 19.1153 21.987 19.1219 21.7614 19.1637C21.6589 19.1827 21.5527 19.1549 21.4721 19.0882C21.3924 19.0215 21.3461 18.9227 21.3454 18.818C21.3455 18.0818 21.1477 17.4571 20.7895 17.0587C20.6344 16.8858 20.3793 16.8522 20.1838 16.9789C19.3211 17.5391 17.777 17.9508 16.2719 17.6087C16.0369 17.5553 15.8068 17.6813 15.7248 17.9083C15.6486 18.1199 15.6289 18.3697 15.6537 18.7975C15.6597 18.9058 15.6164 19.0099 15.5351 19.0816C15.4539 19.1527 15.3447 19.1835 15.2385 19.1637C15.0129 19.1219 14.7155 19.1153 14.5844 19.3204C14.4306 19.5599 14.498 20.0148 14.7375 20.3546C14.8702 20.5428 15.1601 20.8417 15.6164 20.7369C15.6429 20.7303 15.6691 20.7274 15.6956 20.7274ZM18.5001 24.2416C17.7837 24.2416 17.0849 23.9589 16.5326 23.4447C16.0069 22.9554 15.6259 22.2743 15.4201 21.4613C14.9324 21.4569 14.4789 21.2093 14.1625 20.7596C13.751 20.1751 13.6806 19.4274 13.9926 18.941C14.1179 18.7447 14.3947 18.4569 14.9404 18.4378C14.9433 18.1632 14.9755 17.9142 15.0634 17.6703C15.2635 17.1129 15.85 16.7914 16.4279 16.9232C17.7325 17.2198 19.0624 16.8683 19.8007 16.3893C20.2886 16.0728 20.9243 16.1564 21.3124 16.5892C21.719 17.0411 21.9694 17.6879 22.0331 18.4371C22.5964 18.4474 22.8798 18.7418 23.0073 18.941C23.3194 19.4273 23.249 20.1752 22.8373 20.7596C22.5211 21.2093 22.0676 21.4569 21.5798 21.4613C21.374 22.2742 20.9924 22.9554 20.4672 23.4447C19.9144 23.9588 19.2162 24.2416 18.5001 24.2416Z" fill="black"/>
<path fill-rule="evenodd" clip-rule="evenodd" d="M16.1966 24.9294C16.0025 24.9294 15.8449 24.772 15.8449 24.5779V22.4619C15.8449 22.2678 16.0024 22.1104 16.1965 22.1104C16.3906 22.1103 16.548 22.2678 16.548 22.4619L16.5481 24.5779C16.5481 24.7719 16.3906 24.9294 16.1966 24.9294Z" fill="black"/>
<path fill-rule="evenodd" clip-rule="evenodd" d="M20.8034 24.9294C20.6093 24.9294 20.4519 24.772 20.4519 24.5779L20.4519 22.4619C20.4519 22.2678 20.6093 22.1104 20.8034 22.1104C20.9976 22.1103 21.155 22.2678 21.155 22.4619L21.1551 24.5779C21.1551 24.7719 20.9975 24.9294 20.8034 24.9294Z" fill="black"/>
<path fill-rule="evenodd" clip-rule="evenodd" d="M19.1255 26.4702C19.6141 26.9171 20.0007 27.4093 20.2827 27.9417L21.5154 25.6485L20.8504 25.0801C20.4196 25.5635 19.7502 26.1019 19.1255 26.4702ZM20.2497 29.0982C20.2402 29.0982 20.2307 29.0975 20.2204 29.0968C20.0813 29.085 19.9619 28.9921 19.9165 28.8602C19.6367 28.0391 19.0866 27.3053 18.2839 26.6791C18.1865 26.6036 18.1359 26.4828 18.1506 26.3605C18.1652 26.2381 18.2429 26.1327 18.3549 26.0814C19.1072 25.7415 20.1164 24.9447 20.5156 24.3756C20.5727 24.2943 20.6606 24.2408 20.7595 24.2284C20.8577 24.2159 20.9565 24.246 21.0319 24.3104L22.1877 25.2984C22.313 25.4061 22.3474 25.5863 22.269 25.732L20.5589 28.9129C20.4974 29.0272 20.3779 29.0983 20.2497 29.0982Z" fill="black"/>
<path fill-rule="evenodd" clip-rule="evenodd" d="M16.3606 34.6017C16.3284 34.6017 16.2953 34.5974 16.2624 34.5879C16.0756 34.5336 15.9687 34.3381 16.0229 34.1521L17.6343 28.6222C17.6885 28.4362 17.8833 28.3286 18.07 28.3835C18.2562 28.4377 18.3637 28.6325 18.3095 28.8193L16.6982 34.349C16.6536 34.5021 16.5129 34.6018 16.3606 34.6017Z" fill="black"/>
<path fill-rule="evenodd" clip-rule="evenodd" d="M20.6387 34.6017C20.4864 34.6017 20.3464 34.5021 20.3017 34.3491L18.6904 28.8192C18.6362 28.6324 18.7431 28.4377 18.9299 28.3835C19.1168 28.3286 19.3115 28.4362 19.3657 28.6223L20.9772 34.152C21.0314 34.3381 20.9235 34.5336 20.7375 34.5878C20.7046 34.5974 20.6716 34.6018 20.6387 34.6017Z" fill="black"/>
<path fill-rule="evenodd" clip-rule="evenodd" d="M25.1467 30.9951H22.7545C22.5606 30.9951 22.403 30.8377 22.403 30.6436C22.403 30.4495 22.5604 30.292 22.7545 30.292L25.1467 30.292C25.3415 30.292 25.4982 30.4495 25.4982 30.6436C25.4982 30.8376 25.3414 30.9951 25.1467 30.9951Z" fill="black"/>
<path fill-rule="evenodd" clip-rule="evenodd" d="M25.885 34.6016H11.1149C10.2675 34.6016 9.57826 33.9124 9.57826 33.0657L9.57837 29.9983C9.57837 27.6077 11.079 25.6953 13.1473 25.4514L15.1395 25.2163C15.3315 25.1936 15.5072 25.3313 15.5299 25.5247C15.5527 25.7173 15.4142 25.8916 15.2215 25.9143L13.2294 26.1494C11.2944 26.3779 10.2814 28.2588 10.2814 29.9983V33.0657C10.2814 33.5249 10.6549 33.8985 11.1149 33.8985H25.885C26.3441 33.8985 26.7184 33.5249 26.7184 33.0657L26.7185 29.9983C26.7185 27.9527 25.5048 26.3692 23.7667 26.1495L21.9144 25.9143C21.722 25.8901 21.5856 25.7136 21.6105 25.521C21.6348 25.3284 21.8104 25.1922 22.0031 25.2171L23.8554 25.4514C24.9211 25.5869 25.8307 26.1289 26.4862 27.0188C27.0892 27.8376 27.4215 28.896 27.4215 29.9983L27.4216 33.0657C27.4216 33.9123 26.7323 34.6016 25.885 34.6016Z" fill="black"/>
<path fill-rule="evenodd" clip-rule="evenodd" d="M11.8475 18.6129H10.7905C10.6676 18.6129 10.5532 18.5485 10.4894 18.443L9.83402 17.3524C9.7343 17.1854 9.78776 16.9701 9.95479 16.8698C10.1211 16.7694 10.3371 16.8236 10.4367 16.9899L10.9897 17.9098H11.6483L12.2011 16.9899C12.3015 16.8236 12.5168 16.7694 12.6838 16.8698C12.8501 16.9701 12.9042 17.1855 12.8039 17.3524L12.1484 18.443C12.0855 18.5484 11.9704 18.6129 11.8475 18.6129Z" fill="black"/>
<path fill-rule="evenodd" clip-rule="evenodd" d="M7.25067 8.87004C7.1027 8.87004 6.96429 8.77562 6.91666 8.62694C6.43478 7.13574 6.47577 5.83274 7.03969 4.75461C7.63005 3.62593 8.63348 3.04807 9.37174 2.76318C11.022 2.12447 12.8412 2.35227 13.4492 3.23044C14.4504 3.36226 15.3154 3.96727 15.7863 4.87621C16.3635 5.98876 16.2646 7.3408 15.5139 8.58446C15.4137 8.75072 15.1974 8.80418 15.0312 8.70384C14.8651 8.60348 14.8114 8.38744 14.9118 8.2212C15.533 7.19136 15.6244 6.09058 15.1623 5.19993C14.7749 4.45278 14.0453 3.97167 13.2096 3.91233C13.0808 3.90353 12.9679 3.82445 12.9145 3.70725C12.6413 3.10516 11.1135 2.84299 9.6259 3.41869C8.64963 3.79657 6.49626 5.03954 7.58537 8.41015C7.64554 8.5954 7.5436 8.7932 7.35903 8.85326C7.32319 8.86493 7.28655 8.8701 7.25067 8.87004Z" fill="black"/>
<path fill-rule="evenodd" clip-rule="evenodd" d="M8.30389 15.1895L9.53591 17.482C9.81787 16.9503 10.2053 16.4581 10.6938 16.0113C10.0684 15.6429 9.39886 15.1046 8.96891 14.6212L8.30389 15.1895ZM9.56952 18.6385C9.44065 18.6385 9.32121 18.5682 9.25969 18.4539L7.55029 15.273C7.47185 15.1272 7.50552 14.9471 7.63153 14.8395L8.78741 13.8514C8.86205 13.7869 8.96087 13.7569 9.05974 13.7694C9.15802 13.7818 9.24649 13.8353 9.30365 13.9166C9.70218 14.4857 10.7121 15.2825 11.4643 15.6224C11.5764 15.6736 11.654 15.7791 11.6679 15.9015C11.6827 16.0237 11.6327 16.1446 11.5353 16.2201C10.732 16.8462 10.1825 17.5802 9.90204 18.4012C9.85742 18.533 9.73796 18.6261 9.59809 18.6378C9.58864 18.6385 9.57901 18.6385 9.56952 18.6385Z" fill="black"/>
<path fill-rule="evenodd" clip-rule="evenodd" d="M8.51483 10.2687C8.58222 10.2687 8.64886 10.2885 8.70673 10.3259C8.78657 10.3779 8.84219 10.4607 8.85978 10.5544C9.21439 12.4184 10.4059 13.0798 11.3193 13.0798C12.2319 13.0798 13.4235 12.4184 13.778 10.5544C13.7963 10.4606 13.8512 10.3779 13.9318 10.3259C14.0117 10.2739 14.1098 10.2563 14.2028 10.2776C14.6599 10.383 14.9492 10.0835 15.0817 9.89599C15.3214 9.55606 15.3886 9.1013 15.2348 8.86106C15.103 8.65669 14.8063 8.66331 14.5807 8.70506C14.4783 8.72408 14.372 8.69628 14.2915 8.62961C14.2116 8.56293 14.1647 8.46408 14.1647 8.35936C14.1648 7.62326 13.967 6.9985 13.6088 6.60008C13.4529 6.42718 13.1987 6.39353 13.0031 6.52024C12.1403 7.08051 10.5957 7.49215 9.09123 7.15012C8.85546 7.09666 8.6254 7.22262 8.54412 7.44967C8.46803 7.66133 8.44816 7.91112 8.47233 8.33885C8.47907 8.4465 8.435 8.55126 8.35442 8.62301C8.27324 8.69402 8.164 8.72483 8.05776 8.70506C7.83225 8.66329 7.53486 8.65671 7.40373 8.86106C7.25003 9.10121 7.3173 9.55612 7.5568 9.89599C7.6887 10.0842 7.97866 10.383 8.43572 10.2776C8.46143 10.2717 8.48846 10.2688 8.51483 10.2687ZM11.3193 13.7829C10.6029 13.7829 9.90421 13.5002 9.35195 12.9861C8.82612 12.4968 8.44521 11.8156 8.2387 11.0027C7.75165 10.9983 7.29828 10.75 6.98183 10.301C6.57023 9.71648 6.49991 8.96799 6.81194 8.48167C6.93723 8.28607 7.21332 7.99825 7.75968 7.97849C7.76269 7.7045 7.79483 7.45555 7.88199 7.21164C8.08273 6.65425 8.66935 6.33274 9.24723 6.46457C10.5517 6.76113 11.881 6.40964 12.62 5.93063C13.1072 5.61349 13.7436 5.69772 14.1318 6.12986C14.5383 6.5825 14.7888 7.22922 14.8518 7.97776C15.4158 7.98868 15.6992 8.28319 15.8266 8.48167C16.1379 8.96799 16.0683 9.71655 15.6567 10.301C15.3403 10.7499 14.8862 10.9983 14.3991 11.0027C14.1933 11.8156 13.8117 12.4968 13.2865 12.9861C12.7336 13.5002 12.0356 13.7829 11.3193 13.7829Z" fill="black"/>
<path fill-rule="evenodd" clip-rule="evenodd" d="M9.01581 14.4704C8.82185 14.4704 8.66423 14.313 8.66423 14.1189L8.66429 12.0029C8.66429 11.8081 8.82171 11.6514 9.01579 11.6514C9.20993 11.6514 9.36738 11.8081 9.36738 12.0029L9.36749 14.1188C9.36749 14.313 9.20987 14.4705 9.01581 14.4704Z" fill="black"/>
<path fill-rule="evenodd" clip-rule="evenodd" d="M13.6228 14.4704C13.4287 14.4704 13.2712 14.313 13.2712 14.1189L13.2713 12.0029C13.2713 11.8081 13.4286 11.6514 13.6227 11.6514C13.8169 11.6514 13.9743 11.8081 13.9743 12.0029L13.9743 14.1188C13.9743 14.313 13.8168 14.4705 13.6228 14.4704Z" fill="black"/>
<path fill-rule="evenodd" clip-rule="evenodd" d="M13.0691 18.6385C13.0589 18.6385 13.0493 18.6385 13.0397 18.6378C12.9007 18.626 12.7812 18.5331 12.7358 18.4012C12.4553 17.5801 11.9059 16.8463 11.1032 16.2201C11.0059 16.1446 10.9552 16.0238 10.9699 15.9015C10.9846 15.7791 11.0622 15.6737 11.1742 15.6224C11.9266 15.2826 12.9357 14.4857 13.3349 13.9166C13.3921 13.8352 13.4799 13.7818 13.5788 13.7694C13.677 13.7569 13.7758 13.787 13.8512 13.8514L14.9499 14.7903C15.0973 14.9171 15.1147 15.139 14.9887 15.2862C14.8621 15.4342 14.6401 15.451 14.4929 15.325L13.6696 14.6212C13.239 15.1046 12.5695 15.6429 11.9448 16.0113C12.4333 16.458 12.82 16.9503 13.102 17.482L13.9488 15.908C14.0402 15.7367 14.2541 15.6729 14.4247 15.7645C14.5954 15.8568 14.6598 16.0699 14.5676 16.2406L13.3781 18.454C13.3166 18.5682 13.1972 18.6385 13.0691 18.6385Z" fill="black"/>
<path fill-rule="evenodd" clip-rule="evenodd" d="M9.17995 24.1428C9.14765 24.1428 9.11468 24.1384 9.08171 24.1289C8.89502 24.0746 8.78801 23.8791 8.8422 23.6931L10.4537 18.1633C10.5079 17.9772 10.7026 17.8696 10.8893 17.9245C11.0754 17.9787 11.1823 18.1735 11.1281 18.3603L9.51762 23.8893C9.47296 24.0432 9.33222 24.1428 9.17995 24.1428Z" fill="black"/>
<path fill-rule="evenodd" clip-rule="evenodd" d="M13.458 24.1428C13.3058 24.1428 13.1657 24.0432 13.121 23.8894L11.5098 18.3603C11.4556 18.1735 11.5624 17.9787 11.7492 17.9245C11.9353 17.8695 12.1308 17.9772 12.185 18.1633L13.7957 23.6931C13.8506 23.8791 13.7428 24.0747 13.5568 24.1289C13.5239 24.1383 13.4909 24.1428 13.458 24.1428Z" fill="black"/>
<path fill-rule="evenodd" clip-rule="evenodd" d="M16.1966 24.1427H3.93351C3.08698 24.1427 2.39763 23.4534 2.39763 22.6068V19.5394C2.39763 17.148 3.89834 15.2357 5.96671 14.9925L7.95898 14.7573C8.15163 14.7347 8.32656 14.8724 8.34857 15.065C8.37211 15.2583 8.23359 15.4327 8.04095 15.4554L6.04883 15.6905C4.1138 15.919 3.10074 17.7991 3.10074 19.5394L3.1008 22.6068C3.1008 23.066 3.47426 23.4395 3.93349 23.4395L16.1966 23.4395C16.3906 23.4395 16.548 23.597 16.548 23.7911C16.5481 23.9851 16.3906 24.1427 16.1966 24.1427Z" fill="black"/>
<path fill-rule="evenodd" clip-rule="evenodd" d="M26.2087 18.6129H25.1525C25.0288 18.6129 24.9145 18.5485 24.8507 18.443L24.196 17.3524C24.0957 17.1854 24.1498 16.9701 24.3161 16.8698C24.4831 16.7694 24.6984 16.8236 24.7988 16.9899L25.3511 17.9098H26.0103L26.5632 16.9899C26.6629 16.8236 26.8788 16.7694 27.0451 16.8698C27.2115 16.9701 27.2655 17.1855 27.1652 17.3524L26.5104 18.443C26.4468 18.5484 26.3324 18.6129 26.2087 18.6129Z" fill="black"/>
<path fill-rule="evenodd" clip-rule="evenodd" d="M21.6127 8.87004C21.4641 8.87004 21.3263 8.77562 21.2779 8.62694C20.7961 7.13574 20.8378 5.83274 21.4017 4.75461C21.9914 3.62593 22.9955 3.04882 23.733 2.76318C25.3832 2.12447 27.2033 2.35227 27.8104 3.23044C28.8124 3.36226 29.6766 3.96727 30.1484 4.87621C30.7255 5.98876 30.6259 7.3408 29.8752 8.58446C29.7748 8.75072 29.5587 8.80418 29.3925 8.70384C29.2262 8.60348 29.1728 8.38744 29.2731 8.2212C29.8943 7.19136 29.9858 6.09058 29.5236 5.19993C29.1369 4.45278 28.4067 3.97167 27.5717 3.91233C27.4428 3.90353 27.3292 3.82445 27.2758 3.70725C27.0033 3.10591 25.4755 2.84299 23.9872 3.41869C23.011 3.79657 20.8576 5.03954 21.9467 8.41015C22.0069 8.5954 21.9049 8.7932 21.7204 8.85326C21.6845 8.86493 21.6486 8.8701 21.6127 8.87004Z" fill="black"/>
<path fill-rule="evenodd" clip-rule="evenodd" d="M23.9309 18.6385C23.8027 18.6385 23.6833 18.5682 23.6218 18.4539L22.6506 16.647C22.5584 16.4757 22.6228 16.2625 22.7934 16.171C22.9641 16.0787 23.1779 16.1424 23.2695 16.3138L23.898 17.482C24.1799 16.9495 24.5666 16.4581 25.0551 16.0113C24.4304 15.6429 23.761 15.1046 23.3303 14.6212L22.5628 15.2774C22.4156 15.4033 22.1936 15.3858 22.0676 15.2386C21.941 15.0906 21.9584 14.8687 22.1064 14.7427L23.1487 13.8514C23.2241 13.7869 23.3229 13.7569 23.4211 13.7694C23.5201 13.7818 23.6079 13.8353 23.665 13.9166C24.0643 14.4857 25.0735 15.2825 25.8257 15.6224C25.9378 15.6736 26.0154 15.7791 26.03 15.9015C26.0448 16.0237 25.9941 16.1446 25.8967 16.2201C25.0824 16.855 24.5483 17.5685 24.2641 18.4012C24.2188 18.533 24.0993 18.6261 23.9602 18.6378C23.9501 18.6385 23.9404 18.6385 23.9309 18.6385Z" fill="black"/>
<path fill-rule="evenodd" clip-rule="evenodd" d="M22.8762 10.2687C22.9436 10.2687 23.0102 10.2885 23.0681 10.3259C23.148 10.3779 23.2036 10.4607 23.2211 10.5544C23.5765 12.4184 24.768 13.0798 25.6806 13.0798C26.5934 13.0798 27.7856 12.4184 28.1401 10.5544C28.1578 10.4606 28.2133 10.3779 28.2932 10.3259C28.3732 10.2739 28.4711 10.2563 28.5642 10.2776C29.0213 10.383 29.3105 10.0835 29.4431 9.89599C29.6826 9.55606 29.7499 9.1013 29.5962 8.86106C29.4644 8.65669 29.1677 8.66331 28.9421 8.70506C28.8397 8.72408 28.7333 8.69628 28.6535 8.62961C28.573 8.56293 28.5268 8.46408 28.5268 8.35936C28.5261 7.62326 28.3283 6.9985 27.9702 6.60008C27.815 6.42718 27.56 6.39353 27.3645 6.52024C26.5017 7.08051 24.9577 7.49215 23.4526 7.15012C23.2175 7.09666 22.9875 7.22262 22.9055 7.44967C22.8294 7.66133 22.8095 7.91112 22.8344 8.33885C22.8403 8.4465 22.7971 8.55126 22.7158 8.62301C22.6353 8.69402 22.5253 8.72483 22.4191 8.70506C22.1937 8.66329 21.8969 8.65671 21.7651 8.86106C21.6114 9.10121 21.6787 9.55612 21.9182 9.89599C22.0508 10.0842 22.3408 10.383 22.7971 10.2776C22.8235 10.2717 22.8498 10.2688 22.8762 10.2687ZM25.6807 13.7829C24.9643 13.7829 24.2663 13.5002 23.7133 12.9861C23.1882 12.4968 22.8066 11.8156 22.6008 11.0027C22.1131 10.9983 21.6596 10.75 21.3432 10.301C20.9317 9.71648 20.8613 8.96799 21.1733 8.48167C21.2987 8.28607 21.5754 7.99825 22.121 7.97849C22.1248 7.7045 22.1562 7.45555 22.2441 7.21164C22.4441 6.65425 23.0307 6.33274 23.6086 6.46457C24.9138 6.76113 26.2431 6.40964 26.9814 5.93063C27.4692 5.61349 28.1049 5.69772 28.4931 6.12986C28.9005 6.5825 29.1501 7.22922 29.2138 7.97776C29.7772 7.98868 30.0605 8.28319 30.188 8.48167C30.5 8.96799 30.4297 9.71655 30.018 10.301C29.7017 10.7499 29.2483 10.9983 28.7605 11.0027C28.5548 11.8156 28.1731 12.4968 27.6479 12.9861C27.0958 13.5002 26.3969 13.7829 25.6807 13.7829Z" fill="black"/>
<path fill-rule="evenodd" clip-rule="evenodd" d="M23.3772 14.4704C23.1831 14.4704 23.0256 14.313 23.0256 14.1189L23.0257 12.0029C23.0257 11.8081 23.1831 11.6514 23.3771 11.6514C23.5713 11.6514 23.7287 11.8081 23.7287 12.0029L23.7287 14.1188C23.7287 14.313 23.5712 14.4705 23.3772 14.4704Z" fill="black"/>
<path fill-rule="evenodd" clip-rule="evenodd" d="M27.9842 14.4704C27.7901 14.4704 27.6325 14.313 27.6325 14.1189L27.6325 12.0029C27.6325 11.8081 27.79 11.6514 27.9841 11.6514C28.1782 11.6514 28.3357 11.8081 28.3357 12.0029L28.3357 14.1188C28.3357 14.313 28.1781 14.4705 27.9842 14.4704Z" fill="black"/>
<path fill-rule="evenodd" clip-rule="evenodd" d="M26.306 16.0113C26.7947 16.458 27.182 16.9496 27.464 17.482L28.6961 15.1895L28.031 14.6212C27.601 15.1046 26.9315 15.6429 26.306 16.0113ZM27.4304 18.6385C27.4209 18.6385 27.4113 18.6385 27.401 18.6378C27.2619 18.626 27.1425 18.5331 27.0978 18.4012C26.8174 17.5801 26.268 16.8463 25.4645 16.2201C25.3672 16.1446 25.3173 16.0238 25.3319 15.9015C25.346 15.7791 25.4235 15.6737 25.5356 15.6224C26.2877 15.2826 27.2977 14.4857 27.6962 13.9166C27.7535 13.8352 27.8419 13.7818 27.9401 13.7694C28.0384 13.7569 28.1371 13.787 28.2125 13.8514L29.3684 14.8394C29.4943 14.9471 29.528 15.1273 29.4496 15.2731L27.7403 18.454C27.6786 18.5682 27.5592 18.6385 27.4304 18.6385Z" fill="black"/>
<path fill-rule="evenodd" clip-rule="evenodd" d="M23.5421 24.1428C23.5091 24.1428 23.4761 24.1384 23.4431 24.1289C23.2571 24.0746 23.1494 23.8791 23.2043 23.6931L24.8149 18.1633C24.8691 17.9772 25.064 17.8696 25.2507 17.9245C25.4375 17.9787 25.5444 18.1735 25.4902 18.3603L23.8791 23.8893C23.8342 24.0432 23.6936 24.1428 23.5421 24.1428Z" fill="black"/>
<path fill-rule="evenodd" clip-rule="evenodd" d="M27.82 24.1428C27.6677 24.1428 27.527 24.0432 27.4823 23.8894L25.8718 18.3603C25.8169 18.1735 25.9244 17.9787 26.1105 17.9245C26.2973 17.8695 26.492 17.9772 26.5462 18.1633L28.1577 23.6931C28.2119 23.8791 28.1048 24.0747 27.9181 24.1289C27.8853 24.1383 27.8522 24.1428 27.82 24.1428Z" fill="black"/>
<path fill-rule="evenodd" clip-rule="evenodd" d="M33.0656 24.1429H20.8034C20.6092 24.1429 20.4518 23.9855 20.4518 23.7914C20.4519 23.5972 20.6092 23.4398 20.8033 23.4398L33.0656 23.4397C33.5255 23.4397 33.8991 23.0663 33.8991 22.607L33.8992 19.5396C33.8992 17.4932 32.6854 15.9105 30.9474 15.69L29.0959 15.4556C28.9032 15.4307 28.7662 15.255 28.7911 15.0624C28.8154 14.8697 28.9918 14.7335 29.1837 14.7577L31.0362 14.9928C32.1017 15.1282 33.0121 15.6695 33.6676 16.5602C34.2704 17.379 34.6022 18.4366 34.6022 19.5397L34.6023 22.607C34.6023 23.4537 33.913 24.1429 33.0656 24.1429Z" fill="black"/>
</svg>
