<svg width="35" height="36" viewBox="0 0 35 36" fill="none" xmlns="http://www.w3.org/2000/svg">
<path fill-rule="evenodd" clip-rule="evenodd" d="M11.3671 10.6912H33.0332C33.5978 10.6912 34.0605 11.1531 34.0605 11.7184V33.8394C34.0605 34.4041 33.5985 34.8667 33.0332 34.8667H11.3671C10.8025 34.8667 10.3398 34.4048 10.3398 33.8394V11.7184C10.3398 11.1531 10.8025 10.6912 11.3671 10.6912Z" fill="#E8E3F0"/>
<path fill-rule="evenodd" clip-rule="evenodd" d="M8.05656 1.1167H23.4677L30.6613 8.31037V30.1944C30.6613 30.809 30.16 31.3096 29.5455 31.3096H8.05656C7.44203 31.3096 6.94141 30.8083 6.94141 30.1944V2.23186C6.94141 1.61732 7.44203 1.1167 8.05656 1.1167Z" fill="#FBF3F3"/>
<path fill-rule="evenodd" clip-rule="evenodd" d="M23.4648 1.1167V7.3485C23.4648 7.87865 23.8973 8.31037 24.4267 8.31037H30.6585L23.4648 1.1167Z" fill="#E8E3F0"/>
<path d="M26.7766 24.9534C27.8573 22.2989 26.5815 19.271 23.927 18.1903C21.2725 17.1095 18.2446 18.3853 17.1638 21.0398C16.0831 23.6943 17.3589 26.7223 20.0134 27.803C22.6679 28.8837 25.6959 27.6079 26.7766 24.9534Z" fill="#05E39C"/>
<path fill-rule="evenodd" clip-rule="evenodd" d="M21.9756 17.801C19.109 17.801 16.7852 20.1249 16.7852 22.9915C16.7852 25.0284 17.9594 26.7919 19.6673 27.6413L21.9749 22.9915V17.801H21.9756Z" fill="#2FB1D4"/>
<path fill-rule="evenodd" clip-rule="evenodd" d="M21.9727 17.801V22.9915H27.1631C27.1631 20.1249 24.8393 17.801 21.9727 17.801Z" fill="#FF5A5A"/>
<path fill-rule="evenodd" clip-rule="evenodd" d="M0.433594 5.87256H13.4449V16.5439H0.433594V5.87256Z" fill="#E8E3F0"/>
<path fill-rule="evenodd" clip-rule="evenodd" d="M4.89062 10.7749H6.93742V14.5275H4.89062V10.7749Z" fill="#FFE177"/>
<path fill-rule="evenodd" clip-rule="evenodd" d="M6.94141 9.46973H8.9882V14.5273H6.94141V9.46973Z" fill="#05E39C"/>
<path fill-rule="evenodd" clip-rule="evenodd" d="M8.98828 7.88843H11.0351V14.5273H8.98828V7.88843Z" fill="#2FB1D4"/>
<path fill-rule="evenodd" clip-rule="evenodd" d="M2.84375 11.9456H4.89055V14.5274H2.84375V11.9456Z" fill="#FF5A5A"/>
<path fill-rule="evenodd" clip-rule="evenodd" d="M14.4905 27.6948C14.4905 27.9275 14.3013 28.1167 14.0686 28.1167H8.98078C8.74805 28.1167 8.55891 27.9275 8.55891 27.6948C8.55891 27.4621 8.74805 27.2729 8.98078 27.2729H14.0686C14.3013 27.2729 14.4905 27.4621 14.4905 27.6948ZM14.4905 25.7724C14.4905 26.0052 14.3013 26.1943 14.0686 26.1943H8.98078C8.74805 26.1943 8.55891 26.0052 8.55891 25.7724C8.55891 25.5397 8.74805 25.3506 8.98078 25.3506H14.0686C14.3013 25.3506 14.4905 25.5397 14.4905 25.7724ZM14.4905 23.8501C14.4905 24.0835 14.3013 24.272 14.0686 24.272H8.98078C8.74805 24.272 8.55891 24.0828 8.55891 23.8501C8.55891 23.6174 8.74805 23.4282 8.98078 23.4282H14.0686C14.3013 23.4282 14.4905 23.6167 14.4905 23.8501ZM14.4905 21.9271C14.4905 22.1598 14.3013 22.3489 14.0686 22.3489H8.98078C8.74805 22.3489 8.55891 22.1598 8.55891 21.9271C8.55891 21.6943 8.74805 21.5052 8.98078 21.5052H14.0686C14.3013 21.5052 14.4905 21.6943 14.4905 21.9271ZM14.4905 20.0047C14.4905 20.2374 14.3013 20.4266 14.0686 20.4266H8.98078C8.74805 20.4266 8.55891 20.2374 8.55891 20.0047C8.55891 19.772 8.74805 19.5828 8.98078 19.5828H14.0686C14.3013 19.5828 14.4905 19.772 14.4905 20.0047ZM26.8683 15.5701H16.0099C15.7772 15.5701 15.588 15.3817 15.588 15.1482C15.588 14.9155 15.7772 14.7264 16.0099 14.7264H26.8683C27.101 14.7264 27.2902 14.9155 27.2902 15.1482C27.2902 15.381 27.101 15.5701 26.8683 15.5701ZM15.588 12.6268C15.588 12.3941 15.7772 12.205 16.0099 12.205H26.8683C27.101 12.205 27.2902 12.3941 27.2902 12.6268C27.2902 12.8596 27.101 13.0487 26.8683 13.0487H16.0099C15.7772 13.0487 15.588 12.8596 15.588 12.6268ZM15.588 10.2341C15.588 10.0014 15.7772 9.81222 16.0099 9.81222H26.8683C27.101 9.81222 27.2902 10.0014 27.2902 10.2341C27.2902 10.4668 27.101 10.656 26.8683 10.656H16.0099C15.7772 10.656 15.588 10.4668 15.588 10.2341ZM15.588 7.78089C15.588 7.54815 15.7772 7.35901 16.0099 7.35901H21.0977C21.3305 7.35901 21.5196 7.54815 21.5196 7.78089C21.5196 8.01362 21.3305 8.20276 21.0977 8.20276H16.0099C15.7772 8.20276 15.588 8.01362 15.588 7.78089ZM10.6113 14.1055H9.40828V9.46979C9.40828 9.45432 9.40758 9.43956 9.40547 9.4255H9.40828V8.31034H10.6113V14.1055ZM8.56453 14.1055H7.36149V9.89167H8.56453V14.1055ZM6.51774 14.1055H5.31398V11.1967H6.51774V14.1055ZM4.47023 14.1055H3.26719V12.3674H4.47023V14.1055ZM11.0332 7.46659H8.98641C8.75367 7.46659 8.56453 7.65573 8.56453 7.88847V9.04792H6.93961C6.70617 9.04792 6.51774 9.23706 6.51774 9.46979V10.3529H4.89211C4.65938 10.3529 4.47023 10.5421 4.47023 10.7748V11.5236H2.84531C2.61258 11.5236 2.42344 11.7128 2.42344 11.9455V14.5274C2.42344 14.7601 2.61258 14.9492 2.84531 14.9492H6.93961H11.0332C11.2666 14.9492 11.4551 14.7601 11.4551 14.5274V7.88847C11.4551 7.65573 11.2666 7.46659 11.0332 7.46659ZM21.9752 27.7595C21.3635 27.7595 20.7792 27.6428 20.242 27.4318L22.2368 23.4128H26.7234C26.509 25.8456 24.4622 27.7595 21.9752 27.7595ZM17.2066 22.9916C17.2066 24.7093 18.12 26.2175 19.4862 27.0571L21.5534 22.8932V18.2434C19.1205 18.4571 17.2066 20.5046 17.2066 22.9916ZM26.7234 22.5697H22.3971V18.2434C24.69 18.4452 26.5216 20.2761 26.7234 22.5697ZM21.9752 17.3792C18.8808 17.3792 16.3629 19.8971 16.3629 22.9916C16.3629 26.086 18.8808 28.6039 21.9752 28.6039C25.0697 28.6039 27.5869 26.086 27.5869 22.9916C27.5869 19.8971 25.0697 17.3792 21.9752 17.3792ZM33.638 33.8394V11.7184C33.638 11.3851 33.3666 11.113 33.0326 11.113H31.0814V30.1937C31.0814 31.0417 30.3916 31.7314 29.5444 31.7314H10.7611V33.8387C10.7611 34.1727 11.0332 34.4441 11.3665 34.4441H33.0326C33.3666 34.4441 33.638 34.1727 33.638 33.8394ZM7.36149 30.1944C7.36149 30.5769 7.67227 30.8884 8.05477 30.8884H29.5444C29.9269 30.8884 30.2377 30.5769 30.2377 30.1944V8.73222H24.4277C23.6648 8.73222 23.044 8.11136 23.044 7.34847V1.53784H8.05477C7.67227 1.53784 7.36149 1.84933 7.36149 2.23183V5.45073H13.4449C13.6777 5.45073 13.8668 5.63987 13.8668 5.87261V16.5439C13.8668 16.7767 13.6777 16.9658 13.4449 16.9658H7.36149V30.1944ZM0.855469 6.29448V16.1221H13.023V6.29448H0.855469ZM23.8877 2.13479L29.6414 7.88776H24.4277C24.1303 7.88776 23.8877 7.64518 23.8877 7.34706V2.13479ZM33.0326 10.2692H31.0814V8.31034C31.0814 8.19854 31.0371 8.09097 30.9577 8.01222L23.764 0.817842C23.6852 0.739092 23.5777 0.694092 23.4659 0.694092H8.05477C7.2075 0.694092 6.51774 1.38386 6.51774 2.23183V5.45073H0.433594C0.200859 5.45073 0.0117188 5.63987 0.0117188 5.87261V16.5439C0.0117188 16.7767 0.200859 16.9658 0.433594 16.9658H6.51774V30.1944C6.51774 31.0424 7.2075 31.7321 8.05477 31.7321H9.91735V33.8394C9.91735 34.6389 10.5677 35.2885 11.3665 35.2885H33.0326C33.8313 35.2885 34.4817 34.6389 34.4817 33.8394V11.7184C34.4817 10.9189 33.8313 10.2692 33.0326 10.2692Z" fill="#222124"/>
</svg>
