<svg width="20" height="26" viewBox="0 0 20 26" fill="none" xmlns="http://www.w3.org/2000/svg">
<path fill-rule="evenodd" clip-rule="evenodd" d="M1.02431 2.41961C0.789757 2.41961 0.599296 2.60924 0.599296 2.84217L0.599313 24.9829C0.599313 25.2155 0.78969 25.4052 1.02429 25.4052L17.1388 25.4051C17.2522 25.4051 17.3588 25.3613 17.4394 25.2811C17.5195 25.2015 17.5632 25.0956 17.5632 24.9829L17.5633 2.84213C17.5633 2.60921 17.3723 2.41964 17.1377 2.41964L1.02431 2.41961ZM17.1388 26.0005H1.02431C0.459447 26.0005 0 25.5437 0 24.983L3.3603e-05 2.84215C3.3603e-05 2.28089 0.459344 1.82427 1.02429 1.82427L17.1377 1.82422C17.7027 1.82422 18.1625 2.28091 18.1625 2.84217L18.1626 24.9829C18.1631 25.2537 18.0564 25.5096 17.8634 25.7019C17.6699 25.8946 17.4124 26.0006 17.1388 26.0005Z" fill="#171717"/>
<path fill-rule="evenodd" clip-rule="evenodd" d="M18.9714 24.1762H17.865C17.6996 24.1762 17.5653 24.0429 17.5653 23.8786C17.5653 23.7142 17.6995 23.5809 17.8649 23.5809H18.9714C19.2087 23.5809 19.4011 23.3897 19.4011 23.1545V1.02206C19.4011 0.786792 19.2086 0.595445 18.9714 0.595445L2.86642 0.595395C2.62975 0.595395 2.43717 0.786827 2.43717 1.02209L2.4372 2.12155C2.4372 2.28599 2.30295 2.41925 2.13753 2.41925C1.97217 2.4192 1.83789 2.286 1.83789 2.1216L1.83792 1.02206C1.83792 0.458523 2.29931 5.02044e-05 2.86635 5.02044e-05L18.9714 0C19.539 0 20.0004 0.458524 20.0004 1.02209V23.1544C20.0004 23.7178 19.539 24.1763 18.9714 24.1762Z" fill="#171717"/>
<path fill-rule="evenodd" clip-rule="evenodd" d="M15.6276 15.2789H6.63952C6.47413 15.2789 6.33984 15.1457 6.33984 14.9813C6.33988 14.8169 6.47406 14.6836 6.63947 14.6836L15.6276 14.6836C15.7931 14.6836 15.9272 14.8169 15.9272 14.9813C15.9273 15.1457 15.7931 15.279 15.6276 15.2789Z" fill="#171717"/>
<path fill-rule="evenodd" clip-rule="evenodd" d="M15.6276 17.0407H6.63952C6.47413 17.0407 6.33984 16.9074 6.33984 16.743C6.33988 16.5786 6.47406 16.4453 6.63947 16.4453L15.6276 16.4453C15.7931 16.4453 15.9272 16.5786 15.9272 16.743C15.9273 16.9074 15.7931 17.0407 15.6276 17.0407Z" fill="#171717"/>
<path fill-rule="evenodd" clip-rule="evenodd" d="M2.4353 17.0515H4.83031V14.6715H2.4353V17.0515ZM4.91202 17.6469H2.35362C2.06802 17.6469 1.83594 17.416 1.83594 17.1323L1.83602 14.5907C1.83602 14.307 2.06795 14.0762 2.35355 14.0762H4.91201C5.19759 14.0762 5.42952 14.307 5.42952 14.5907L5.42958 17.1323C5.42853 17.4166 5.19597 17.6469 4.91202 17.6469Z" fill="#171717"/>
<path fill-rule="evenodd" clip-rule="evenodd" d="M3.34223 16.6502C3.26263 16.6502 3.18668 16.6188 3.13048 16.563L2.72224 16.1577C2.60564 16.0415 2.60561 15.8529 2.72212 15.7367C2.83929 15.6204 3.02906 15.6204 3.14611 15.7367L3.34223 15.9315L4.11941 15.1595C4.23646 15.0432 4.42581 15.0432 4.54286 15.1595C4.65994 15.2757 4.65991 15.4642 4.54286 15.5804L3.55397 16.5629C3.49779 16.6188 3.4218 16.6502 3.34223 16.6502Z" fill="#171717"/>
<path fill-rule="evenodd" clip-rule="evenodd" d="M15.6276 20.6345H6.63952C6.47413 20.6345 6.33984 20.5012 6.33984 20.3368C6.33988 20.1724 6.47406 20.0391 6.63947 20.0391L15.6276 20.0391C15.7931 20.0391 15.9272 20.1724 15.9272 20.3368C15.9273 20.5012 15.7931 20.6345 15.6276 20.6345Z" fill="#171717"/>
<path fill-rule="evenodd" clip-rule="evenodd" d="M15.6276 22.3962H6.63952C6.47413 22.3962 6.33984 22.2629 6.33984 22.0985C6.33988 21.9341 6.47406 21.8008 6.63947 21.8008L15.6276 21.8008C15.7931 21.8008 15.9272 21.9342 15.9272 22.0985C15.9273 22.2629 15.7931 22.3962 15.6276 22.3962Z" fill="#171717"/>
<path fill-rule="evenodd" clip-rule="evenodd" d="M2.4353 22.407H4.83031V20.027H2.4353V22.407ZM4.91202 23.0024H2.35362C2.06802 23.0024 1.83594 22.7714 1.83594 22.4876L1.83602 19.9462C1.83602 19.6625 2.06795 19.4317 2.35355 19.4317L4.91201 19.4316C5.19759 19.4316 5.42952 19.6625 5.42952 19.9462L5.42958 22.4876C5.42853 22.7724 5.19597 23.0024 4.91202 23.0024Z" fill="#171717"/>
<path fill-rule="evenodd" clip-rule="evenodd" d="M3.34223 22.0059C3.26263 22.0059 3.18668 21.9744 3.13048 21.9185L2.72224 21.5133C2.60564 21.397 2.60561 21.2084 2.72212 21.0921C2.83929 20.9758 3.02906 20.9758 3.14611 21.0921L3.34223 21.2869L4.11941 20.5149C4.23646 20.3986 4.42581 20.3987 4.54286 20.515C4.65994 20.6312 4.65991 20.8197 4.54286 20.936L3.55397 21.9185C3.49779 21.9743 3.4218 22.0059 3.34223 22.0059Z" fill="#171717"/>
<path fill-rule="evenodd" clip-rule="evenodd" d="M3.90225 10.8157H2.85034C2.27189 10.8157 1.83594 10.3552 1.83594 9.74465C1.83602 9.7412 1.83594 9.73776 1.83594 9.73431L1.87818 8.52374C1.91244 7.5393 2.69689 6.72912 3.66498 6.6794C3.6973 6.67743 3.73313 6.67669 3.76901 6.67669L5.38488 6.67661L8.26363 4.99659C8.26727 4.99452 8.2709 4.99245 8.27507 4.99049C8.48579 4.87917 8.72242 4.82035 8.96017 4.82035L11.3043 4.82031C11.5192 4.82031 11.7355 4.86893 11.93 4.96083C11.9332 4.96218 11.9363 4.96372 11.9389 4.9652L15.8233 6.95839C16.1297 7.10625 16.3273 7.4192 16.3273 7.75716L16.3274 9.74406C16.3274 10.3346 15.8441 10.8151 15.2495 10.8151L14.1981 10.8151C14.0327 10.8151 13.8985 10.6818 13.8985 10.5174C13.8985 10.353 14.0327 10.2197 14.1981 10.2197L15.2496 10.2197C15.5133 10.2197 15.728 10.0064 15.728 9.74407L15.7282 7.7571C15.7282 7.64541 15.662 7.54188 15.56 7.49335C15.5575 7.49208 15.5548 7.49078 15.5522 7.48943L11.669 5.49664C11.5535 5.44291 11.4311 5.41573 11.3042 5.41573L8.96018 5.4157C8.82242 5.4157 8.68445 5.44953 8.56169 5.51341L5.61791 7.231C5.57155 7.25788 5.51951 7.27205 5.46593 7.27205L3.76904 7.272C3.74516 7.272 3.72167 7.27247 3.69828 7.27386C3.03608 7.30789 2.50075 7.86589 2.47684 8.54435L2.43529 9.74929C2.43681 9.97705 2.56684 10.2203 2.85032 10.2203H3.90225C4.06762 10.2203 4.20184 10.3536 4.20184 10.518C4.20189 10.6824 4.06761 10.8157 3.90225 10.8157Z" fill="#171717"/>
<path fill-rule="evenodd" clip-rule="evenodd" d="M12.101 10.8161H5.99889C5.8335 10.8161 5.69922 10.6828 5.69922 10.5184C5.69925 10.3539 5.83343 10.2207 5.99886 10.2207H12.101C12.2664 10.2207 12.4005 10.354 12.4005 10.5184C12.4006 10.6828 12.2663 10.8161 12.101 10.8161Z" fill="#171717"/>
<path fill-rule="evenodd" clip-rule="evenodd" d="M8.95981 7.27135C8.79441 7.27135 8.66016 7.13811 8.66016 6.97371L8.66017 5.11799C8.66017 4.95356 8.79437 4.82031 8.95979 4.82031C9.12532 4.82031 9.25943 4.95361 9.25943 5.11799L9.25945 6.97366C9.25945 7.13809 9.12522 7.2714 8.95981 7.27135Z" fill="#171717"/>
<path fill-rule="evenodd" clip-rule="evenodd" d="M11.3036 7.27135C11.1381 7.27135 11.0039 7.13811 11.0039 6.97371L11.004 5.11799C11.004 4.95356 11.1381 4.82031 11.3035 4.82031C11.469 4.82031 11.6032 4.95361 11.6032 5.11799L11.6033 6.97366C11.6033 7.13809 11.469 7.2714 11.3036 7.27135Z" fill="#171717"/>
<path fill-rule="evenodd" clip-rule="evenodd" d="M15.2004 7.27313H5.4657C5.30031 7.27313 5.16602 7.13988 5.16602 6.97548C5.16607 6.81106 5.30023 6.67778 5.46565 6.67778L15.2003 6.67773C15.3657 6.67773 15.4999 6.81106 15.4999 6.97548C15.5 7.13987 15.3657 7.27318 15.2004 7.27313Z" fill="#171717"/>
<path fill-rule="evenodd" clip-rule="evenodd" d="M2.47785 9.55529H2.15315C1.98775 9.55529 1.85352 9.42201 1.85352 9.2576C1.85352 9.09316 1.98771 8.9599 2.15315 8.9599H2.47785C2.81434 8.9599 3.08847 8.68769 3.08847 8.35308L3.08857 8.23602H2.31338C2.14801 8.23602 2.01371 8.10274 2.01371 7.93832C2.01374 7.77387 2.14794 7.64062 2.31335 7.64062H3.38821C3.5536 7.64062 3.68775 7.77392 3.68775 7.93832L3.68785 8.35306C3.68785 9.01596 3.14465 9.55529 2.47785 9.55529Z" fill="#171717"/>
<path fill-rule="evenodd" clip-rule="evenodd" d="M16.0265 9.55588H15.1161C14.8195 9.55588 14.5781 9.31605 14.5781 9.02126L14.5781 8.17526C14.5781 7.8804 14.8195 7.64062 15.116 7.64062H16.0265C16.1919 7.64062 16.326 7.77392 16.326 7.93832C16.3261 8.10269 16.1918 8.23602 16.0264 8.23602H15.1774V8.96048H16.0265C16.1919 8.96048 16.326 9.09383 16.326 9.25821C16.3261 9.42262 16.1918 9.55591 16.0265 9.55588Z" fill="#171717"/>
<path fill-rule="evenodd" clip-rule="evenodd" d="M4.95004 9.75161C4.53698 9.75161 4.20084 10.0856 4.20084 10.4962C4.20094 10.9066 4.5369 11.2407 4.94994 11.2407C5.36308 11.2406 5.69956 10.9067 5.69956 10.4962C5.69961 10.0856 5.36297 9.75164 4.95004 9.75161ZM4.95004 11.836C4.20667 11.836 3.60156 11.235 3.60156 10.4962C3.60166 9.75731 4.20657 9.15625 4.94994 9.15625C5.69388 9.15622 6.29884 9.75734 6.29884 10.4962C6.29889 11.235 5.69382 11.836 4.95004 11.836Z" fill="#171717"/>
<path fill-rule="evenodd" clip-rule="evenodd" d="M13.1497 9.75161C12.7362 9.75161 12.4001 10.0856 12.4001 10.4962C12.4002 10.9066 12.7361 11.2407 13.1497 11.2407C13.5628 11.2406 13.8988 10.9067 13.8988 10.4962C13.8988 10.0856 13.5627 9.75164 13.1497 9.75161ZM13.1497 11.836C12.4058 11.836 11.8008 11.235 11.8008 10.4962C11.8009 9.75731 12.4058 9.15625 13.1497 9.15625C13.8931 9.15622 14.4981 9.75734 14.4981 10.4962C14.4981 11.235 13.8931 11.836 13.1497 11.836Z" fill="#171717"/>
<path fill-rule="evenodd" clip-rule="evenodd" d="M9.24321 8.2829H8.67474C8.50923 8.2829 8.375 8.14965 8.375 7.98523C8.3751 7.82083 8.50923 7.68753 8.67464 7.68753L9.24321 7.6875C9.40874 7.6875 9.54285 7.82083 9.54285 7.98523C9.54285 8.14963 9.40865 8.28293 9.24321 8.2829Z" fill="#171717"/>
</svg>
