<svg width="30" height="30" viewBox="0 0 30 30" fill="none" xmlns="http://www.w3.org/2000/svg">
<path d="M14.9963 12.0345C16.6807 12.0345 18.0486 10.6665 18.0486 8.98214C17.8802 4.9345 12.1124 4.9345 11.944 8.98214C11.944 10.6665 13.3119 12.0345 14.9963 12.0345ZM14.9963 6.46065C16.3847 6.46065 17.5178 7.59379 17.5178 8.98214C17.38 12.3254 12.6126 12.3254 12.4748 8.98214C12.4748 7.59379 13.608 6.46065 14.9963 6.46065ZM9.57564 10.3756H10.3209C10.4178 10.6972 10.5454 11.0085 10.7037 11.3046L10.1779 11.8303C9.95846 12.0498 9.95846 12.4071 10.1779 12.6265L11.3519 13.8005C11.5612 14.02 11.9389 14.02 12.1482 13.8005L12.6739 13.2748C12.9699 13.433 13.2813 13.5657 13.6029 13.6576V14.4028C13.6029 14.7142 13.853 14.9643 14.1643 14.9643H15.8283C16.1397 14.9643 16.3898 14.7142 16.3898 14.4028V13.6576C16.7113 13.5606 17.0176 13.433 17.3187 13.2748L17.8496 13.8005C18.0588 14.02 18.4366 14.02 18.6458 13.8005L19.8198 12.6265C20.0393 12.4173 20.0393 12.0396 19.8198 11.8303L19.2941 11.3046C19.4523 11.0085 19.585 10.6972 19.6769 10.3756H20.4221C20.7334 10.3756 20.9836 10.1255 20.9836 9.81412V8.15015C20.9836 7.83879 20.7334 7.58869 20.4221 7.58869H19.6769C19.5799 7.26712 19.4523 6.95576 19.2941 6.65972L19.8198 6.13399C20.0393 5.92471 20.0393 5.547 19.8198 5.33773L18.6458 4.16376C18.4263 3.94428 18.069 3.94428 17.8496 4.16376L17.3187 4.68949C17.0227 4.53126 16.7113 4.39855 16.3898 4.30668V3.56146C16.3898 3.25011 16.1397 3 15.8283 3H14.1643C13.853 3 13.6029 3.25011 13.6029 3.56146V4.30668C13.2813 4.40366 12.9699 4.53126 12.6739 4.68949L12.1431 4.15866C11.9236 3.93917 11.5663 3.93917 11.3468 4.15866L10.1728 5.33262C9.95335 5.55211 9.95335 5.9094 10.1728 6.12888L10.6986 6.65461C10.5403 6.95066 10.4127 7.26202 10.3158 7.58358H9.57054C9.25918 7.58358 9.00908 7.83369 9.00908 8.14504V9.80902C9.00908 10.1255 9.26429 10.3756 9.57564 10.3756ZM9.53991 8.15015C9.53991 8.12973 9.55523 8.11442 9.57564 8.11442H10.525C10.6475 8.11442 10.7496 8.03275 10.7802 7.91535C10.8823 7.50702 11.0457 7.11399 11.2651 6.7516C11.3264 6.64951 11.3111 6.5168 11.2243 6.43003L10.5505 5.76138C10.5352 5.74607 10.5352 5.72565 10.5505 5.71544L11.7245 4.54147C11.7398 4.52616 11.7602 4.53126 11.7705 4.54147L12.4442 5.21012C12.531 5.29689 12.6637 5.31221 12.7658 5.25096C13.1282 5.03148 13.5212 4.87325 13.9295 4.76606C14.0469 4.73543 14.1286 4.62824 14.1286 4.51085V3.56146C14.1286 3.54105 14.1439 3.52573 14.1643 3.52573H15.8283C15.8487 3.52573 15.864 3.54105 15.864 3.56146V4.51085C15.864 4.63335 15.9457 4.73543 16.0631 4.76606C16.4714 4.86814 16.8645 5.03148 17.2269 5.25096C17.3289 5.31221 17.4668 5.29689 17.5484 5.21012L18.2222 4.53637C18.2375 4.52105 18.2579 4.52616 18.2681 4.53637L19.4421 5.71034V5.75627L18.7734 6.43003C18.6867 6.5168 18.6713 6.64951 18.7326 6.7516C18.9521 7.11399 19.1154 7.50702 19.2175 7.91535C19.2481 8.03275 19.3502 8.11442 19.4727 8.11442H20.4221C20.4425 8.11442 20.4578 8.12973 20.4578 8.15015V9.81412C20.4578 9.83454 20.4425 9.84985 20.4221 9.84985H19.4727C19.3502 9.84985 19.243 9.93152 19.2175 10.0489C19.1154 10.4573 18.9521 10.8503 18.7326 11.2127C18.6713 11.3148 18.6867 11.4475 18.7734 11.5342L19.4421 12.2029V12.2488L18.2681 13.4228L18.457 13.6117C18.2885 13.5096 17.7015 12.9022 17.5484 12.7541C17.4616 12.6674 17.3289 12.6521 17.2269 12.7133C16.8594 12.9328 16.4714 13.0961 16.0631 13.1982C15.9457 13.2288 15.864 13.336 15.864 13.4534V14.4028C15.864 14.4232 15.8487 14.4385 15.8283 14.4385H14.1643C14.1439 14.4385 14.1286 14.4232 14.1286 14.4028V13.4534C14.1286 13.3309 14.0469 13.2237 13.9295 13.1982C13.5212 13.0961 13.1282 12.9328 12.7658 12.7133C12.6637 12.6521 12.531 12.6674 12.4442 12.7541L11.7756 13.4228L11.9644 13.6117C11.8215 13.5402 10.6986 12.3917 10.5557 12.2488C10.5403 12.2335 10.5403 12.2131 10.5557 12.2029L11.2243 11.5342C11.3111 11.4475 11.3264 11.3148 11.2651 11.2127C11.0457 10.8503 10.8874 10.4573 10.7802 10.0489C10.7496 9.93152 10.6424 9.84985 10.525 9.84985H9.57564C9.55523 9.84985 9.53991 9.83454 9.53991 9.81412V8.15015ZM20.0035 18.7924C20.0035 18.7975 20.0035 18.7975 20.0035 18.7924V18.7924ZM27.9712 19.6091C27.8947 19.2671 27.7007 18.9711 27.4608 18.7618C27.7722 18.5576 27.9763 18.185 27.9763 17.7665C28.0069 17.5419 27.8538 17.3224 27.6241 17.3224C27.2515 17.3479 26.4093 17.2356 26.0878 17.4602L25.2609 15.8269C24.975 15.2654 24.434 14.9183 23.8419 14.9183H19.0542C18.3753 14.9081 17.7883 15.393 17.528 16.0362H12.7147C12.6382 16.0362 12.5667 16.0413 12.4901 16.0515C12.2298 15.4032 11.6377 14.903 10.9538 14.9183H6.16603C5.57394 14.9183 5.02779 15.2654 4.74195 15.8269L3.91507 17.4602C3.59351 17.2356 2.74621 17.3428 2.3787 17.3224C2.14902 17.3173 2.00099 17.5419 2.03162 17.7665C2.03162 18.185 2.23579 18.5576 2.54204 18.7618C2.31235 18.9609 2.1286 19.2416 2.04183 19.5632C1.85808 20.0532 2.18474 21.1863 2.24089 21.6916V23.9324C2.24089 24.3305 2.54714 24.6572 2.91975 24.6572H4.10393C4.4357 24.6572 4.71643 24.402 4.77768 24.0651H8.29449V26.214C8.29449 26.6478 8.62626 27 9.02949 27H10.3719C10.7394 27 11.0457 26.7091 11.1018 26.3313H19.7432C19.7943 26.7091 20.1005 27 20.4731 27H21.8155C22.2239 27 22.5557 26.6478 22.5557 26.214V24.0651H25.2252C25.2864 24.402 25.562 24.6572 25.8989 24.6572H27.0831C27.4608 24.6572 27.7671 24.3305 27.7671 23.9324V21.6763C27.8181 21.2016 28.1243 20.0787 27.9712 19.6091ZM26.6135 17.8533H27.4404C27.4047 18.1646 27.1699 18.4096 26.8891 18.4096C26.8636 18.4096 26.5829 18.4096 26.5625 18.4045L26.3226 17.9349C26.4093 17.8839 26.5114 17.8533 26.6135 17.8533ZM19.044 15.4543H23.8317C24.2196 15.4543 24.582 15.6891 24.7811 16.0719C24.7811 16.0719 25.7458 17.9707 25.7458 17.9758C25.7713 18.0421 25.9295 18.3382 25.9653 18.4096L25.9602 18.4045H20.3966L19.7075 17.0468C19.4064 16.4547 18.7785 16.0311 18.1099 16.0362C18.3141 15.6738 18.6662 15.4543 19.044 15.4543ZM12.7045 16.5721H18.1354C18.5897 16.5721 19.0133 16.8477 19.243 17.2918C19.585 17.9655 20.2741 19.3233 20.6161 19.9919H10.229C10.377 19.701 10.6884 19.0885 10.8364 18.7975C11.3315 17.9911 11.5561 16.6078 12.7045 16.5721ZM19.4421 21.3292C19.1154 21.4568 18.8755 21.7427 18.7632 22.0744C18.7683 22.054 18.7734 22.0387 18.7836 22.0183C18.7581 22.0846 18.7377 22.151 18.7275 22.2174C18.7377 22.1714 18.7479 22.1204 18.7683 22.0744C18.753 22.1204 18.7377 22.1714 18.7275 22.2174V22.2122H12.1175C11.8623 20.9719 10.1984 20.9311 9.8921 22.1612C9.38168 22.0285 8.92741 21.712 8.60584 21.2986C8.76918 20.7882 9.25918 20.4717 9.79512 20.5074C9.79002 20.5074 9.77981 20.5074 9.77471 20.5023C9.90231 20.5023 10.0299 20.5074 10.1575 20.5074H17.2932H20.9376C21.4991 20.4513 22.0656 20.7422 22.2341 21.3037C21.8513 21.6865 21.4838 22.0183 20.9427 22.1612C20.8202 21.5079 20.0699 21.0893 19.4421 21.3292ZM20.4527 22.4828C20.4323 23.4117 19.243 23.4117 19.2226 22.4879C19.243 21.5589 20.4323 21.5538 20.4527 22.4828ZM11.6122 22.4828C11.5918 23.4117 10.4076 23.4117 10.3821 22.4879C10.4025 21.5589 11.5918 21.5538 11.6122 22.4828ZM4.23664 17.9911C4.23153 17.9758 5.20644 16.0872 5.20644 16.0719C5.4004 15.6891 5.7628 15.4543 6.15582 15.4543H10.9436C11.3876 15.4441 11.7858 15.7809 11.9644 16.2148C11.1273 16.6691 10.8619 17.6236 10.4332 18.4096H4.02736L4.23664 17.9911ZM3.37913 17.8533C3.48121 17.8533 3.57819 17.8839 3.67007 17.94L3.43017 18.4096C3.41996 18.4147 3.12392 18.4147 3.1035 18.4147C2.82277 18.4147 2.58798 18.1697 2.55225 17.8584H3.37913V17.8533ZM4.09882 24.1263H2.91465C2.71558 24.1212 2.77173 23.7895 2.76152 23.6567C2.92486 23.8456 3.14434 23.9885 3.38423 24.0396C3.53736 24.0855 4.03757 24.06 4.20601 24.0651C4.18049 24.1059 4.13966 24.1263 4.09882 24.1263ZM3.61392 23.5393C3.27705 23.5393 3.02694 23.228 2.981 22.9115L2.76152 21.61C2.76152 21.5946 2.75131 21.5793 2.75131 21.564L2.54204 20.3084C2.8636 20.5738 3.23621 20.7678 3.64455 20.8596C3.86403 22.0183 5.4055 22.0489 5.67092 20.9005H8.21282C8.16178 21.0026 8.11073 21.1097 8.08521 21.222H7.73302C7.13583 21.222 6.6101 21.5334 6.41103 21.9877L6.08947 22.738C6.05374 22.8197 6.06395 22.9115 6.11499 22.9881C6.16093 23.0647 6.2477 23.1055 6.33447 23.1055H8.20261L8.27407 23.524H3.61392V23.5393ZM4.14476 20.6402C4.13966 20.2165 4.54799 19.9051 4.89508 20.1195C5.32383 20.3849 5.21154 21.2271 4.65008 21.2271C4.37445 21.2322 4.14476 20.9668 4.14476 20.6402ZM5.68623 20.5074C5.70665 20.6402 5.69644 20.778 5.66582 20.9056C5.69134 20.778 5.69644 20.6402 5.68623 20.5074ZM7.99844 21.9111C8.00355 22.0489 8.08521 22.4521 8.10563 22.59H6.72749L6.89083 22.2071C7.00312 21.9468 7.3451 21.7631 7.72281 21.7631H7.99334C7.99334 21.809 7.99844 21.8601 7.99844 21.9111ZM5.66582 20.3798C5.67603 20.4207 5.68113 20.4666 5.68623 20.5074C5.54332 19.3182 4.00184 19.1855 3.65986 20.3237C3.24132 20.2012 2.84829 19.946 2.57777 19.5989C2.71558 19.2263 3.03204 18.9711 3.38423 18.9405H10.1626C10.0605 19.2008 9.642 19.7673 9.48887 19.997C9.18262 20.0328 8.84574 20.145 8.62116 20.3747H5.66582V20.3798ZM10.3719 26.4743H9.02439C8.73855 26.4641 8.83043 25.9996 8.82022 25.8107C9.21324 26.3926 9.94315 26.362 10.5557 26.3365C10.5199 26.4181 10.4485 26.4743 10.3719 26.4743ZM22.0197 26.2191C22.0197 26.3569 21.9227 26.4743 21.8104 26.4743H20.468C20.3864 26.4743 20.32 26.4181 20.2843 26.3365C20.2996 26.3671 20.6314 26.3313 20.6722 26.3313C21.1724 26.3722 21.7339 26.2599 22.0248 25.8107V26.2191H22.0197ZM22.2851 22.0489C22.2035 22.5644 22.1116 23.08 22.0248 23.5955L21.7747 25.0655C21.7032 25.4943 21.3868 25.8056 21.0244 25.8056H9.82065C9.45314 25.8056 9.13668 25.4943 9.06522 25.0655C8.97845 24.5602 8.76407 23.3046 8.68241 22.8197L8.5497 22.0234C8.9223 22.3603 9.38679 22.6104 9.8819 22.7125C10.1065 24.0191 11.8521 24.0549 12.1175 22.7533H18.7275L18.7224 22.7482C18.702 22.6614 18.6969 22.5746 18.6969 22.4828C18.7224 23.9579 20.6773 24.1825 20.9631 22.7074C21.4531 22.6053 21.9074 22.3552 22.2902 22.0234L22.2851 22.0489ZM22.2137 20.3798C21.938 20.1195 21.5705 20.0276 21.203 19.9919C21.203 19.9919 20.6722 18.9405 20.6671 18.9405L20.6722 18.9456H26.6084C26.9606 18.9762 27.277 19.2365 27.4149 19.604C27.1239 19.9154 26.7666 20.2318 26.3379 20.3288C26.3021 20.2114 26.2562 20.0991 26.1847 19.997V20.0021C25.6743 19.2161 24.5055 19.4866 24.3217 20.3849C24.3268 20.3798 22.2137 20.3798 22.2137 20.3798ZM26.246 20.094C26.2358 20.0685 26.2205 20.0481 26.2052 20.0225C26.2205 20.0481 26.2307 20.0736 26.246 20.094ZM25.8479 20.6402C25.8377 21.416 24.8372 21.416 24.827 20.6402C24.8372 19.8796 25.8223 19.8439 25.8479 20.6402ZM27.2311 23.9324C27.2311 24.0396 27.1648 24.1263 27.078 24.1263H25.8938C25.853 24.1263 25.8121 24.1008 25.7866 24.0651C25.9704 24.0549 26.4604 24.0906 26.6288 24.0345C26.8636 23.9834 27.078 23.8405 27.2311 23.6567V23.9324ZM27.2464 21.564C27.2464 21.5793 27.2362 21.5946 27.2362 21.61L27.0167 22.9115C26.9555 23.2739 26.6901 23.5393 26.3838 23.5393H22.5761L22.6475 23.1208H23.6684C23.8521 23.1259 23.9899 22.9217 23.9134 22.7533L23.5918 22.003C23.4591 21.6865 23.1631 21.4415 22.7853 21.319H22.7904C22.7547 21.1812 22.7037 21.0383 22.6373 20.9158H24.3319C24.5973 22.0642 26.1337 22.0285 26.3583 20.8749C26.7564 20.7729 27.1392 20.5891 27.4557 20.3237L27.2464 21.564ZM22.7343 22.59C22.7547 22.4521 22.8313 22.0489 22.8364 21.9162C23.0814 22.0387 23.1631 22.3705 23.2651 22.59H22.7343ZM24.7556 19.7112C24.7607 19.7112 24.7607 19.7112 24.7556 19.7112V19.7112ZM2.8585 20.5432C2.89933 20.5687 2.93506 20.5891 2.9759 20.6095C2.91465 20.5789 2.8585 20.5483 2.80746 20.5074C2.81767 20.5177 2.83808 20.5279 2.8585 20.5432ZM4.94102 19.5632C4.94612 19.5581 4.94612 19.5632 4.95123 19.5632C4.95123 19.5632 4.95123 19.5632 4.94612 19.5683C4.94102 19.5632 4.94102 19.5632 4.94102 19.5632ZM17.824 24.0345C17.6097 23.5291 17.0227 23.1923 16.3591 23.1923H14.4808C13.8172 23.1923 13.2303 23.5291 13.0159 24.0345L12.6535 24.892C12.5769 25.0604 12.7147 25.2646 12.8985 25.2595H17.9465C18.1303 25.2646 18.2681 25.0604 18.1916 24.892C18.1864 24.892 17.824 24.0345 17.824 24.0345ZM13.2966 24.7286L13.5008 24.2437C13.6335 23.9324 14.0367 23.718 14.4808 23.718H16.3591C16.8032 23.718 17.2064 23.9324 17.334 24.2437L17.5382 24.7286H13.2966Z" fill="#171717"/>
</svg>
