<svg width="20" height="20" viewBox="0 0 20 20" fill="none" xmlns="http://www.w3.org/2000/svg">
<path d="M3.33334 2.5H2.50001C2.03977 2.5 1.66667 2.8731 1.66667 3.33333V15L2.91667 17.5L4.16667 15V3.33333C4.16667 2.8731 3.79357 2.5 3.33334 2.5Z" stroke="#0077CC" stroke-width="1.2" stroke-linejoin="round"/>
<path d="M17.5 10.0011V6.66727C17.5 4.7028 17.5 3.72057 16.8898 3.11028C16.2796 2.5 15.2975 2.5 13.3333 2.5H10.8333C8.86917 2.5 7.88706 2.5 7.27686 3.11028C6.66667 3.72057 6.66667 4.7028 6.66667 6.66727V13.3349C6.66667 15.2993 6.66667 16.2816 7.27686 16.8919C7.79387 17.409 8.57784 17.4879 10 17.5" stroke="#0077CC" stroke-width="1.2" stroke-linecap="round" stroke-linejoin="round"/>
<path d="M10 5.83301H14.1667" stroke="#0077CC" stroke-width="1.2" stroke-linecap="round" stroke-linejoin="round"/>
<path d="M10 9.16699H14.1667" stroke="#0077CC" stroke-width="1.2" stroke-linecap="round" stroke-linejoin="round"/>
<path d="M11.6667 15.8333C11.6667 15.8333 12.9167 16.25 13.75 17.5C13.75 17.5 15 14.1667 18.3333 12.5" stroke="#0077CC" stroke-width="1.2" stroke-linecap="round" stroke-linejoin="round"/>
<path d="M1.66667 5.83301H4.16667" stroke="#0077CC" stroke-width="1.2" stroke-linecap="round" stroke-linejoin="round"/>
</svg>
