<svg width="169" height="141" viewBox="0 0 169 141" fill="none" xmlns="http://www.w3.org/2000/svg">
<path d="M133.56 32.314H113.429C113.429 32.314 112.711 32.314 113.178 31.611C113.886 30.5407 114.886 27.9635 117.471 28.1455C120.43 28.3548 121.062 29.4513 121.062 29.482C121.062 29.482 121.513 27.038 124.031 27.215C126.548 27.3921 127.115 29.3065 127.115 29.3065C127.115 29.3065 128.149 28.2541 129.926 28.785C130.915 29.0814 131.881 30.054 131.697 30.9696C132.523 30.6436 132.479 30.5219 133.359 30.7372C135.254 31.2007 133.56 32.314 133.56 32.314Z" fill="white"/>
<path d="M164.162 131.416C162.669 134.215 160.91 136.754 158.961 139.054H9.93842C9.27458 138.492 8.6352 137.886 8.03277 137.214C2.48501 131.054 0.899043 121.02 0.284462 111.7C-0.135099 105.342 -0.247286 98.8409 1.06505 92.6809C1.87195 88.8918 3.18124 85.3917 4.8578 82.1638C6.4792 79.0399 8.44474 76.1721 10.6315 73.5455C13.0596 70.6281 15.7613 68.0088 18.5721 65.669C19.6816 64.7429 20.8081 63.8619 21.9405 63.0234C31.2028 56.1676 41.3855 51.2202 49.9437 43.0262C55.3008 37.894 59.9143 31.5874 64.669 25.5367C66.5578 23.133 68.4711 20.7669 70.4597 18.5314C73.0537 15.6206 75.7784 12.9327 78.7581 10.6616C87.5085 4.00223 98.1553 1.45393 108.218 3.6042C116.869 5.45628 125.026 10.7682 131.301 18.5314C132.326 19.7982 133.3 21.134 134.217 22.529C134.863 23.5071 135.477 24.5111 136.069 25.5367C136.189 25.7426 136.307 25.9511 136.423 26.157C139.472 31.5758 141.884 37.5649 144.274 43.5116C147.275 50.981 150.28 58.4528 153.281 65.9222C153.737 67.0518 154.189 68.184 154.644 69.3136C156.26 73.3349 157.877 77.3563 159.491 81.375C160.721 84.4324 161.951 87.49 163.177 90.5473C163.606 91.6083 164.031 92.6716 164.458 93.7326C165.956 97.4554 167.464 101.221 168.297 105.259C168.355 105.543 168.412 105.832 168.464 106.123C168.481 106.22 168.498 106.315 168.513 106.41C169.974 114.978 168.038 124.148 164.162 131.416Z" fill="#99D4FF"/>
<path d="M154.953 104.507V93.765H146.522V104.507H144.999V99.5417H138.693V69.3651H131.555V54.8632H128.966V51.2015H111.263V54.8632H108.675V90.1059H103.583V66.7182H101.552V62.1403H97.4417V66.7182H95.2309V62.1403H91.1203V66.7182H89.1655V90.1059H85.4512V71.4927H70.2512V68.0283H63.7234V75.3279H58.1509V90.1045H52.0889V91.8797H51.1735V65.9144H48.6739V62.7421H41.3266V65.9144H38.9206V90.1045H35.5715V97.7001H25.1871V104.507H23.6434V101.231H14.3697V104.507H10.3484V139.054H25.1871V139.053H36.0137H38.9206V139.054H47.4253H51.1735H52.0896V139.053H58.1509V139.054H68.3089H75.8239H85.4512H89.1655H91.5167H96.1808H103.583H108.675H110.02H114.685H120.747H123.972H131.555H141.593V139.053H144.999V139.02H155.961V104.507H154.953Z" fill="#66BFFF"/>
<path d="M158.659 140.184H10.1994C10.036 140.184 9.90218 139.978 9.90218 139.726V139.411C9.90218 139.159 10.036 138.953 10.1994 138.953H158.659C158.822 138.953 158.955 139.159 158.955 139.411V139.726C158.955 139.978 158.822 140.184 158.659 140.184Z" fill="#1E3747"/>
<path d="M140.45 42.9951H128.306C128.306 42.9951 127.873 42.9951 128.155 42.5672C128.582 41.9157 129.185 40.347 130.745 40.458C132.529 40.5854 132.911 41.2527 132.911 41.2715C132.911 41.2715 133.183 39.7839 134.702 39.8915C136.22 39.9991 136.562 41.1646 136.562 41.1646C136.562 41.1646 137.186 40.524 138.258 40.8472C138.854 41.0276 139.437 41.6196 139.326 42.1767C139.824 41.9783 139.798 41.9043 140.329 42.0353C141.472 42.3176 140.45 42.9951 140.45 42.9951Z" fill="white"/>
<path d="M10.7045 86.4028H20.9912C20.9912 86.4028 21.3581 86.4028 21.1194 86.0435C20.7577 85.4965 20.2471 84.1798 18.9256 84.2728C17.4137 84.3797 17.0907 84.9402 17.0907 84.9558C17.0907 84.9558 16.8602 83.7069 15.5739 83.7973C14.2875 83.8875 13.9977 84.8661 13.9977 84.8661C13.9977 84.8661 13.4693 84.3282 12.5612 84.5996C12.0559 84.7509 11.562 85.248 11.6561 85.716C11.2342 85.5493 11.2565 85.4872 10.8069 85.5972C9.83885 85.834 10.7045 86.4028 10.7045 86.4028Z" fill="white"/>
<path d="M100.393 14.6096H109.502C109.502 14.6096 109.827 14.6096 109.616 14.189C109.296 13.5484 108.843 12.0062 107.673 12.1151C106.334 12.2402 106.048 12.8966 106.048 12.9148C106.048 12.9148 105.844 11.4522 104.705 11.5583C103.566 11.6641 103.309 12.81 103.309 12.81C103.309 12.81 102.841 12.1801 102.037 12.4978C101.59 12.6751 101.152 13.2572 101.236 13.8052C100.862 13.61 100.882 13.5372 100.484 13.6662C99.6264 13.9436 100.393 14.6096 100.393 14.6096Z" fill="white"/>
<path d="M95.3156 23.5576V7.97867C95.3156 3.59024 92.9858 -6.10352e-05 90.1383 -6.10352e-05H53.833C50.9853 -6.10352e-05 48.6555 3.59024 48.6555 7.97867V20.6388C48.378 20.7397 48.1695 21.1234 48.1695 21.5804V27.3187C48.1695 27.7757 48.378 28.1597 48.6555 28.2606V33.3486C48.3094 33.3486 48.0263 33.7848 48.0263 34.3183V40.0563C48.0263 40.5898 48.3094 41.026 48.6555 41.026V131.507C48.6555 135.895 50.9853 139.485 53.833 139.485H90.1383C92.9858 139.485 95.3156 135.895 95.3156 131.507V36.8424C95.6382 36.7481 95.8843 36.3103 95.8843 35.7869V24.6131C95.8843 24.0895 95.6382 23.6519 95.3156 23.5576Z" fill="#1E3747"/>
<path d="M94.0261 9.31818C94.0261 5.02516 91.8218 1.5126 89.1277 1.5126H54.7789C52.0848 1.5126 49.8805 5.02516 49.8805 9.31818V130.167C49.8805 134.46 52.0848 137.972 54.7789 137.972H89.1277C91.8218 137.972 94.0261 134.46 94.0261 130.167V9.31818Z" fill="#325B75"/>
<path d="M92.9039 16.7661V10.2599C92.9039 7.96486 91.6826 6.10445 90.1766 6.10445H85.8997H77.319H68.5605H58.0712H53.7946C53.0739 6.10445 52.4181 6.53108 51.9306 7.22704C51.5888 7.71346 51.329 8.33454 51.1876 9.0344C51.1092 9.42125 51.0672 9.83306 51.0672 10.2599V16.7568C51.0672 16.7625 51.067 16.7682 51.067 16.7739V124.212C51.067 124.217 51.0672 124.222 51.0672 124.227V130.726C51.0672 133.021 52.2879 134.881 53.7946 134.881H56.2161C56.2161 134.881 57.4287 134.881 58.0712 134.881H62.4797H90.1766C91.6826 134.881 92.9039 133.021 92.9039 130.726V124.219C92.9039 124.217 92.904 124.214 92.904 124.212V16.7739C92.904 16.7713 92.9039 16.7687 92.9039 16.7661Z" fill="white"/>
<path d="M77.44 3.60034H66.529C66.2739 3.60034 66.0652 3.27875 66.0652 2.88592C66.0652 2.49284 66.2739 2.17125 66.529 2.17125H77.44C77.695 2.17125 77.9036 2.49284 77.9036 2.88592C77.9036 3.27875 77.695 3.60034 77.44 3.60034Z" fill="black"/>
<path d="M81.1157 2.88598C81.1157 3.70933 80.6825 4.37695 80.1482 4.37695C79.6139 4.37695 79.1807 3.70933 79.1807 2.88598C79.1807 2.06263 79.6139 1.39501 80.1482 1.39501C80.6825 1.39501 81.1157 2.06263 81.1157 2.88598Z" fill="black"/>
<path d="M64.6844 2.88591C64.6844 3.43317 64.3965 3.87695 64.0413 3.87695C63.6862 3.87695 63.3983 3.43317 63.3983 2.88591C63.3983 2.33866 63.6862 1.89489 64.0413 1.89489C64.3965 1.89489 64.6844 2.33866 64.6844 2.88591Z" fill="black"/>
<path d="M62.7754 2.88605C62.7754 3.53157 62.4358 4.05518 62.0168 4.05518C61.5979 4.05518 61.2581 3.53157 61.2581 2.88605C61.2581 2.24026 61.5979 1.71694 62.0168 1.71694C62.4358 1.71694 62.7754 2.24026 62.7754 2.88605Z" fill="black"/>
<path d="M91.0139 9.79184H90.554V10.3926H87.0404V8.04999H90.554V8.6508H91.0139V9.79184ZM90.6312 8.53147V7.93092H86.9632V10.5117H90.6312V9.91091H91.0911V8.53147H90.6312Z" fill="black"/>
<path d="M90.1963 7.93092V10.5117H86.9632V7.93092H90.1963Z" fill="black"/>
<path d="M84.5873 9.25436C84.3059 9.25982 84.0496 9.43841 83.8622 9.72335L83.9884 9.91626C84.1433 9.68202 84.3545 9.53539 84.5866 9.53071C84.8186 9.52603 85.029 9.66434 85.1826 9.8926L85.3098 9.69449C85.1239 9.4171 84.8689 9.24864 84.5873 9.25436Z" fill="black"/>
<path d="M84.5854 10.1064C84.4564 10.109 84.3391 10.1896 84.2523 10.3183L84.3788 10.5117C84.4328 10.4329 84.5053 10.3843 84.5846 10.3828C84.6641 10.3812 84.7363 10.427 84.7899 10.5037L84.9174 10.3053C84.8312 10.1797 84.7145 10.1038 84.5854 10.1064Z" fill="black"/>
<path d="M84.5907 8.31474C84.1411 8.32384 83.7321 8.61008 83.4334 9.0666L83.5597 9.25977C83.8259 8.85394 84.1898 8.59916 84.59 8.59136C84.99 8.5833 85.3525 8.82353 85.6165 9.21895L85.7439 9.02085C85.4477 8.57603 85.0404 8.3059 84.5907 8.31474Z" fill="black"/>
<path d="M84.5926 7.3585C83.9718 7.37071 83.4073 7.76718 82.9953 8.39841L83.1215 8.59131C83.5008 8.01078 84.0204 7.64629 84.5919 7.63485C85.1633 7.62367 85.6811 7.96762 86.0569 8.53307L86.1843 8.33523C85.7759 7.72038 85.2134 7.34602 84.5926 7.3585Z" fill="black"/>
<path d="M55.389 48.231H59.9317V41.2306H55.389V48.231ZM60.3706 48.9075H54.9501V40.5541H60.3706V48.9075Z" fill="#0077CC"/>
<path d="M55.1706 38.2367C55.4454 38.7634 55.7044 39.3039 55.9534 39.8527C56.208 40.3966 56.446 40.9547 56.684 41.5126C56.9194 42.0729 57.1515 42.636 57.3752 43.2061C57.6009 43.7745 57.8209 44.3477 58.0353 44.9256L57.3025 44.8864C57.9483 43.2652 58.6271 41.6767 59.3456 40.1275C59.7055 39.3535 60.0748 38.5889 60.4582 37.8381C60.8447 37.0907 61.2349 36.3466 61.6633 35.6405C61.4247 36.5346 61.148 37.3907 60.8675 38.2434C60.5839 39.0928 60.2861 39.9283 59.9789 40.7545C59.3635 42.4057 58.7084 44.0175 58.0201 45.5966L57.6163 46.5232L57.2873 45.5574C57.0866 44.9677 56.8915 44.3734 56.7021 43.7744C56.5106 43.177 56.3276 42.5726 56.1477 41.9655C55.9708 41.3559 55.7936 40.7465 55.6332 40.1231C55.467 39.5043 55.3108 38.8772 55.1706 38.2367Z" fill="#0077CC"/>
<path d="M88.5966 42.3843H62.7744C62.542 42.3843 62.3517 42.0913 62.3517 41.733C62.3517 41.3748 62.542 41.0818 62.7744 41.0818H88.5966C88.8291 41.0818 89.0194 41.3748 89.0194 41.733C89.0194 42.0913 88.8291 42.3843 88.5966 42.3843Z" fill="#0077CC"/>
<path d="M82.3482 47.1431H62.7515C62.5317 47.1431 62.3517 46.8659 62.3517 46.5272V46.4565C62.3517 46.1177 62.5317 45.8403 62.7515 45.8403H82.3482C82.5681 45.8403 82.7479 46.1177 82.7479 46.4565V46.5272C82.7479 46.8659 82.5681 47.1431 82.3482 47.1431Z" fill="#0077CC"/>
<path d="M55.389 62.2098H59.9317V55.2096H55.389V62.2098ZM60.3706 62.8865H54.9501V54.5329H60.3706V62.8865Z" fill="#0077CC"/>
<path d="M55.1706 52.2156C55.4454 52.7426 55.7044 53.2831 55.9534 53.8317C56.208 54.3758 56.446 54.934 56.684 55.4919C56.9194 56.0521 57.1515 56.615 57.3752 57.1851C57.6009 57.7537 57.8209 58.3269 58.0353 58.9049L57.3025 58.8654C57.9483 57.2441 58.6271 55.6559 59.3456 54.1067C59.7055 53.3328 60.0748 52.5679 60.4582 51.8174C60.8447 51.0697 61.2349 50.3259 61.6633 49.6198C61.4247 50.5138 61.148 51.3699 60.8675 52.2224C60.5839 53.072 60.2861 53.9073 59.9789 54.7338C59.3635 56.3849 58.7084 57.9968 58.0201 59.5759L57.6163 60.5024L57.2873 59.5366C57.0866 58.947 56.8915 58.3527 56.7021 57.7537C56.5106 57.1563 56.3276 56.5518 56.1477 55.9445C55.9708 55.3351 55.7936 54.7257 55.6332 54.102C55.467 53.4833 55.3108 52.8562 55.1706 52.2156Z" fill="#0077CC"/>
<path d="M84.5243 61.4553H62.7561C62.5337 61.4553 62.3517 61.1751 62.3517 60.8324V60.7757C62.3517 60.4331 62.5337 60.1528 62.7561 60.1528H84.5243C84.7467 60.1528 84.9285 60.4331 84.9285 60.7757V60.8324C84.9285 61.1751 84.7467 61.4553 84.5243 61.4553Z" fill="#0077CC"/>
<path d="M88.8086 67.8794H55.247C55.1308 67.8794 55.0358 67.733 55.0358 67.5539C55.0358 67.3748 55.1308 67.2281 55.247 67.2281H88.8086C88.9248 67.2281 89.02 67.3748 89.02 67.5539C89.02 67.733 88.9248 67.8794 88.8086 67.8794Z" fill="#0077CC"/>
<path d="M88.7079 72.679H80.0673C79.8957 72.679 79.7555 72.4629 79.7555 72.1985V71.1193C79.7555 70.8549 79.8957 70.6389 80.0673 70.6389H88.7079C88.8793 70.6389 89.0196 70.8549 89.0196 71.1193V72.1985C89.0196 72.4629 88.8793 72.679 88.7079 72.679Z" fill="#0077CC"/>
<path d="M55.389 33.9605H59.9317V26.9601H55.389V33.9605ZM60.3706 34.637H54.9501V26.2836H60.3706V34.637Z" fill="#0077CC"/>
<path d="M55.1706 23.9666C55.4454 24.4933 55.7044 25.0338 55.9534 25.5827C56.208 26.1265 56.446 26.6847 56.684 27.2426C56.9194 27.8029 57.1515 28.366 57.3752 28.9361C57.6009 29.5044 57.8209 30.0777 58.0353 30.6556L57.3025 30.6164C57.9483 28.9951 58.6271 27.4067 59.3456 25.8575C59.7055 25.0835 60.0748 24.3189 60.4582 23.5681C60.8447 22.8207 61.2349 22.0766 61.6633 21.3705C61.4247 22.2646 61.148 23.1207 60.8675 23.9734C60.5839 24.8227 60.2861 25.6583 59.9789 26.4845C59.3635 28.1356 58.7084 29.7475 58.0201 31.3266L57.6163 32.2532L57.2873 31.2874C57.0866 30.6977 56.8915 30.1034 56.7021 29.5044C56.5106 28.907 56.3276 28.3025 56.1477 27.6955C55.9708 27.0859 55.7936 26.4765 55.6332 25.853C55.467 25.2343 55.3108 24.607 55.1706 23.9666Z" fill="#0077CC"/>
<path d="M88.5966 28.1143H62.7744C62.542 28.1143 62.3517 27.8213 62.3517 27.463C62.3517 27.1048 62.542 26.8118 62.7744 26.8118H88.5966C88.8291 26.8118 89.0194 27.1048 89.0194 27.463C89.0194 27.8213 88.8291 28.1143 88.5966 28.1143Z" fill="#0077CC"/>
<path d="M72.0512 32.8728H62.6314C62.4775 32.8728 62.3517 32.6789 62.3517 32.442V32.0011C62.3517 31.764 62.4775 31.5701 62.6314 31.5701H72.0512C72.205 31.5701 72.3309 31.764 72.3309 32.0011V32.442C72.3309 32.6789 72.205 32.8728 72.0512 32.8728Z" fill="#0077CC"/>
<path d="M88.5966 56.5378H62.7744C62.542 56.5378 62.3517 56.2449 62.3517 55.8866C62.3517 55.5284 62.542 55.2354 62.7744 55.2354H88.5966C88.8291 55.2354 89.0194 55.5284 89.0194 55.8866C89.0194 56.2449 88.8291 56.5378 88.5966 56.5378Z" fill="#0077CC"/>
<path d="M74.7197 17.2278H59.443C58.9875 17.2278 58.6146 16.6535 58.6146 15.9513C58.6146 15.2493 58.9875 14.6748 59.443 14.6748H74.7197C75.1752 14.6748 75.5481 15.2493 75.5481 15.9513C75.5481 16.6535 75.1752 17.2278 74.7197 17.2278Z" fill="#0077CC"/>
<path d="M81.7611 17.3083H77.6593C77.4116 17.3083 77.209 16.9961 77.209 16.6147V15.4492C77.209 15.0676 77.4116 14.7554 77.6593 14.7554H81.7611C82.0088 14.7554 82.2114 15.0676 82.2114 15.4492V16.6147C82.2114 16.9961 82.0088 17.3083 81.7611 17.3083Z" fill="#0077CC"/>
<path d="M84.8657 84.0312H59.0435C58.811 84.0312 58.6207 83.7383 58.6207 83.38C58.6207 83.0218 58.811 82.7288 59.0435 82.7288H84.8657C85.0982 82.7288 85.2885 83.0218 85.2885 83.38C85.2885 83.7383 85.0982 84.0312 84.8657 84.0312Z" fill="#0077CC"/>
<path d="M78.6173 88.7896H59.0206C58.8008 88.7896 58.6207 88.5124 58.6207 88.1737V88.1029C58.6207 87.7642 58.8008 87.4871 59.0206 87.4871H78.6173C78.8371 87.4871 79.017 87.7642 79.017 88.1029V88.1737C79.017 88.5124 78.8371 88.7896 78.6173 88.7896Z" fill="#0077CC"/>
<path d="M80.7934 103.103H59.0251C58.8028 103.103 58.6207 102.822 58.6207 102.48V102.423C58.6207 102.08 58.8028 101.8 59.0251 101.8H80.7934C81.0157 101.8 81.1976 102.08 81.1976 102.423V102.48C81.1976 102.822 81.0157 103.103 80.7934 103.103Z" fill="white"/>
<path d="M84.8657 98.1848H59.0435C58.811 98.1848 58.6207 97.8918 58.6207 97.5336C58.6207 97.1753 58.811 96.8823 59.0435 96.8823H84.8657C85.0982 96.8823 85.2885 97.1753 85.2885 97.5336C85.2885 97.8918 85.0982 98.1848 84.8657 98.1848Z" fill="white"/>
<path d="M89.6348 128.406H54.3346C53.4154 128.406 52.67 127.257 52.67 125.841V118.023C52.67 116.606 53.4154 115.457 54.3346 115.457H89.6348C90.5541 115.457 91.2992 116.606 91.2992 118.023V125.841C91.2992 127.257 90.5541 128.406 89.6348 128.406Z" fill="#B8CDDB"/>
<path d="M89.1829 125.939H79.3101C78.725 125.939 78.2464 125.202 78.2464 124.3C78.2464 123.399 78.725 122.661 79.3101 122.661H89.1829C89.7679 122.661 90.2465 123.399 90.2465 124.3C90.2465 125.202 89.7679 125.939 89.1829 125.939Z" fill="#0077CC"/>
<path d="M60.7316 125.939H54.0838C53.8852 125.939 53.7227 125.689 53.7227 125.383V125.016C53.7227 124.71 53.8852 124.46 54.0838 124.46H60.7318C60.9304 124.46 61.0927 124.71 61.0927 125.016V125.383C61.0927 125.689 60.9304 125.939 60.7316 125.939Z" fill="#0077CC"/>
<path d="M30.7448 140.731C30.5182 140.779 28.2062 141.111 27.9727 140.962C27.7392 140.811 26.8871 140.769 26.8633 140.686C26.8523 140.647 26.7813 140.144 26.7341 139.565C26.6836 138.947 26.6598 138.243 26.7668 137.929C26.9745 137.318 26.8964 136.28 26.8707 135.548L29.6847 135.443C29.6847 135.443 30.7838 138.348 30.803 139.423L30.8032 139.428C31.1473 139.767 30.9714 140.684 30.7448 140.731Z" fill="#25475C"/>
<path d="M30.746 140.731C30.5194 140.779 28.2074 141.111 27.9739 140.962C27.7404 140.811 26.8883 140.769 26.8645 140.686C26.8535 140.647 26.7825 140.144 26.7353 139.565C27.126 139.913 27.8054 140.264 27.9732 140.341C28.1838 140.436 30.1245 140.162 30.4349 140.136C30.7451 140.11 30.8261 139.699 30.8044 139.428C31.1485 139.767 30.9726 140.684 30.746 140.731Z" fill="#1E3747"/>
<path d="M29.5177 139.575C29.115 139.608 28.6348 139.569 28.1683 139.381C27.2038 138.99 27.1377 137.766 27.1905 137.368C27.1961 137.326 27.2259 137.297 27.2563 137.304C27.2872 137.311 27.3076 137.351 27.302 137.393C27.2538 137.756 27.3155 138.874 28.2019 139.233C29.1311 139.609 30.1075 139.36 30.3584 139.193C30.3866 139.174 30.4205 139.19 30.434 139.228C30.4473 139.266 30.4355 139.312 30.4071 139.331C30.2553 139.432 29.9267 139.541 29.5177 139.575Z" fill="#1E3747"/>
<path d="M29.7542 137.439C29.7469 137.44 29.7397 137.44 29.7323 137.438C29.5317 137.402 28.7501 137.467 28.5375 137.538C28.4761 137.559 28.4157 137.508 28.4015 137.425C28.3874 137.342 28.4253 137.259 28.4864 137.238C28.7256 137.158 29.5384 137.091 29.7652 137.133C29.8271 137.144 29.8699 137.221 29.8608 137.306C29.8527 137.38 29.8072 137.435 29.7542 137.439Z" fill="#1E3747"/>
<path d="M29.7327 136.81C29.7255 136.811 29.7182 136.811 29.7108 136.809C29.5102 136.773 28.7286 136.838 28.5159 136.909C28.4547 136.929 28.3943 136.879 28.3801 136.796C28.3659 136.713 28.4039 136.63 28.465 136.609C28.7042 136.53 29.517 136.462 29.7437 136.503C29.8056 136.515 29.8483 136.592 29.8394 136.677C29.8313 136.751 29.7857 136.806 29.7327 136.81Z" fill="#1E3747"/>
<path d="M29.5683 136.285C29.5612 136.285 29.5538 136.285 29.5464 136.284C29.3459 136.247 28.5644 136.312 28.3516 136.383C28.2904 136.404 28.2298 136.353 28.2156 136.27C28.2016 136.187 28.2396 136.104 28.3005 136.083C28.5399 136.004 29.3527 135.936 29.5793 135.978C29.6412 135.989 29.684 136.066 29.6749 136.151C29.667 136.225 29.6214 136.28 29.5683 136.285Z" fill="#1E3747"/>
<path d="M45.9116 138.685C45.9131 139.03 45.7073 139.367 45.3528 139.549C44.7403 139.862 42.1034 139.872 41.6208 139.549C41.138 139.225 40.1349 138.83 40.1349 138.83L39.9862 139.062C39.9862 139.062 38.9653 138.889 38.6867 138.889C38.408 138.889 38.074 139.062 38.0185 138.685C37.9848 138.458 37.9708 138.02 37.9778 137.684C37.9824 137.463 37.9957 137.285 38.0185 137.24C38.074 137.125 38.2378 135.219 38.2378 135.219L41.4165 134.17C41.695 134.575 43.0502 136.573 43.4218 136.92C43.7927 137.268 44.9812 137.498 45.5571 137.978C45.8004 138.179 45.9107 138.434 45.9116 138.685Z" fill="#25475C"/>
<path d="M45.9116 138.685C45.9131 139.03 45.7073 139.367 45.3528 139.549C44.7403 139.862 42.1034 139.872 41.6208 139.549C41.138 139.225 40.1349 138.83 40.1349 138.83L39.9862 139.062C39.9862 139.062 39.2976 139.101 39.0189 139.101C38.7404 139.101 38.074 139.062 38.0185 138.685C37.9848 138.458 37.9708 138.02 37.9778 137.684C38.4418 137.612 39.1427 137.674 39.5965 137.836C40.1905 138.048 41.138 138.743 42.0292 139.033C42.9203 139.322 45.3732 139.207 45.9107 138.685H45.9116Z" fill="#1E3747"/>
<path d="M44.2166 137.958C43.919 137.958 43.5956 137.938 43.3209 137.873C42.9557 137.787 42.402 137.441 41.9571 137.163C41.6722 136.985 41.4262 136.831 41.3137 136.798C41.2852 136.79 41.2666 136.747 41.2719 136.703C41.2773 136.658 41.3043 136.629 41.3331 136.638C41.4556 136.673 41.6941 136.822 41.9961 137.011C42.4359 137.286 42.9834 137.629 43.3366 137.712C43.9124 137.849 44.7134 137.781 45.0149 137.756L45.0343 137.755C45.0656 137.749 45.0877 137.787 45.0894 137.832C45.0909 137.877 45.0687 137.915 45.0398 137.918L45.0204 137.919C44.8586 137.933 44.5543 137.958 44.2166 137.958Z" fill="#1E3747"/>
<path d="M41.3227 135.665C41.2915 135.665 41.2606 135.643 41.24 135.602C41.2044 135.531 41.2127 135.428 41.2582 135.373C41.4312 135.163 41.8764 134.807 41.8953 134.792C41.9466 134.75 42.0096 134.782 42.0361 134.862C42.0625 134.943 42.0422 135.041 41.9908 135.082C41.9862 135.086 41.5444 135.44 41.3868 135.631C41.3677 135.654 41.3451 135.665 41.3227 135.665Z" fill="#1E3747"/>
<path d="M41.6688 136.162C41.6376 136.162 41.6067 136.14 41.5862 136.099C41.5506 136.027 41.5588 135.925 41.6045 135.87C41.7775 135.66 42.2225 135.303 42.2414 135.288C42.2928 135.247 42.3559 135.279 42.3823 135.359C42.4087 135.439 42.3883 135.538 42.3369 135.579C42.3325 135.582 41.8905 135.936 41.7331 136.127C41.7139 136.15 41.6913 136.162 41.6688 136.162Z" fill="#1E3747"/>
<path d="M42.0047 136.68C41.9735 136.68 41.9427 136.658 41.9221 136.617C41.8865 136.546 41.8947 136.443 41.9405 136.388C42.1132 136.178 42.5584 135.822 42.5773 135.807C42.6288 135.765 42.6919 135.797 42.7183 135.877C42.7447 135.958 42.7243 136.056 42.6728 136.097C42.6684 136.101 42.2264 136.455 42.069 136.646C42.05 136.669 42.0272 136.68 42.0047 136.68Z" fill="#1E3747"/>
<path d="M30.0363 80.6418C28.8883 83.3261 28.8527 95.478 28.8883 97.6163C28.9239 99.7543 28.3493 109.02 27.8965 112.298C27.4439 115.577 26.192 132.54 26.5405 136.959C27.4439 136.816 29.7607 136.389 30.8685 136.959C31.3289 134.82 30.9333 134.108 30.8999 132.112C30.8663 130.117 31.932 117.145 32.1151 116.147C32.2981 115.149 33.0419 113.866 33.2953 112.156C33.5489 110.445 35.0851 101.109 36.3007 97.2599C36.7763 101.821 37.846 109.733 37.825 110.73C37.8039 111.728 37.8121 131.659 37.9759 135.716C39.1574 137.35 42.2416 135.288 42.2416 135.288C42.1506 133.929 42.6638 130.544 42.5 128.976C42.3362 127.408 42.1358 117.002 42.6522 111.586C43.1688 106.169 44.0367 95.9062 42.7293 81.7004L30.0363 80.6418Z" fill="#4E748C"/>
<path d="M37.7708 90.6396L38.243 83.4039L38.3657 83.4229L37.9171 90.2988L38.713 89.6242L39.4018 83.3974L39.5235 83.4292L38.8247 89.7464L37.7708 90.6396Z" fill="#050505"/>
<path d="M32.0064 86.2358C31.3786 86.2358 30.8025 85.9878 30.4192 85.654L30.48 85.4884C31.0369 85.9735 32.0185 86.2694 32.957 85.8368C33.6384 85.5227 34.1597 84.8736 34.4647 83.9597L34.5744 84.0466C34.2537 85.0077 33.7066 85.6896 32.9923 86.0188C32.6628 86.1708 32.3278 86.2358 32.0064 86.2358Z" fill="#050505"/>
<path d="M42.3481 85.9182C42.1765 85.9182 42.0279 85.8613 41.8996 85.7479C41.4848 85.3806 41.3412 84.4748 41.1751 83.4263C41.158 83.319 41.1407 83.2098 41.1229 83.0995L41.2426 83.0535C41.2604 83.164 41.2778 83.2735 41.2949 83.3811C41.4543 84.3875 41.5921 85.2563 41.9611 85.5831C42.1687 85.7672 42.4459 85.776 42.8086 85.6101L42.8435 85.7924C42.6602 85.8764 42.4957 85.9182 42.3481 85.9182Z" fill="#050505"/>
<path d="M36.3405 97.3323L36.2607 97.1872C36.5051 96.8682 37.7485 93.7948 37.9538 92.9155L38.0698 92.98C37.8558 93.8967 36.6025 96.9904 36.3405 97.3323Z" fill="#050505"/>
<path d="M33.4072 46.0193C33.2184 45.9223 32.148 46.2457 31.9591 46.9248C30.6368 47.6041 26.796 50.4828 26.2082 54.6552C25.6206 58.8276 25.3477 61.7386 25.3477 61.7386L25.778 61.6091L29.8392 66.4122L28.8885 83.3258C29.9276 84.6359 36.1176 86.64 39.3077 85.8916C41.2885 85.427 43.0752 83.6843 43.0752 83.6843L41.897 60.4933C41.897 60.4933 44.8722 59.4016 45.3916 59.4016C44.1114 54.4935 43.6916 48.995 38.733 47.6849C38.5126 47.2484 38.0405 46.9814 37.2691 46.8117C36.4978 46.6419 33.4072 46.0193 33.4072 46.0193Z" fill="#2C92B5"/>
<path d="M45.3911 59.4017C45.3648 59.4017 45.3319 59.4042 45.2933 59.41C45.2074 59.4219 45.093 59.4466 44.9582 59.4809C44.8612 59.5056 44.7534 59.5353 44.6379 59.5683C44.5216 59.6023 44.397 59.6398 44.2684 59.6803C44.2203 59.6949 44.1714 59.7108 44.122 59.7266C43.7669 59.8395 43.3869 59.9674 43.0433 60.0859C42.9939 60.1031 42.945 60.12 42.8974 60.1358C42.3312 60.3337 41.8966 60.4933 41.8966 60.4933L41.9309 61.1648L41.9447 61.4373L41.9805 62.1436L41.9913 62.3558L42.0981 64.4585L42.1154 64.8019L42.2251 66.9545L42.2359 67.1656L42.2717 67.8764L42.286 68.1564L42.3481 69.3778L42.3587 69.5894L42.4488 71.3609L42.4631 71.6435L42.4702 71.7821L42.4809 71.9937L42.5606 73.5632L42.575 73.8432L42.5988 74.3145L42.6096 74.5266L42.7008 76.3207L42.7152 76.6007L42.7206 76.7123L42.7312 76.9226L42.841 79.0786L42.855 79.3586L42.9676 81.571L42.9784 81.7826L42.9807 81.8333L42.9952 82.117L43.0749 83.6844C43.0749 83.6844 42.9475 83.8086 42.7229 84C42.688 84.0296 42.6507 84.0608 42.6113 84.0936C42.353 84.3078 41.9995 84.5815 41.5822 84.854C41.5424 84.88 41.5015 84.9065 41.46 84.9325C41.1147 85.1517 40.7296 85.3669 40.3221 85.5463C40.2769 85.5661 40.2312 85.5856 40.1857 85.604C39.9012 85.7226 39.6063 85.8219 39.3076 85.8916C39.1566 85.9272 38.9997 85.9563 38.8364 85.9797C38.7826 85.9872 38.7279 85.9943 38.6727 86.0005C38.6481 86.0039 38.623 86.007 38.598 86.0093C38.5128 86.0184 38.4266 86.026 38.3385 86.0322C37.9311 86.0613 37.4962 86.0608 37.0448 86.0348C36.9818 86.0317 36.9186 86.0273 36.8548 86.0229C36.6279 86.007 36.3978 85.9841 36.1647 85.9563C36.1017 85.9493 36.0388 85.941 35.9755 85.9321C35.6602 85.8911 35.3407 85.8404 35.0214 85.78C34.9433 85.7663 34.8651 85.7509 34.7865 85.7351C34.5925 85.6971 34.3985 85.6553 34.2057 85.6111C34.1502 85.5983 34.0947 85.5856 34.0392 85.5723C33.5591 85.4582 33.0858 85.329 32.6324 85.1883C32.5831 85.1733 32.5337 85.1574 32.4848 85.1421C32.3331 85.0934 32.1835 85.044 32.0367 84.9939C31.9277 84.9564 31.8204 84.9185 31.7148 84.88C31.5274 84.8121 31.3457 84.7425 31.1706 84.672C31.1237 84.653 31.0776 84.6341 31.0319 84.6151C30.5666 84.4224 30.1506 84.2236 29.8053 84.026C29.7621 84.0018 29.7201 83.9771 29.6791 83.9524C29.3172 83.7358 29.0443 83.5229 28.888 83.3259L28.9213 82.736L28.937 82.4578L28.9521 82.183L28.9641 81.974L29.0772 79.9623L29.1003 79.5557L29.2239 77.3503L29.2486 76.9119L29.3609 74.9143L29.3727 74.7052L29.3887 74.419L29.4044 74.1408L29.4965 72.5012L29.5084 72.2929L29.5446 71.6479L29.5601 71.3728L29.6325 70.0844L29.6445 69.8741L29.7003 68.8794L29.7157 68.6049L29.7682 67.6723L29.7798 67.462L29.8274 66.6137L29.839 66.4122L29.8118 66.38L28.7161 65.0845L28.6179 64.9686L27.5273 63.678L27.4294 63.5626L26.34 62.2741L26.2418 62.1582L25.7777 61.6089L25.3477 61.7388C25.3477 61.7388 25.3743 61.4537 25.429 60.9334C25.4401 60.8284 25.4524 60.7138 25.4656 60.5895C25.5182 60.101 25.5889 59.4708 25.6782 58.7231C25.6859 58.6579 25.6942 58.5921 25.7019 58.5247C25.7094 58.4634 25.7171 58.4013 25.7245 58.3378C25.7374 58.2354 25.75 58.1301 25.7632 58.023C25.8266 57.5087 25.8976 56.9498 25.9762 56.3545C25.9849 56.2902 25.9935 56.225 26.0021 56.1597C26.0152 56.0609 26.0284 55.9616 26.042 55.8608C26.0555 55.7594 26.0695 55.6569 26.0839 55.5535C26.1234 55.2615 26.1649 54.9617 26.208 54.6552C26.2332 54.4753 26.2647 54.2985 26.3018 54.1236C26.3145 54.0622 26.3282 54.0009 26.3425 53.94C26.4786 53.3629 26.6747 52.8128 26.9144 52.2941C26.9373 52.2434 26.9611 52.1927 26.9854 52.1425C27.0458 52.0178 27.1087 51.8943 27.1737 51.7731C27.4028 51.3457 27.6592 50.9415 27.9322 50.5619C28.2068 50.1805 28.4978 49.8238 28.7947 49.4944C28.83 49.4552 28.8654 49.4164 28.9009 49.3785C29.2597 48.9895 29.6251 48.6391 29.9784 48.3318C30.0187 48.2964 30.0588 48.2621 30.0988 48.2281C30.213 48.1303 30.3252 48.038 30.4359 47.9499C30.8441 47.6236 31.2219 47.3608 31.5348 47.1668C31.6942 47.068 31.8369 46.9874 31.9586 46.9248C31.9915 46.8062 32.0515 46.6986 32.1291 46.6016C32.2283 46.4781 32.3562 46.3723 32.493 46.2868C32.861 46.0549 33.2935 45.9613 33.4069 46.0195C33.4069 46.0195 33.6664 46.0721 34.0535 46.1501C34.1424 46.1677 34.2374 46.1872 34.3376 46.2075C34.4869 46.2379 34.6477 46.2704 34.8145 46.304C34.8795 46.3172 34.9453 46.3305 35.0119 46.3437C35.4276 46.4288 35.8677 46.5187 36.2571 46.599C36.3237 46.6126 36.3887 46.6263 36.452 46.6391C36.6222 46.6744 36.7792 46.7069 36.9154 46.736C37.0309 46.76 37.1315 46.7815 37.213 46.7995C37.2327 46.8031 37.2516 46.8075 37.2688 46.8114C37.3992 46.8398 37.5209 46.8715 37.6344 46.9063C37.6948 46.9248 37.7528 46.9438 37.8087 46.9648C38.2679 47.1312 38.5697 47.3613 38.7328 47.685C38.8944 47.7276 39.0515 47.7749 39.2035 47.8264C39.259 47.8454 39.3141 47.8644 39.3688 47.8852C39.8921 48.0765 40.3588 48.3204 40.7773 48.61C40.8212 48.6404 40.8649 48.6708 40.9075 48.7025C41.3183 49.0028 41.6809 49.348 42.0039 49.7302C42.0382 49.7708 42.0718 49.8118 42.1052 49.8529C42.4208 50.2444 42.6971 50.6734 42.9429 51.1315C42.9692 51.1804 42.9952 51.229 43.0202 51.2792C43.2722 51.7682 43.491 52.2889 43.6862 52.8325C43.706 52.8871 43.7254 52.9422 43.7446 52.9973C43.946 53.5768 44.1225 54.1808 44.2853 54.7995C44.3005 54.858 44.3157 54.9168 44.3308 54.975C44.3695 55.1248 44.4073 55.2748 44.4444 55.4263C44.4776 55.5587 44.5097 55.6923 44.5417 55.8259C44.6338 56.2099 44.7234 56.5975 44.8126 56.9859C44.8267 57.0468 44.8407 57.1071 44.8541 57.1677C44.9911 57.7627 45.1285 58.3594 45.2759 58.9493C45.2907 59.0088 45.3056 59.0684 45.3208 59.1274C45.3294 59.1627 45.3385 59.1984 45.3479 59.2332C45.3619 59.2896 45.3763 59.3458 45.3911 59.4017Z" fill="#0077CC"/>
<path d="M45.3918 59.4019C45.5388 60.1457 47.2388 65.523 47.2808 68.8544C47.3228 72.1857 45.3616 71.4066 44.3962 70.2746C43.4307 69.1424 43.2287 67.4297 42.0499 66.2026C41.4208 65.5477 41.257 61.392 42.065 60.4324C42.6266 59.7658 45.3918 59.4019 45.3918 59.4019Z" fill="#955B42"/>
<path d="M42.0541 59.5823C42.0411 59.5823 42.0296 59.5682 42.0268 59.548C41.7773 57.7255 41.0508 53.3425 40.5186 52.1895C40.5096 52.1703 40.5125 52.1433 40.5251 52.1295C40.5378 52.1157 40.5553 52.1201 40.5641 52.1396C41.1016 53.3033 41.8312 57.7021 42.0816 59.5303C42.0848 59.5534 42.075 59.5763 42.06 59.5812C42.058 59.5818 42.0561 59.5823 42.0541 59.5823Z" fill="#343A3F"/>
<path d="M40.8809 64.3259H37.8962C37.6899 64.3259 37.5529 64.0462 37.59 63.7012L38.5371 54.9082C38.5742 54.563 38.7716 54.2832 38.9779 54.2832H41.9625C42.1688 54.2832 42.3059 54.563 42.2688 54.9082L41.3217 63.7012C41.2846 64.0462 41.0872 64.3259 40.8809 64.3259Z" fill="#1E3747"/>
<path d="M33.8251 43.3996C33.8251 43.3996 33.6677 44.7902 33.4054 46.0194C33.143 47.2485 33.6625 50.7416 35.9922 52.8035C37.0154 51.6876 37.4876 49.4316 37.4247 48.5099C37.3618 47.5881 37.0783 46.2297 37.0783 46.2297L33.8251 43.3996Z" fill="#955B42"/>
<path d="M36.9292 60.3988C36.9292 60.5881 36.8296 60.7415 36.7068 60.7415C36.5838 60.7415 36.4843 60.5881 36.4843 60.3988C36.4843 60.2093 36.5838 60.0559 36.7068 60.0559C36.8296 60.0559 36.9292 60.2093 36.9292 60.3988Z" fill="#1E3747"/>
<path d="M43.0141 63.769C42.8235 63.3871 42.5568 62.7088 42.5949 61.9905C42.633 61.2722 42.7494 60.4496 42.5912 59.9647C42.4328 59.4801 42.1087 58.819 42.0324 58.54C41.9562 58.2611 41.8961 58.3757 41.8961 58.3757L41.7524 59.7105C41.7524 59.7105 41.7465 59.9647 41.8037 60.1116C41.3939 59.8914 39.9323 59.2467 39.4228 59.1268C38.9729 59.021 38.9347 59.671 39.2303 59.8178C39.5257 59.9647 40.8792 60.5965 40.9555 60.7579C41.0317 60.9196 40.9745 61.086 40.8601 61.0616C40.7458 61.0371 39.2828 60.4532 38.83 60.3466C38.4868 60.2658 38.2962 60.7434 38.7537 61.1253C39.2112 61.5069 40.7024 62.1644 40.7458 62.1938C40.7891 62.2232 40.7839 62.4031 40.7267 62.3737C40.6695 62.3443 38.7804 61.7126 38.524 61.6244C38.2677 61.5363 38.1343 62.0945 38.363 62.3295C38.5918 62.5645 40.212 63.2696 40.3454 63.3577C40.4789 63.4458 40.4407 63.6515 40.3073 63.5633C40.1739 63.4752 39.2148 63.3096 38.9395 63.2334C38.7436 63.1791 38.5918 63.534 38.8966 63.769C39.2016 64.004 39.8879 64.1509 40.0214 64.2684C40.1548 64.3859 40.5175 65.1289 40.9939 65.3346C41.4705 65.5402 42.0502 66.2026 42.0502 66.2026L43.0141 63.769Z" fill="#955B42"/>
<path d="M38.754 85.9116C38.7382 85.9116 38.7247 85.8929 38.7233 85.8679C38.7178 85.7634 38.154 75.2991 37.7697 65.7974C37.3973 56.5929 36.6714 53.8647 36.622 53.6887L35.9743 52.8396C35.9615 52.8227 35.9598 52.7928 35.971 52.7728C35.9819 52.7527 36.0013 52.7504 36.0143 52.7673L36.6724 53.6299L36.6753 53.6393C36.6829 53.6647 37.4466 56.2812 37.8312 65.7914C38.2155 75.292 38.7792 85.7556 38.7847 85.8601C38.7863 85.8864 38.7736 85.9093 38.7566 85.9114C38.7557 85.9116 38.7549 85.9116 38.754 85.9116Z" fill="#343A3F"/>
<path d="M46.5863 66.8413C46.5777 66.8413 46.5692 66.8361 46.563 66.8254C46.0228 65.9106 44.682 65.0066 43.7948 64.4084C43.3523 64.1102 43.0601 63.9132 42.9897 63.8024C42.7566 63.4351 42.5231 62.7103 42.5614 61.9862C42.57 61.8269 42.5823 61.6602 42.5945 61.4988C42.6366 60.9346 42.6803 60.351 42.5611 59.9862C42.4804 59.7395 42.3546 59.4421 42.2434 59.1795C42.1341 58.9213 42.0396 58.698 42.0015 58.5584C41.9947 58.5337 42.0023 58.5056 42.0182 58.4952C42.0342 58.4848 42.0526 58.4965 42.0592 58.521C42.0951 58.6525 42.1928 58.8829 42.296 59.127C42.4079 59.3914 42.5349 59.6911 42.6171 59.9428C42.7446 60.3333 42.6999 60.9315 42.6567 61.5097C42.6447 61.6703 42.6323 61.8365 42.624 61.994C42.5887 62.657 42.8038 63.3716 43.0344 63.7348C43.0963 63.8323 43.4157 64.0476 43.8199 64.32C44.712 64.9216 46.0603 65.8305 46.6094 66.7607C46.621 66.7805 46.62 66.8109 46.6074 66.8288C46.6013 66.8371 46.5937 66.8413 46.5863 66.8413Z" fill="#343A3F"/>
<path d="M36.5322 62.0784C36.3932 62.5383 35.7816 63.4144 35.2951 63.261C34.8085 63.1076 34.5572 61.8257 34.665 60.9763C34.7762 60.1002 34.9228 59.7422 35.0449 59.6039C35.3415 59.268 35.2958 58.8442 35.3934 58.5892C35.5081 58.29 35.7816 58.2242 35.8511 57.9614C35.9206 57.6985 36.0735 57.1513 36.421 57.195C36.7685 57.2389 36.6751 56.6896 37.0226 56.7553C37.3699 56.8208 37.4912 56.8663 37.7833 57.1731C38.0751 57.4796 38.2293 57.7651 38.2293 57.7651L38.1579 58.4278L37.3107 58.2247C37.3107 58.2247 37.9206 58.8354 38.0594 59.3393C37.9611 60.2289 37.9059 60.8593 37.8388 60.7863C37.8666 61.1367 37.5469 61.7937 37.2827 61.5966C37.3384 61.9471 36.8519 62.2318 36.5322 62.0784Z" fill="#955B42"/>
<path d="M37.3057 58.2309C37.2963 58.2363 37.2853 58.2338 37.2772 58.2226L36.9194 57.7276C36.9079 57.7117 36.9069 57.6844 36.9172 57.6667C36.9276 57.6488 36.9452 57.6475 36.9567 57.6634L37.3145 58.1584C37.3261 58.1742 37.327 58.2015 37.3167 58.2192C37.3136 58.2247 37.3098 58.2285 37.3057 58.2309Z" fill="#343A3F"/>
<path d="M36.5329 62.1213C36.5262 62.1213 36.5194 62.1177 36.514 62.1102C36.5064 62.0995 35.7491 61.0365 35.6852 60.9501C35.6736 60.9343 35.6724 60.9072 35.6825 60.8893C35.6928 60.8714 35.7103 60.8695 35.722 60.8851C35.7864 60.972 36.5206 62.0025 36.5518 62.0465C36.5633 62.0623 36.564 62.0896 36.5537 62.1073C36.5481 62.1167 36.5405 62.1213 36.5329 62.1213Z" fill="#343A3F"/>
<path d="M37.2823 61.6394C37.2745 61.6394 37.2666 61.6342 37.261 61.6243C37.1677 61.4561 36.2326 60.1736 36.013 59.8767C36.0013 59.8611 36.0001 59.8339 36.0103 59.8159C36.0206 59.798 36.0383 59.7964 36.0497 59.812C36.2151 60.0351 37.202 61.3851 37.3035 61.5682C37.3137 61.5864 37.3123 61.6134 37.3005 61.629C37.2953 61.636 37.2889 61.6394 37.2823 61.6394Z" fill="#343A3F"/>
<path d="M37.8381 60.8293C37.8283 60.8293 37.8187 60.8213 37.8135 60.807C37.5501 60.0645 37.053 59.5318 36.724 59.1793C36.7113 59.1658 36.7081 59.1387 36.7171 59.1192C36.7258 59.0997 36.7432 59.0948 36.756 59.1086C37.0892 59.4655 37.593 60.0052 37.8627 60.7657C37.8701 60.7865 37.8651 60.8127 37.8516 60.8242C37.8472 60.8278 37.8426 60.8293 37.8381 60.8293Z" fill="#343A3F"/>
<path d="M25.778 61.6092C25.6289 64.079 25.2743 71.7491 27.0687 73.7868C28.8632 75.8242 35.6346 62.9309 35.6346 62.9309L34.7507 60.6987C34.7507 60.6987 30.1855 64.9741 29.4614 65.4262L29.3985 62.1185C29.3985 62.1185 26.7539 61.2696 25.778 61.6092Z" fill="#955B42"/>
<path d="M32.3363 52.208C32.3314 52.208 32.3264 52.2059 32.3222 52.202C32.3151 52.1955 32.3104 52.1849 32.3088 52.1726C32.2874 51.9899 31.7847 47.6901 31.9318 46.913C31.936 46.8902 31.9514 46.8769 31.9664 46.8837C31.9812 46.8904 31.9898 46.9143 31.9854 46.9372C31.8503 47.6516 32.3019 51.621 32.3583 52.1084C32.6218 51.9764 34.3694 51.1161 34.7746 51.3236C34.7893 51.3311 34.7972 51.3555 34.7923 51.3781C34.7874 51.4008 34.7715 51.413 34.7569 51.4055C34.3456 51.1941 32.3652 52.1958 32.3451 52.2057C32.3422 52.2072 32.3394 52.208 32.3363 52.208Z" fill="#343A3F"/>
<path d="M38.5284 52.208C38.5238 52.208 38.5194 52.2064 38.5154 52.2031C38.5154 52.2031 37.2142 51.1681 36.9886 50.9905C36.9748 50.9796 36.9694 50.9536 36.9765 50.9326C36.9836 50.9112 37.0004 50.9029 37.0141 50.9136C37.2181 51.0742 38.3005 51.935 38.507 52.0993C38.5579 51.6259 38.8924 48.4193 38.7069 47.701C38.7011 47.6789 38.7082 47.654 38.7226 47.6451C38.7371 47.636 38.7533 47.647 38.759 47.6693C38.9641 48.4638 38.5726 52.0211 38.5559 52.1721C38.5544 52.1856 38.5488 52.1973 38.5409 52.2033C38.5368 52.2064 38.5326 52.208 38.5284 52.208Z" fill="#343A3F"/>
<path d="M29.3976 62.1616C29.397 62.1616 29.3965 62.1616 29.396 62.1616C29.3804 62.1603 29.3688 62.1398 29.3696 62.1159C29.3723 62.048 29.6342 55.3206 29.4027 54.2976C29.3976 54.2749 29.4052 54.2502 29.4199 54.2424C29.4344 54.2346 29.4505 54.2466 29.4555 54.269C29.6909 55.3083 29.4364 61.8434 29.4255 62.1213C29.4246 62.1439 29.4123 62.1616 29.3976 62.1616Z" fill="#343A3F"/>
<path d="M39.6264 55.6054C39.6264 55.8979 39.4725 56.135 39.2827 56.135C39.0929 56.135 38.9389 55.8979 38.9389 55.6054C38.9389 55.313 39.0929 55.0759 39.2827 55.0759C39.4725 55.0759 39.6264 55.313 39.6264 55.6054Z" fill="#171A1C"/>
<path d="M27.2034 67.4111C27.1953 67.4111 27.1872 67.4059 27.1818 67.3955C27.1719 67.3771 27.1736 67.35 27.1856 67.3347C27.5533 66.8667 29.3721 65.4483 29.4494 65.388C29.4632 65.3773 29.4801 65.3859 29.487 65.4072C29.4939 65.4283 29.4885 65.4543 29.4747 65.4652C29.4558 65.4798 27.5842 66.9393 27.2212 67.4013C27.2159 67.408 27.2097 67.4111 27.2034 67.4111Z" fill="#343A3F"/>
<path d="M35.464 63.2891C35.4603 63.2891 35.4564 63.2875 35.4528 63.2849C35.0962 63.0046 34.9624 62.4327 34.9052 62.1886C34.9007 62.1688 34.8966 62.1517 34.8931 62.1374C34.8882 62.1176 34.8946 62.0958 34.9074 62.0882C34.9202 62.081 34.9344 62.0906 34.9393 62.1103C34.9429 62.1249 34.9471 62.1426 34.9518 62.1626C35.007 62.3984 35.136 62.9506 35.4753 63.2168C35.4874 63.2264 35.4923 63.2493 35.4861 63.2683C35.4817 63.2813 35.4729 63.2891 35.464 63.2891Z" fill="#343A3F"/>
<path d="M37.1093 33.9979C35.8359 34.4965 33.301 36.2618 33.1848 40.1612C33.0685 44.0609 33.6968 45.9686 34.7167 47.1606C35.7365 48.3526 36.9662 48.8585 37.3681 48.8208C37.7697 48.7831 38.3882 47.7611 38.6411 46.898C38.8938 46.0351 39.5637 43.7205 39.5745 43.256C39.5853 42.7916 39.5382 41.8459 39.6621 41.3345C39.7861 40.8231 39.6582 40.391 39.7279 39.9831C39.7977 39.5749 40.1181 37.6529 39.7054 36.1157C39.2928 34.5784 37.6883 33.7712 37.1093 33.9979Z" fill="#955B42"/>
<path d="M37.3793 48.8569C37.3764 48.859 37.3734 48.8601 37.3701 48.8603C36.9578 48.899 35.7135 48.3747 34.7018 47.192C34.2252 46.6351 33.8725 45.9642 33.6236 45.1411C33.6177 45.1213 33.6233 45.0976 33.6361 45.0885C33.6489 45.0789 33.6643 45.0878 33.6702 45.1075C33.9155 45.9187 34.263 46.58 34.7328 47.1291C35.7344 48.2998 36.9616 48.8195 37.3669 48.7813C37.3811 48.78 37.3934 48.7966 37.3943 48.8184C37.3949 48.8353 37.3887 48.8504 37.3793 48.8569Z" fill="#28282B"/>
<path d="M33.1736 40.7275C33.1755 40.7304 33.4098 41.08 33.4098 41.08L33.7138 41.4011C33.7634 41.4534 33.8316 41.4191 33.8516 41.3317C33.9493 40.9051 34.2123 39.8306 34.4119 39.6905C34.6618 39.515 35.0034 39.2745 35.1108 39.1011C35.2185 38.9277 35.0757 37.641 35.5091 36.7654C35.9257 35.9239 37.4293 36.3042 38.1581 36.3227C39.7265 36.3622 39.9102 37.6852 39.9102 37.6852C39.9637 37.4463 40.004 37.1895 40.0165 36.937C40.0256 36.7514 40.0773 36.5785 40.0843 36.3945C40.0958 36.1038 39.9195 35.887 39.8397 35.6228C39.7898 35.4572 39.7781 35.2714 39.7506 35.0938C39.7231 34.9162 39.6732 34.7329 39.5733 34.6347C39.4598 34.5229 39.3736 34.4529 39.2973 34.2819C39.2155 34.0981 39.1998 33.8646 39.0763 33.7487C39.0446 33.719 39.0068 33.7107 38.9723 33.6907C38.8042 33.5937 38.8712 33.0805 38.5147 33.1549C38.3727 33.1845 38.3108 32.8712 38.1807 32.7782C38.1006 32.721 38.0053 32.7587 37.9192 32.727C37.7185 32.6534 37.6157 32.2304 37.4096 32.2223C37.2674 32.2169 37.1342 32.4233 36.9989 32.3552C36.8935 32.3021 36.839 32.1001 36.7307 32.0617C36.546 31.9959 36.4004 32.4511 36.2199 32.3612C36.1566 32.3297 36.1139 32.2366 36.0527 32.1969C35.9312 32.1176 35.8008 32.273 35.7165 32.4295C35.6321 32.586 35.5385 32.7725 35.4066 32.7756C35.3357 32.7774 35.2682 32.7228 35.1974 32.7217C35.0719 32.7199 34.9622 32.9191 34.9836 33.1099C34.8526 33.0985 34.7181 33.0875 34.5926 33.1476C34.4671 33.2074 34.3505 33.3535 34.3242 33.5519C34.3156 33.6174 34.3164 33.6881 34.295 33.7463C34.24 33.8958 34.0448 33.8929 33.9475 33.9637C33.8287 34.05 33.7396 34.2073 33.7013 34.4017C33.6929 34.4449 33.6863 34.4896 33.6708 34.5276C33.6023 34.6945 33.4159 34.6271 33.3324 34.7769C33.2946 34.8447 33.2882 34.9396 33.2752 35.0267C33.2401 35.2607 33.1768 35.1502 33.0733 35.2222C32.9855 35.2836 32.9471 35.4567 32.9368 35.5927C32.9243 35.758 32.9363 35.9317 32.8956 36.0859C32.8302 36.3331 32.6351 36.5213 32.6699 36.7829C32.6891 36.9274 32.7581 37.0896 32.7119 37.2389C32.6714 37.3694 32.5525 37.4144 32.5216 37.5511C32.4887 37.6964 32.5744 37.8677 32.5277 38.0037C32.5054 38.0687 32.4594 38.1033 32.4217 38.1483C32.2697 38.3305 32.2945 38.6222 32.3919 38.8481C32.4806 39.054 32.61 39.2441 32.6152 39.4908C32.6173 39.5823 32.6012 39.673 32.6033 39.7645C32.6098 40.0742 32.7941 40.2317 32.9526 40.3521C33.0253 40.407 33.0994 40.4054 33.1418 40.512C33.1617 40.5622 33.1471 40.688 33.1736 40.7275Z" fill="#22272C"/>
<path d="M33.6151 41.1635C33.7851 41.9574 33.6788 42.7254 33.3777 42.8783C33.0766 43.0314 32.6948 42.5115 32.5249 41.7175C32.355 40.9233 32.4613 40.1555 32.7623 40.0024C33.0634 39.8496 33.4452 40.3692 33.6151 41.1635Z" fill="#955B42"/>
<path d="M116.752 16.4089C116.741 16.4091 116.73 16.4092 116.719 16.4092C116.708 16.4092 116.696 16.4091 116.686 16.4089C114.763 20.3871 111.423 22.0182 108.628 22.6634C108.624 26.5046 108.624 30.8717 108.641 32.8837C108.684 38.1407 116.719 47.822 116.719 47.822C116.719 47.822 124.753 38.1407 124.797 32.8837C124.814 30.8717 124.814 26.5046 124.809 22.6634C122.015 22.0182 118.674 20.3871 116.752 16.4089Z" fill="#396887"/>
<path d="M116.362 36.291L114.392 30.5478C114.33 30.3695 114.375 30.1488 114.49 30.0544L114.623 29.9468C114.738 29.8524 114.881 29.9205 114.943 30.0989L116.414 34.3856L119.02 28.1085C119.091 27.9384 119.237 27.8891 119.348 27.9977L119.473 28.1217C119.584 28.2307 119.616 28.4563 119.545 28.6261L116.362 36.291Z" fill="white"/>
<path d="M109.549 23.7221C109.545 28.1667 109.549 31.2859 109.561 32.7561C109.572 34.0526 110.214 36.5604 113.213 41.144C114.701 43.4186 116.204 45.3229 116.719 45.9622C117.234 45.3229 118.737 43.4186 120.225 41.144C123.224 36.5604 123.866 34.0526 123.877 32.7561C123.889 31.2685 123.894 28.2302 123.889 23.7221C121.566 23.1364 118.564 21.706 116.719 18.2431C114.874 21.706 111.872 23.1364 109.549 23.7221ZM116.719 47.1519L116.532 46.927C116.514 46.9046 114.642 44.642 112.79 41.813C110.263 37.9518 108.973 34.9085 108.955 32.7681C108.939 30.8499 108.94 26.5725 108.944 23.3218L108.944 22.9204L109.202 22.8608C111.533 22.3224 114.683 20.9149 116.445 17.2671L116.536 17.0792H116.902L116.993 17.2671C118.756 20.9149 121.905 22.3224 124.236 22.8608L124.494 22.9204L124.494 23.3218C124.5 28.0541 124.496 31.2324 124.483 32.7681C124.465 34.9085 123.175 37.9518 120.648 41.813C118.796 44.642 116.924 46.9046 116.906 46.927L116.719 47.1519Z" fill="#0077CC"/>
<path d="M120.967 73.5181C120.967 74.7499 120.033 75.7493 118.881 75.7493H114.365C113.213 75.7493 112.28 74.7499 112.28 73.5181C112.28 73.5181 113.213 70.4499 114.365 70.4499H118.881C120.033 70.4499 120.967 73.5181 120.967 73.5181Z" fill="#094349"/>
<path d="M141.522 81.4172C141.522 83.2012 139.851 84.6475 137.791 84.6475H95.1836C93.1241 84.6475 91.4538 83.2012 91.4538 81.4172V78.8162C91.4538 77.0327 93.1241 75.5862 95.1836 75.5862H137.791C139.851 75.5862 141.522 77.0327 141.522 78.8162V81.4172Z" fill="#094349"/>
<path d="M85.2437 136.682C85.2437 138.269 86.2185 139.555 87.4216 139.555H92.9551C94.1579 139.555 95.1327 138.269 95.1327 136.682V122.009C95.1327 120.422 94.1579 119.136 92.9551 119.136H87.4216C86.2185 119.136 85.2437 120.422 85.2437 122.009V136.682Z" fill="#1E3747"/>
<path d="M92.583 121.809H92.87V139.555H92.583V121.809Z" fill="black"/>
<path d="M91.6222 121.809H91.9095V139.555H91.6222V121.809Z" fill="black"/>
<path d="M87.7933 121.809H87.5064V139.555H87.7933V121.809Z" fill="black"/>
<path d="M88.7538 121.809H88.4672V139.555H88.7538V121.809Z" fill="black"/>
<path d="M148.004 136.682C148.004 138.269 147.029 139.555 145.826 139.555H140.293C139.09 139.555 138.115 138.269 138.115 136.682V122.009C138.115 120.422 139.09 119.136 140.293 119.136H145.826C147.029 119.136 148.004 120.422 148.004 122.009V136.682Z" fill="#1E3747"/>
<path d="M140.665 121.809H140.378V139.555H140.665V121.809Z" fill="black"/>
<path d="M141.623 121.809H141.336V139.555H141.623V121.809Z" fill="black"/>
<path d="M145.454 121.809H145.742V139.555H145.454V121.809Z" fill="black"/>
<path d="M144.494 121.809H144.782V139.555H144.494V121.809Z" fill="black"/>
<path d="M148.835 105.785C148.835 105.785 148.835 105.862 148.835 105.995C148.833 106.976 148.823 111.076 148.804 111.405C148.721 112.926 148.473 117.048 148.119 119.756C148.028 120.463 147.928 121.075 147.821 121.518C147.23 123.981 147.313 125.052 145.283 125.052H87.9635C85.9344 125.052 86.0162 123.981 85.4254 121.518C85.3188 121.075 85.2186 120.463 85.128 119.756C84.7734 117.048 84.5254 112.926 84.4409 111.405C84.437 111.327 84.4326 111.038 84.4294 110.628C84.4183 109.308 84.4125 106.742 84.4095 105.995C84.4095 105.862 84.4095 105.785 84.4095 105.785L84.8549 105.82L92.6148 106.426L98.3269 106.872L116.622 108.302L140.63 106.426L148.392 105.82L148.835 105.785Z" fill="#33AAFF"/>
<path d="M143.204 80.963L141.136 82.6666L140.563 83.8154C139.826 79.7782 136.027 60.1366 135.059 60.1366L98.0077 60.6418C97.0385 60.6418 92.7051 82.8863 92.7051 82.8863L90.255 80.963L92.0254 72.4393L93.7568 65.9804L94.9869 62.0347L96.4958 58.713L97.4441 57.6367L110.408 56.3828H131.192L134.711 57.1898L136.723 58.6244L137.951 61.4048L139.908 67.5949L141.694 74.3236L143.204 80.963Z" fill="#173133"/>
<path d="M137.31 100.045C137.31 101.638 136.506 102.93 135.513 102.93H124.73C123.738 102.93 122.933 101.638 122.933 100.045C122.933 100.045 123.738 71.2064 124.73 71.2064C127.426 71.2064 135.513 71.2064 135.513 71.2064C136.506 71.2064 137.31 100.045 137.31 100.045Z" fill="#0F3639"/>
<path d="M134.466 67.9741C134.466 69.8233 133.532 71.321 132.381 71.321H127.864C126.713 71.321 125.78 69.8233 125.78 67.9741C125.78 67.9741 126.713 63.372 127.864 63.372H132.381C133.532 63.372 134.466 67.9741 134.466 67.9741Z" fill="#0F3639"/>
<path d="M110.315 100.045C110.315 101.638 109.51 102.93 108.517 102.93H97.7346C96.7419 102.93 95.9372 101.638 95.9372 100.045C95.9372 100.045 96.7419 71.2064 97.7346 71.2064C100.43 71.2064 108.517 71.2064 108.517 71.2064C109.51 71.2064 110.315 100.045 110.315 100.045Z" fill="#0F3639"/>
<path d="M107.47 67.9741C107.47 69.8233 106.537 71.321 105.385 71.321H100.869C99.717 71.321 98.7839 69.8233 98.7839 67.9741C98.7839 67.9741 99.717 63.372 100.869 63.372H105.385C106.537 63.372 107.47 67.9741 107.47 67.9741Z" fill="#0F3639"/>
<path d="M120.572 62.7459C120.572 63.8011 119.942 64.665 119.171 64.665H114.079C113.309 64.665 112.678 63.8011 112.678 62.7459V62.7422C112.678 61.687 113.309 60.8233 114.079 60.8233H119.171C119.942 60.8233 120.572 61.687 120.572 62.7422V62.7459Z" fill="#1E3747"/>
<path d="M116.917 61.3459H116.332V59.9379H116.917V61.3459Z" fill="#1E3747"/>
<path d="M117.138 59.938C117.138 60.328 116.907 60.6428 116.624 60.6428C116.34 60.6428 116.11 60.328 116.11 59.938C116.11 59.5491 116.34 59.2348 116.624 59.2348C116.907 59.2348 117.138 59.5491 117.138 59.938Z" fill="#1E3747"/>
<path d="M130.679 91.5206C127.818 91.5206 125.498 88.0707 125.498 83.8154C125.498 79.5587 127.818 76.1096 130.679 76.1096C133.54 76.1096 135.859 79.5587 135.859 83.8154C135.859 88.0707 133.54 91.5206 130.679 91.5206ZM130.679 75.2655C127.504 75.2655 124.931 79.0929 124.931 83.8154C124.931 88.5379 127.504 92.365 130.679 92.365C133.853 92.365 136.427 88.5379 136.427 83.8154C136.427 79.0929 133.853 75.2655 130.679 75.2655Z" fill="#1E3747"/>
<path d="M91.0606 78.473L123.996 79.214C123.996 79.214 129.793 75.926 136.155 78.5461L142.32 78.3732L142.476 79.214L119.303 82.074L99.3991 81.4337L92.7269 79.8033L91.0606 78.473Z" fill="#1E3747"/>
<path d="M142.871 79.3327C142.871 79.445 128.681 79.4738 120.338 79.4796C119.686 79.4824 119.068 79.4824 118.496 79.4824H118.494C116.024 79.4824 114.403 79.4824 114.403 79.4824H90.5072L95.3881 61.0944L97.4434 57.6373L105.374 56.601L112.063 56.4141L116.193 56.2989L118.525 56.2326L118.817 56.2383L120.212 56.2672L131.781 56.4975L133.624 56.9782L135.191 57.3869L136.153 57.6373L138.323 62.4702L141.239 72.3034C141.239 72.3034 142.871 79.1743 142.871 79.3327Z" fill="#99D4FF"/>
<path d="M116.193 56.2989L100.604 79.4824H96.5539L112.063 56.4141L116.193 56.2989Z" fill="#0077CC"/>
<path d="M120.212 56.2672L104.603 79.4824H103.187L118.816 56.2383L120.212 56.2672Z" fill="#0077CC"/>
<path d="M135.192 57.3869L120.339 79.4796C119.687 79.4824 119.069 79.4824 118.496 79.4824L133.625 56.9782L135.192 57.3869Z" fill="#0077CC"/>
<path d="M142.867 80.4207H144.734V78.546H142.867V80.4207Z" fill="#0077CC"/>
<path d="M150.725 77.5863C150.617 79.0775 149.476 80.0722 148.583 80.2706C147.52 80.5058 144.276 80.4208 144.276 80.4208C144.276 80.4208 144.276 78.6694 144.276 77.1243V75.2249C144.276 74.5677 144.644 74.003 145.186 74.0522C146.338 74.1574 148.273 74.3964 149.114 74.8521C150.239 75.4631 150.679 76.2087 150.73 77.1243C150.738 77.2738 150.736 77.4277 150.725 77.5863Z" fill="#0077CC"/>
<path d="M150.73 77.1243H144.276V75.2249C144.276 74.5676 144.644 74.003 145.186 74.0521C146.338 74.1574 148.273 74.3963 149.114 74.8521C150.239 75.463 150.679 76.2086 150.73 77.1243Z" fill="#33AAFF"/>
<path d="M90.5707 80.4207H88.7041V78.546H90.5707V80.4207Z" fill="#0077CC"/>
<path d="M89.162 75.2249V77.1243C89.162 78.6694 89.162 80.4208 89.162 80.4208C89.162 80.4208 85.9179 80.5058 84.8549 80.2706C83.9613 80.0722 82.8204 79.0775 82.7134 77.5863C82.7019 77.4277 82.7001 77.2738 82.7087 77.1243C82.758 76.2087 83.1984 75.4628 84.3237 74.8521C85.1648 74.3964 87.1003 74.1574 88.2512 74.0522C88.7939 74.003 89.162 74.5677 89.162 75.2249Z" fill="#0077CC"/>
<path d="M89.1618 75.2249V77.1243H82.7084C82.7577 76.2086 83.1982 75.4627 84.3234 74.8521C85.1645 74.3963 87.1001 74.1574 88.2509 74.0521C88.7937 74.003 89.1618 74.5676 89.1618 75.2249Z" fill="#33AAFF"/>
<path d="M91.4542 78.6265C91.4542 78.6265 91.5146 78.2015 91.6398 77.4504C92.1635 74.3627 93.8177 65.7865 97.0975 58.7117C97.0975 58.7117 114.474 55.4838 136.096 58.536C136.096 58.536 138.842 63.1061 141.792 76.9936C141.904 77.5235 142.017 78.0692 142.131 78.6265C142.131 78.6265 91.7194 78.67 91.4542 78.6265ZM148.943 92.4449C148.877 91.313 148.688 89.9387 148.496 88.982C148.456 88.7805 148.416 88.5985 148.376 88.4405C148.306 88.1623 148.229 87.895 148.147 87.6397C147.96 87.055 147.739 86.5307 147.504 86.0682C147.209 85.4814 146.893 84.989 146.582 84.586C146.325 84.246 145.98 83.8726 145.625 83.5149C144.938 82.8231 144.202 82.1823 143.927 81.9473C143.856 81.8859 143.817 81.8544 143.816 81.8505C143.806 81.8027 143.795 81.7458 143.784 81.6844C143.754 81.536 143.716 81.3483 143.671 81.1231C143.455 80.0497 143.059 78.1641 142.583 76.0369C142.548 75.8791 142.511 75.7171 142.474 75.5549C141.879 72.9203 141.175 69.9927 140.538 67.8146C140.182 66.5924 139.669 64.901 139.226 63.4779C138.96 62.6239 138.692 61.8881 138.537 61.3864C137.394 57.728 135.975 56.4666 134.05 55.9089C133.092 55.6305 129.005 55.3458 128.497 55.3281C127.852 55.306 127.193 55.2844 126.531 55.2629H126.528C124.755 55.209 122.96 55.1581 121.329 55.1162C119.487 55.0707 117.854 55.0411 116.699 55.0356H116.553C114.97 55.0411 112.491 55.0983 109.804 55.1734C108.392 55.2135 106.92 55.2566 105.49 55.3021C105.155 55.3141 104.822 55.3242 104.493 55.3362C104.088 55.3518 100.32 55.6637 99.1929 55.9089C97.3188 56.3147 95.8955 58.2082 94.7149 61.3864C94.236 62.6715 93.2953 65.8416 92.7102 67.8146C92.4121 68.8228 91.5735 72.4198 90.8208 75.7192C90.2845 78.0692 89.79 80.2691 89.5648 81.2752C89.5086 81.5302 89.469 81.7078 89.4484 81.7954C89.4408 81.8323 89.4369 81.8505 89.4369 81.8505C89.433 81.8544 89.3844 81.894 89.2987 81.9691C88.8495 82.3546 87.4079 83.615 86.669 84.586C86.6037 84.6708 86.5359 84.7584 86.4708 84.8533C86.2132 85.2146 85.9547 85.6439 85.7116 86.1319C85.4886 86.5803 85.2814 87.0805 85.1021 87.6397C85.0191 87.895 84.9435 88.1623 84.8742 88.4405C84.8104 88.695 84.7426 89.0158 84.6799 89.3753C84.5147 90.2925 84.3639 91.4609 84.306 92.4449C84.2907 92.7101 84.2829 92.9636 84.2829 93.1921C84.2829 93.6681 84.2906 94.3682 84.302 95.165C84.3085 95.673 84.3163 96.2206 84.3251 96.772C84.3316 97.1396 84.3379 97.5113 84.3445 97.8735C84.3495 98.108 84.3546 98.3396 84.3571 98.5609C84.365 99.0782 84.3738 100.11 84.3826 101.273C84.3979 103.728 84.4109 106.762 84.4109 106.762L84.8563 106.797L92.6156 107.361L98.3263 107.778L116.626 109.112L140.631 107.361L148.392 106.797L148.836 106.762C148.836 106.762 148.836 106.693 148.836 106.566C148.842 105.855 148.853 103.354 148.867 101.273C148.876 100.11 148.885 99.0782 148.894 98.5609C148.899 98.2089 148.907 97.8415 148.915 97.4697C148.918 97.2384 148.922 97.0049 148.925 96.772C148.936 96.0838 148.946 95.4021 148.953 94.7912C148.959 94.1532 148.965 93.5935 148.965 93.1921C148.965 92.9612 148.958 92.7101 148.943 92.4449Z" fill="#0077CC"/>
<path d="M97.8803 90.8957V91.4343H135.589V90.8957H97.8803Z" fill="#1E3747"/>
<path d="M98.27 97.7742C98.27 97.7742 97.6952 98.0134 96.7029 98.3194C95.7506 98.6118 94.4118 98.9659 92.8241 99.2249C89.8595 98.8832 87.5011 98.173 85.7103 97.4164V86.1319C85.9534 85.6439 86.2119 85.2146 86.4695 84.8533C86.5346 84.7584 86.6024 84.6708 86.6677 84.586C87.546 83.4341 89.4204 81.8646 89.4356 81.8505C89.4356 81.8505 90.0873 78.9247 90.8195 75.7192C91.0524 76.2093 91.3288 76.794 91.6385 77.4504C91.5133 78.2015 91.4529 78.6265 91.4529 78.6265C91.7181 78.67 91.983 78.7092 92.2455 78.7508C93.2477 80.9133 94.5805 85.0288 95.7363 88.8816C97.1306 93.5186 98.27 97.7742 98.27 97.7742Z" fill="#33AAFF"/>
<path d="M89.5637 81.2753C89.5065 81.5306 89.4668 81.7079 89.4464 81.795C89.4397 81.8319 89.435 81.8509 89.435 81.8509C89.4314 81.8535 89.3828 81.8941 89.2973 81.9697L90.4052 92.6462L90.5691 92.6031L90.7356 92.5597L89.5637 81.2753Z" fill="#1E3747"/>
<path d="M147.503 86.0685V97.4326C146.017 98.0555 144.144 98.648 141.86 99.0237C141.252 98.9582 140.67 98.8734 140.121 98.7764C138.489 98.4938 137.139 98.1145 136.231 97.8257C135.433 97.5691 134.978 97.3785 134.978 97.3785C134.978 97.3785 136.086 93.3408 137.44 88.8936C138.603 85.0725 139.95 80.9513 140.933 78.8283C141.716 78.7038 142.13 78.6269 142.13 78.6269C142.016 78.0695 141.904 77.5238 141.791 76.9939C142.048 76.4501 142.278 75.9683 142.473 75.5552C142.511 75.7174 142.548 75.8794 142.582 76.0372C143.199 78.7906 143.681 81.1432 143.815 81.8508C143.823 81.8584 144.764 82.6453 145.625 83.5152C145.98 83.873 146.324 84.2463 146.581 84.5863C146.892 84.9893 147.209 85.4817 147.503 86.0685Z" fill="#33AAFF"/>
<path d="M131.356 117.633C131.231 118.17 131.055 118.924 130.918 119.511C130.856 119.772 130.802 119.999 130.763 120.161C130.544 121.086 128.94 121.714 127.433 121.757C126.246 121.793 124.628 121.837 122.775 121.874C120.919 121.911 118.829 121.939 116.697 121.94H116.553C112.289 121.939 108.191 121.826 105.817 121.757C104.311 121.714 102.708 121.086 102.487 120.161C102.448 119.999 102.395 119.772 102.333 119.511C102.195 118.924 102.019 118.17 101.893 117.633C101.8 117.231 102.16 116.95 102.784 116.95H130.465C131.09 116.95 131.451 117.231 131.356 117.633Z" fill="#366380"/>
<path d="M131.356 117.633C131.231 118.17 131.055 118.924 130.918 119.511C130.339 120.17 129.017 120.596 127.76 120.632C126.538 120.666 124.872 120.712 122.961 120.75C121.05 120.787 118.896 120.816 116.7 120.816H116.55C112.158 120.816 107.934 120.7 105.491 120.632C104.234 120.596 102.911 120.17 102.333 119.511C102.195 118.924 102.019 118.17 101.893 117.633C101.8 117.231 102.16 116.95 102.784 116.95H130.465C131.09 116.95 131.451 117.231 131.356 117.633Z" fill="#1E3747"/>
<path d="M143.815 81.8507C143.807 81.8024 143.795 81.7457 143.783 81.6836C143.754 81.5359 143.716 81.3474 143.671 81.1236L142.322 94.1264L142.488 94.1727L142.652 94.2158L143.928 81.9482C143.857 81.8853 143.817 81.8533 143.815 81.8507Z" fill="#1E3747"/>
<path d="M133.167 98.8782V100.446C133.167 100.82 133.156 101.205 133.133 101.602C133.125 101.744 133.117 101.886 133.106 102.029C133.096 102.171 133.085 102.312 133.072 102.455C132.991 103.366 132.862 104.315 132.703 105.26C132.311 107.582 131.722 109.878 131.148 111.5C130.658 112.891 130.184 113.787 129.849 113.787H103.396C103.065 113.787 102.588 112.891 102.098 111.5C101.526 109.878 100.936 107.582 100.542 105.26C100.383 104.315 100.254 103.366 100.175 102.455C100.162 102.312 100.15 102.171 100.141 102.029C100.13 101.886 100.121 101.744 100.112 101.602C100.09 101.205 100.078 100.82 100.078 100.446V98.8782C100.078 97.0485 100.178 95.3466 100.351 93.9043C100.669 91.2359 101.24 89.4636 101.888 89.4636H131.359C132.007 89.4636 132.576 91.2359 132.896 93.9043C133.067 95.3466 133.167 97.0485 133.167 98.8782Z" fill="#1E3747"/>
<path d="M133.169 98.8781V100.447C133.169 100.952 133.148 101.482 133.108 102.029H100.142C100.101 101.482 100.08 100.952 100.08 100.447V98.8781C100.08 97.0492 100.18 95.3471 100.353 93.9032H132.897C133.069 95.3471 133.169 97.0492 133.169 98.8781Z" fill="#1E3747"/>
<path d="M132.705 105.26C132.311 107.582 131.722 109.878 131.149 111.501H102.099C101.527 109.878 100.937 107.582 100.543 105.26H132.705Z" fill="#1E3747"/>
<path d="M133.087 96.0919H100.161L100.117 96.9473H133.131L133.087 96.0919Z" fill="#B8CDDB"/>
<path d="M133.134 101.602C133.126 101.744 133.118 101.886 133.107 102.029C133.097 102.171 133.085 102.313 133.073 102.455H100.175C100.163 102.313 100.151 102.171 100.141 102.029C100.13 101.886 100.122 101.744 100.112 101.602H133.134Z" fill="#B8CDDB"/>
<path d="M148.964 93.192C148.964 93.5934 148.958 94.1532 148.951 94.7912C148.945 95.4021 148.935 96.0838 148.923 96.7719C148.497 96.9914 148.023 97.2131 147.502 97.4323C146.783 97.7323 145.972 98.0266 145.07 98.2941C144.107 98.5783 143.037 98.8291 141.859 99.0233C141.001 99.1658 140.086 99.2781 139.111 99.3475C137.74 99.45 136.252 99.4723 134.644 99.3889C134.644 99.3889 133.38 95.4892 134.629 89.4166C134.629 89.4166 135.741 89.1876 137.439 88.8933C137.927 88.8083 138.463 88.7191 139.037 88.6263C140.81 88.344 142.927 88.045 145.019 87.8474C145.858 87.7686 146.694 87.7055 147.502 87.6657C147.718 87.6558 147.933 87.6478 148.146 87.6397C148.228 87.895 148.305 88.1622 148.374 88.4404C148.415 88.5985 148.454 88.7805 148.494 88.982C148.686 89.9387 148.876 91.3129 148.941 92.4449C148.956 92.71 148.964 92.9612 148.964 93.192Z" fill="#66BFFF"/>
<path d="M98.603 99.3891C97.2879 99.4564 96.0542 99.4548 94.898 99.3948C94.1773 99.3597 93.4861 99.302 92.8254 99.225C91.3905 99.0604 90.0989 98.8083 88.9441 98.5054C87.7113 98.1854 86.6361 97.8079 85.7116 97.4166C85.2033 97.2026 84.7426 96.9856 84.3251 96.7721C84.3163 96.2207 84.3085 95.6732 84.302 95.1652C84.2906 94.3684 84.2829 93.6682 84.2829 93.1922C84.2829 92.9637 84.2907 92.7102 84.306 92.445C84.3639 91.461 84.5147 90.2927 84.6799 89.3755C84.7426 89.0159 84.8104 88.6951 84.8742 88.4406C84.9435 88.1624 85.0191 87.8952 85.1021 87.6399C85.3032 87.6459 85.5067 87.656 85.7116 87.6638C86.7714 87.715 87.8828 87.8081 88.9873 87.9232C91.1344 88.1497 93.2607 88.4666 94.9673 88.7505C95.2347 88.7942 95.4921 88.8379 95.7376 88.8818C97.4749 89.1818 98.6183 89.4168 98.6183 89.4168C99.8691 95.4894 98.603 99.3891 98.603 99.3891Z" fill="#66BFFF"/>
<path d="M144.124 89.1747C143.04 89.1747 142.109 90.2364 141.714 91.7487C141.427 91.1978 140.995 90.8466 140.512 90.8466C139.644 90.8466 138.941 91.9754 138.941 93.3676C138.941 94.76 139.644 95.8894 140.512 95.8894C140.995 95.8894 141.427 95.5389 141.714 94.987C142.109 96.4993 143.04 97.5613 144.124 97.5613C145.566 97.5613 146.735 95.6837 146.735 93.3676C146.735 91.0517 145.566 89.1747 144.124 89.1747Z" fill="white"/>
<path d="M89.1222 89.1747C90.2069 89.1747 91.1373 90.2364 91.5317 91.7487C91.8199 91.1978 92.2511 90.8466 92.7347 90.8466C93.602 90.8466 94.3047 91.9754 94.3047 93.3676C94.3047 94.76 93.602 95.8894 92.7347 95.8894C92.2511 95.8894 91.8199 95.5389 91.5317 94.987C91.1373 96.4993 90.2069 97.5613 89.1222 97.5613C87.6801 97.5613 86.5108 95.6837 86.5108 93.3676C86.5108 91.0517 87.6801 89.1747 89.1222 89.1747Z" fill="white"/>
<path d="M147.591 112.891C147.559 113.145 147.507 113.437 147.433 113.765C147.433 113.765 146.884 116.888 144.614 119.014C144.579 119.047 144.539 119.059 144.502 119.08C144.502 119.08 143.086 120.294 137.536 120.107C137.536 120.107 136.226 120.386 136.437 117.588L136.608 115.155L136.751 113.113C136.751 113.113 136.803 111.829 138.006 111.712C138.006 111.712 141.229 111.457 147.173 111.058C147.173 111.058 147.84 111.058 147.591 112.891Z" fill="#1E3747"/>
<path d="M147.592 112.892L146.414 113.518L137.662 115.155H136.609L136.751 113.113C136.751 113.113 136.804 111.829 138.007 111.713C138.007 111.713 141.23 111.457 147.173 111.059C147.173 111.059 147.841 111.059 147.592 112.892Z" fill="#1E3747"/>
<path d="M137.998 112.514C137.998 112.514 140.964 112.311 146.436 111.993C146.436 111.993 147.231 111.993 146.677 114.152C146.677 114.152 146.171 116.646 144.08 118.342C144.048 118.367 144.012 118.377 143.977 118.395C143.977 118.395 142.675 119.362 137.564 119.213C137.564 119.213 136.359 119.437 136.552 117.203L136.842 113.631C136.842 113.631 136.889 112.607 137.998 112.514Z" fill="#1E3747"/>
<path d="M141.205 112.806H141.193C140.196 112.815 139.388 114.069 139.388 115.611C139.388 117.16 140.202 118.416 141.205 118.416C141.226 118.416 141.247 118.416 141.268 118.413C142.244 118.362 143.023 117.127 143.023 115.611C143.023 114.063 142.21 112.806 141.205 112.806Z" fill="#C3E8F7"/>
<path d="M85.6556 112.891C85.6885 113.145 85.7405 113.437 85.8139 113.765C85.8139 113.765 86.3635 116.888 88.6334 119.014C88.6678 119.047 88.7085 119.059 88.7452 119.08C88.7452 119.08 90.1608 120.294 95.7109 120.107C95.7109 120.107 97.0202 120.386 96.8102 117.588L96.6385 115.155L96.4961 113.113C96.4961 113.113 96.4441 111.829 95.2406 111.712C95.2406 111.712 92.0179 111.457 86.0742 111.058C86.0742 111.058 85.4068 111.058 85.6556 112.891Z" fill="#1E3747"/>
<path d="M85.6556 112.892L86.8337 113.518L95.5856 115.155H96.6385L96.4961 113.113C96.4961 113.113 96.4441 111.829 95.2406 111.713C95.2406 111.713 92.0179 111.457 86.0742 111.059C86.0742 111.059 85.4068 111.059 85.6556 112.892Z" fill="#1E3747"/>
<path d="M95.2481 112.514C95.2481 112.514 92.2822 112.311 86.8106 111.993C86.8106 111.993 86.0149 111.993 86.5694 114.152C86.5694 114.152 87.076 116.646 89.1666 118.342C89.1983 118.367 89.2347 118.377 89.2696 118.395C89.2696 118.395 90.5713 119.362 95.682 119.213C95.682 119.213 96.8875 119.437 96.6944 117.203L96.4051 113.631C96.4051 113.631 96.3566 112.607 95.2481 112.514Z" fill="#1E3747"/>
<path d="M92.0548 112.806H92.0435C91.0384 112.806 90.2244 114.063 90.2244 115.611C90.2244 117.127 91.0036 118.362 91.9796 118.413C92.0007 118.416 92.0218 118.416 92.0435 118.416C93.0459 118.416 93.8599 117.16 93.8599 115.611C93.8599 114.069 93.0518 112.815 92.0548 112.806Z" fill="#C3E8F7"/>
</svg>
